<mxfile host="app.diagrams.net" agent="Mozilla/5.0 (Macintosh; Intel Mac OS X 10_15_7) AppleWebKit/537.36 (KHTML, like Gecko) Chrome/131.0.0.0 Safari/537.36 Edg/131.0.0.0" version="24.8.8">
  <diagram name="第 1 页" id="7ohkrPZiNdW4_twvkohX">
    <mxGraphModel dx="2047" dy="716" grid="1" gridSize="10" guides="1" tooltips="1" connect="1" arrows="1" fold="1" page="1" pageScale="1" pageWidth="827" pageHeight="1169" math="1" shadow="0">
      <root>
        <mxCell id="0" />
        <mxCell id="1" parent="0" />
        <mxCell id="M9rlW24x9_9SMTPXOsDw-26" value="" style="rounded=1;whiteSpace=wrap;html=1;fillColor=none;strokeColor=#82b366;dashed=1;strokeWidth=3;" vertex="1" parent="1">
          <mxGeometry x="190" y="800" width="160" height="200" as="geometry" />
        </mxCell>
        <mxCell id="M9rlW24x9_9SMTPXOsDw-1" value="" style="shape=image;verticalLabelPosition=bottom;labelBackgroundColor=default;verticalAlign=top;aspect=fixed;imageAspect=0;image=data:image/png,iVBORw0KGgoAAAANSUhEUgAAA+AAAAIkCAIAAAARS9Y8AAAAAXNSR0IArs4c6QAAAERlWElmTU0AKgAAAAgAAYdpAAQAAAABAAAAGgAAAAAAA6ABAAMAAAABAAEAAKACAAQAAAABAAAD4KADAAQAAAABAAACJAAAAAAZghZGAABAAElEQVR4AeydB3jTRhvHz7Lj7E0mSYAQSAh7r5YyyoayKavMlhbaj1K6WIW2rFLKHi277L2hZVP23iGEEMjeezue30lObMvbwYll+9WTB3SnG+/9TrL+Ot29YkkkEgQbEAACQAAIAAEgAASAABAAAswgQDDDDLACCAABIAAEgAAQAAJAAAgAAZIACHQ4D4AAEAACQAAIAAEgAASAAIMIgEBnUGeAKUAACAABIAAEgAAQAAJAAAQ6nANAAAgAASAABIAAEAACQIBBBECgM6gzwBQgAASAABAAAkAACAABIAACHc4BIAAEgAAQAAJAAAgAASDAIAIg0BnUGWAKEAACQAAIAAEgAASAABAAgQ7nABAAAkAACAABIAAEgAAQYBABEOgM6gwwBQgAASAABIAAEAACQAAIgECHcwAIAAEgAASAABAAAkAACDCIAAh0BnUGmAIEgAAQAAJAAAgAASAABECgwzkABIAAEAACQAAIAAEgAAQYRAAEOoM6A0wBAkAACAABIAAEgAAQAAIg0OEcAAJAAAgAASAABIAAEAACDCIAAp1BnQGmAAEgAASAABAAAkAACAABEOhwDgABIAAEgAAQAAJAAAgAAQYRAIHOoM4AU4AAEAACQAAIAAEgAASAAAh0OAeAABAAAkAACAABIAAEgACDCIBAZ1BngClAAAgAASAABIAAEAACQAAEOpwDQAAIAAEgAASAABAAAkCAQQRAoDOoM8AUIAAEgAAQAAJAAAgAASAAAh3OASAABIAAEAACQAAIAAEgwCACINAZ1BlgChAAAkAACAABIAAEgAAQAIEO5wAQAAJAAAgAASAABIAAEGAQARDoDOoMMAUIAAEgAASAABAAAkAACIBAh3MACAABIAAEgAAQAAJAAAgwiAAIdAZ1BpgCBIAAEAACQAAIAAEgAARAoMM5AASAABAAAkAACAABIAAEGEQABDqDOgNMAQJAAAgAASAABIAAEAACINDhHAACQAAIAAEgAASAABAAAgwiAAKdQZ0BpgABIAAEgAAQAAJAAAgAAQ4gAAJAAAiYAQFRQUJkRHR8Wk5RmYRt71LDPzi8caiPvRlYDiYCASAABIAAEDCQAAh0A4FBciAABKqXQG7k6V1bduw/ev5uYoFYLK+b4HqFdeo7ZNTET0e8HwRCXQ4G9oCA5REoy34b9SoulXw+5zi4egWEhNX3d2ZbXjuhRUBARoAlkUhkAdgBAkAACDCIgCj16upvpy088CxXQZgr2UdwA7t8vWL9z0NDHZSOVDYoSn1w+lJELnJv1K1fKz9TagDmWFJZlpAPCLwbgaI3F/du3XXwxNmbURk8+c8AwXGp1apbvyGffDrhoyaeprxI3615kBsIaCYAAl0zGzgCBICACQmIUs79NPKTpdcy8V2Z4NZsPWT0xz07NKrr624nKclOev3kxj/79518liEkDzs2+WzbsbXDg22MYK8ofuPQxl8cL0TO/Tc8PTaljulu/syxxAhYoQggYCABUebtTbOm/7zjXoZQY07CJXzI3LUrZnQNMMp1KsqOvHYjKpflGf7eB2EeGmutngOMMqZ6mgy10AjAFBcajuoIlOUlJabkFJZJuE6e/kEB7rbVUSnUAQTMjIDgzb5ZXy0n1TnBDe47b8OaGT1rK85j6dRz6KQvpxxbOHXq8stpwuJnW7+f07bFzgkhRpDoEnH5a0WJRD5iZxJ8zLHEJM2HSq2YgCj98sLRoxdeSsPinOB4N+n/8bAe7RvW8XGzFRdnJ0U/vn7m4OHLrwvEBZGHZo7MLNp7YF4373fW6KKkw3MGUA/ngza9OPRZ4DsX+C4dyChj3qUhkLeyBECgV5acgflE2c9O79lz5J8L/91+nlxADvrhjSCc/Ru3+6B736FjRvVv6mXSHwMD2wPJgUCVEsg+t3rx/hg+vkjc35+1/e85ndSNZjmFDlq0XZLXZ+TmF3xhwtFVGycOWdbdpUrtgsKBABCoegKiuCNzpi6+QqpzTmDPWevWzfwoRHEKW58h46d/8+Xfc76Ysfl+rjjj2u9fL2h5cdVHvu96E5U/Eisud6n69qqtgVHGqLUQIquWAAj0quVLlV744uCi72avPf+mRGk8TiwuTHp6Yc/TC/v+XNdr+u8rZw+qr/gb9G6mlaa9fBaTTXiHNqvvZYRRxXcwhjmWvEMjIGt1EhDFHvt7/ytSnts1/3z+dLXqXGoPO2jAj98OOjX5QIqQH3n0yOVZ3QfKpLwoO+r2o7hitldYm5a1nFTtz319++HbApZ7vdZtgilZX5Tw/EVKkSgnvYi6UkXFaVF3b2ewyJwsW6/6TUM8qPt/bsydh2+KnOq2bBfiTh4T5UZfv3D9eVxavtjJt16Lzt3eD3Ej42mbYcboaQmtBggAAUshkHtxzYJdr/j49Zlrxx//3jW/q7rhK88W41fvkhT0mbzvrZD3cvsf28b1nN0K3khbyjkA7cAE8CJR2KqSQO7d1YOCuVJ/84RjrfdGTv911aYde/bt2bllzaLvxncPcy/3RU84hI/bEckzki3CmHX9nHHJhMeoXVlGKrNyxTDHksrZD7mqn4AwfssQD/K6IJx7LI/g6zIg69CnQdRQAzfsm7PFstS8R0s+IB94Cfcxe3NlsbId/uu1fRzJwy5Dt6QIcbQwYcsQ1/KrEccrbXZt598qITMLEzcPcsYHnT/aECvkJ1xZPalDTTuFbIRjSK+Zh14WyiqidgwyRk9L6DVACAhYCAFh/PYRPtQlZdf8h4s5WlvFj1jVS3oP5Tb98Yr86seZct8+uHb5ys0XqervqvmxDxUO89JjIp4/e3plUQ/yRwE59lz039Nn1Pb8+asUxas5P/bBtSvXHsUVVNhV8PbWyT2b1yxfvmbTvrOPk6lfiYpj0v8NsgRn0d8Yej0QsjACINCrtEOFKSenNXOgfmk43h2/+vtBFikEaFtB1PF5vWtJFTzh1fOPh2oub1oG/QL8qFU9qR8al+Hb0/TLUkWpmGNJFTUQijU6gfyjkwMpxe3w3sL76u+uinUKE7cMlSprx+7LX8j0PO/BoveoN1Iuo3apucnzX63uTV0izoM2JVACPXnbcOqxQEmaS4MOHRbco0wRxm8cSAn0vn+c3jA63JG6vAmui7evh/RSx+nxotUph+MUL3aDjBHqZ4kiA9gHApZCQJiwbbgneVnp9XyOU3/sJVXz7X6+Lb99yh6JvcYfkGlpOSLe09+7Uo/vHmP2ZOOn7q3DNF77hMMHSx5V/AwJ4/6SXv6DNicK+cnX13/+QS3pbwD1O0FwPJuOWHw2riI5WaFBluD0+hsjbw7sWSQB6ryW3oDgX6MTKLi25uctz/DEFsK51f+27l81rqWqOyjn0AG/7Nox6z1yEECceWnVysOJIqMbAgUCATMiUBb7+nU26beBcG/QoL7ud9Zsz3r1grlkA8vi4hPKKttStv+otfefKY6ifbjgUvko2rPnjw583ZpmSumd3ydM2xdZ5v3+lDVnniVlpKdmJDw79nO/OvhpW4wXrc5ddiajkqYYaEkla4FsQICRBEoe3b2TT04ys2v2wQc6V32zfTt0aEktH+dHPn+RLb97isXSfb5IaWqptNEiEXVYLBQK8ZpwiVgaVAdEjETlRZFHK4oVl0Ru+6xXn/9tvBpfLCbsnF0cOOQ9XJj9dP/ckSN/PpdeSUtwFfobo85ciLMcAjAHver6UpR0YusuUp4ju8aTF87tp9kNlOcH0+d9drLf7495wpRTB068GfFVfdqs8bKchLi0YhvPWsE+1Iigks1l2fFx6aXcGkF1vMnDJbkZhWXCAp7090EiKM1LS6O8UrBYts413B2ky2gEuYlv03jONYP9XcojMiJv3n6WmCfgugU2aNOmiZ/aqqrAEqXWQNDqCYjS0lIpv2rcmv6+tCtBAxqOr68PdRaLs3JyqZwaEuqItvUObuiNRHE37KmRC8LOo1bDxnWl14dKVmF2RrZDwzErd6yZ3JKaio6QZ8OBc7fa5vUYvOopjx99cNep7/pOqq0hu0p5tAiDLKHlhAAQMG8CZXGvX2eRVzHHMzxcj+dzm5r16vlzzr4Wivnx8fF8FKDo7ElPFOzAESuvN/4erz85N2/4L5eKkWO3+Yd+7elGrj9hsey8Q5vTHs5xbOntpWP/TUsX12g/6Ycfp47s1tSfSL17dNXM71f/lybMvbtm9qoe7Zd0qdSKdcON0bOVkMzcCMAIepX1mCj10j/nSZ1BOHcaO6GrbOWa2grd3hv5cTtSEYsLb/x3LU3+7I2jyh6vHNwgvGF4aIcfThep5i69s6RvWFjDBmFd518sQaLUXZ+F+fn61Wwz82Ixmbjw2NQwP+nm61939OY3VNmi2K0TGoWHhzX5cn82QjmPd88c2LJR024DR44dP3bEwC7Nw5r3/m7X41yl2qrCEqUqIAgEkKikqICS2YSzk7M+YwiEk6N0dolYxC+r9Ai6oeQ5gR8t2blBps6l2dneH342rhO5/EOcff3qrRxDC4X0QMDKCYhSU1Ooy58T4O9HvRjTAcTGx0+aTpidk0u7d+rIqHjYKahx23bt24b7OEkfzp39wtu2p7Z27ZoHlz+BK2QQZqRkckJHrjl5asu3A1r4O7GRQ0DbMUt3rB5XH9ssLnm2e8cZ+o1cIbOuXUON0VUeHDdTAiDQq6zjih/evk19/9CueecuOt/T2YZ2aB9qh40RFz999rxU0Soxn88nXT6JeWV8dZ995fMpSYIPl+FU/JISnmJuxX0xv5SHF8bjTSwUCPCLP7GAX/J675e9u49beuJ5ZrnzR/JwQfTZ5RMHTVz/mPZEUBWWKNoH+0CAIiCucHGGXz9T56suLmLZB5HZbH2G3HWVp9dx+2Y9+jclZ6PTN5s67duHk7pCnP/y5SvapUxPCCEgAARUCYiKC6XP52xnZ/JJV+eGn88dKVdL4hJembpbpM4SKpOAE9Bv8c6/prT1VMyMnUpNGdeGHGoTpl3573ah4jHYBwKGEtBneMrQMiE9SaAs9lV0JvWerkZ4eIjy+zFVRvYhISFc4jFPLEyPj88UIfxEXpmNXWv4b//U+aJInHnu189X3i5Bjt3n7vpWulYOsRwCW9Inz/DuLB11OjaW595i5LTpnw3u3MRPEn/jwB9zFxyIKBTGn5w/e2un41831m29GlMNtERNCRBlpQRYtnbkgDh+gCwpUXZNqhaJuKBA6hiRg2/p+oy5qS3FWJH2wcF1bIm7PDE/MTWdGgo0VslQDhCwAgIVs7wl5dPEdTZZgqSynOCw2ZRS15nDCAnsW/Ud1Fx1Cottgw7v1ePeeMoXZkW+jCkbBH4fjcDaaosAgV5VXS9KS0mmbs7coICa+mgGZ38/7FmqAC9Iyc7BM/Aq/YFx99COPUKR4FXUKuqniu1et0PPnj4amslPeBNvV3/Y8q1r//eedBYv8hzw/dY6tkU9vz2VJsy+vG33zUlLu6rxIa2hQMVogyxRzAj71k2A7eFZg4PeChE/JU3LR77lkARJyUkCMsgJ8Cs/jeUHq3/PwdUVj/zli8WlJSUg0KufP9Ro1gTw8znpFgU/nxcXF+PrR+crMXFBYSGl0AlXZwWHKiaCYFs3ONgWPeUjfnJyKv5VqtTwlolsh2oZRkCfF0gMM9lMzBEVFuZRN2eWk7OLPpjZDo5O1POSmFdKzlWpno1Ts9eCHZumV6hzaaX2TcZO/bge+VTBj7585Qm8pa+evoBayglwa9cKsiWvGXFeXGwCpby1shEkRUUm4K8a4a+ahIbWr8QSMa2lG34QfwBQQl7BBNvGpnIvwgyvE3IAAQshwHb38KDuhMJk/d5ACVKSEsnLH9n4+/nplPNVTYnt5upKuU0WF5WUVtuEm6puFZRvEgL6KEeTGGb+lYrF5YNn2GeSXq0h2OU3c6L6XtMh+/aDR7dW/eyhW7v3O3qTP5L86Bcvs/SzX69GQiIgoJMA27NhY2oWNyp9dPeuzpVWosT/rtwjnyIJ5zZtWyu8dGah8vfdsmtRZ9XGSCDKy8osIAvieLm7yd5RmsgYYzQIygAC1UiAWysoiFK4wpy4WOmbMa21l8W8fCn1+uJdr14tkwt06tsylME2HNnVr7UBcBAIaCAAAl0DmHeOZtnaSh1LSPScRyspLiqkBs5J1xUm7xf74Lp1qYVu/JTkZGp04p2JQAFAQE8Cto3f70T6QkDi3AuHj73SPoZe8mDPrgt5+NIh3Dr37q5wgybs7e0phS4qLMjXXoYmuyo1AFYSEfGCegdmExwcXKEX3tWYSlmiqVkQDwSYS4DtGd4olJoVWvr47l0Fd+LqTRa8vXr1MekYgXBv06aFgnNg+SOxZhfn6ot8p1hBekYmdflzPD3cpWNuJrLknZoBmZlAwORCkAkQqsQG/J4Oz6PFGz8tLUMfdVCQmpJGjrkTdj6+viaft8bxcHOjflzExSUlIA6q5BSBQjUScGg3eFhraiJq7oU1S/a91nwB5d1ZN3/drWKsz7khw8YNlgliXLRNjRqe1EyZsldRUcrztEQJ//6195ZyrNQgLld6XxWVlGqbQ15858C2y6rj+znX/j0fRz7T2jVo1SKwQqBXzhg9LdHIEQ4AAfMjYN/kvU7Uh8fEWeePHNdy8ZNNK7i1e/d/5BJxwqtbr65+5W+h8YGKR2KxuKgwz/CXwDK/UIbyKyKfz8n67erixeJk7ne0BJdQaWPI6mEzXwIg0Kuq77hBgUHUzVmYFh+HvbLo2kpeREaWkiPo3Hr1Q1R9t+nKXmXHCQ6nGmfcVFkzoGDzImDfcuI3o0PIYTThm70zxs3Y80zZKT8+VBZ/8fdJY+dfyMDXDafO4B9n9KOvEHUJbRBGui4Vxp3ae+SNgsgve3Ni9tjJa+9SnytUAcN2cnOn1prxX72IzFc5LIsQZ179bdL4hecSFUpGOdfX/bEnGutzwqF5/77SLxxSOSpjjL6WyEyCHSBgAQScOg4a1pxy5JRzfu3SQ28VLzB683Kur/r5r0c88vk8fOS4AUFyfY5sPGt4UjNlyqKiokro2ZAg9vSWg4/UOCTmlK8awSvBdDiQKr19aMcN1Tt7+qV/LlLuIeyatm4lfV6onCXYYv2NUWoeBC2EAAj0qupItk/DhiGkOsDzaO/dw18D0r6VPr1+LYYcduMEtG7ViLbOjWCxWFQ/CSu8Q2svyihHhRnZ0qnnhIe7e8VZYhJLjNIcKMTcCLD9B85fMa2tKz73xNm3143t3LHX5Hmrtx86ff7S5YtnT+zb+NuMjz/o2H/W0df47ky4t522auk4ugtR7D+haZ/+rcnpYsKEAz+O+XLV8RvPXz67cWLDjIG9R/9xNdM1JMRX7SRR+/BGTUmFLkw9unze5ouPX0bcObPt93X/JKg8ZwsTz/36ce/hszadvvks8vmtk39+PXz0gms5pF6oO2L6+NYKF3KljNHfEnPrX7AXCGgm4NBu4jcfB5MXJz965/Rx3++PyFNNXPr23wXjxi2SXm71Rs2e1p3+OSHX+mFh5CM+/83JPcdjFa7d0phjs8ZO+euxdEoprWC2i6sbNTW17GVkJLWQhHZYMSBMv7xwwqTfL6cqlIwyL61efjAOvwknXNp/1LdR+ZvwyliCqzLAGEXDYN+CCEhgqyoC+f9Mk86kI3yHb3kr1FpN+okvqd8SxK3/1alcelLes2VdqZl1LsO3pdEPkaGSq7OakQ8CnLr/O10oO8yPWtXTkTxPXYZvV5OJH72mD3XYeeiWFDWmCVN2jPQidTnhO+FgTkWpVWFJRdnwPxBQIcB7c2pen7rStRzkyaxuI1zChy45n8BXyUxFZF2c29GDPJHpG8Gp2X3+mbO/dCAvLOdBmxLo1wA/ZvvIICXtzm0680oxWaYwfuNA6hWXY/cZC0c1VLdehOPdafZZ1euqEsZotUR9kyEWCFgAAWHCiemtKvyfER4N+3zx89qdR/+9dPXqlfMn929cMn1oS19qgBzfpLw+mHNO9XKT8O4vel96eXJ8Ony++vjN55FPrh9f902vevjxm+MVHOxFXuMuI3ZkyXnxn//xIfX6jHBv/+WWS48jI+78s33Zn+dlxQvfbuiv8IabcG8yZM6W0zefvnh64/iaLz/wp342CG74l8dT5T8qlbEE26TTGLndsGeRBKgVxxbZMgY0qvC/WS2oMXTCrtGUo0oaQME+YerZ76iBPuyG4r2Fd0oUDlG7KduGkwOJSCYRFBLwovdOakQpGLpAF8as60f9jDj336Dm4UAm0Dk1ey+9ma1QILUrjNs+wpfS564fbYiR/85UgSXKVUMYCNAI8JNv7/xlUs9G3nZ0nU0QzkFtB/3vj2PPsuUnKC2nNMCPv7BsbFt/WW7CIaDNqAXHowolvKfLuuH7N+E1aqfKM6ww4dzi4U3k0p5waTB5fzxVkUygk5dWSfylVRM7BsqeIQiOR8OPvvv7XoZ6myphjBZL1LQWooCAxRDgxRyf06uO7MqlP2OXhwj3pqNWXFXQwoqtF6afm9WOunfS8xLcoF4Lzp6a3ZK8PdMFuoQfvWV4gNLDuV3Ludcrbssyge7Yc8avIxpQYp5eOuL4dp1/IY32C1AZS3BLdBmj2FjYt0ACINCrslOFb3eOqSO91jn+3WYdj5aPcMuqLY4+MaeH9AeBcGz+7b/psiOynZKb81pTQp8bOvlQosJ1X/zywP/aVYgIukCXZO0e40mp+vr/O5MvK6piRybQ8fCDXb2hq24oCgphyqlpzSjJQXgN3qSgzyVVYEmFRfA/ENBKgJcV8/Da2RNHDh44cOjY6Qs3n8XnK1wKWrPiUe/82AeXTh0+ePTMlYex8stBWJAW+yYhq+Leq1wIL+PVnYunjx8/feHWy3RZIppAl5pQEHvv3PGDBw6fuHAvJkfDWL688EoYo94SeZGwBwQskwAv8eaO+RN6NFR5Pue4BncYNmP1qReyF7xqAfDjzi4d07pirB3f7hyDOoxdfPp1sYR3d0FHfJcj3xHT31njR+IlI5p5cSoGBAiXhlMOyu67MoHuPHBjfEncheXj2wcoPJ97Nvro+x33s9T8NFXCEtwi7caobTJEWg4BFm6K0uMfBI1IQBR35H+DJmx8Qs52IzjeTT8aOaxn+8Z1/d3tEC8v9e3zW2cP7T/5JF1IrnIL6LPkwO7vOtDn0VG2lN5d8GG3n0lXFZyaXabO/eGTLnXtsiP/O7hh1eaLsXy/OoGFsbEFRN3/HX+ypm/FRz/LnvzWs+OsqyWI8O7y7aoF41q5F0bfuZVZf/z49zwQErxeO7D5tH+Ky5vK8W414n9fj+vdMsg2J/LSzmWLt93CX3AkHNvMPH1uUWcFN+nGt8SIsKEoIFANBEQJm4Y2+vx4IcIj6E+PTan0J3+rwVSoAghYCIGyzJgXUW+SMgt4QhbX0d23dmjDsABnhTWh2topyot98igiLlvo4F07vEXzWuVTVEQFaYlZApeagR6qXtMEOW+ePotJL0aO3nXCm9T3lqUQxf45qOnUU/jyH7gx4vBkclkqfj6/8yw+T2jnGdSwRbNg9wrPTWpMqoQluBSNxqipAaIsioDlPGswtSXFUYe/7xZYPltOw7nD8W7z6ca7CjPhlBojTPv3u9YV8/EUyiAc6g1ZdXX/FHKYXmkEXcJ/+dcg6YQ4eQaHLkuf8MiyZSPozr2/Wzg8VDYCIE9KcGt9tOIOfWgBZzS6JUothSAQYDgBNSPoDLcYzAMCQMBIBGgj6GoGyo1UDRQDBDCBirc4cmEGe0Ym4BA65PdTNy5unjuuWwOp2yd5BQTHPeT9Ed+tP42PT27jKT+gtMf26bVw355fhiu+d3MO/mDSshMX9nzdyt0eT9MjCHs72mw9m7CJK7bMH9q4YgoMHsJ3D2vZOFA2FCCtwzFs4vZ/jizGbwFluQmuT4vhP+05s+ubtgqD59LkVWiJUpshCASAABAAAkAACAAB6yQAU1yqtd9L06NfRMUmZxeUCVm2Th6+tcMahvtXTErRwxJBTszjh5EJeWInn+BGrZoElH82TVCQnpbPcvP3VvPKryz79bNnbzNKkbNPSMMmdT2lr99kU1ywF5dX+ydhd62i3Jh7d58nFkgcveo0atmklov2t4dGs0SPVkMSIMAgAjDFhUGdAaYAgeoloGaKS/UaALVZEQGl1cpW1HKTNNXep34r/Ffpum08Qtp0D2mjnN/GxSfQRTmyPGzrWa91l3oaDipEs91D2vcKaa8Qo3W3Ci3RWi8cBAKmJsBhc6gPE7DwN7xMbQvUDwSAABAAApZJAAS6ZfYrtAoIAIGqIcD2H7XuXtNvspFn3YaKXy6smtqgVCAABJhEgGNjQ5BTgwmujZbVoEyyGGwxWwIg0M2268BwIAAETELA3ie0lY9JaoZKgQAQMCkBduAnmx61nZOH3GuH4amhsAGBKiQAAr0K4ULRQAAIAAEgAASAgOUQsPUMbqzZoYPltBNaYnoCINBN3wemsICw4XKpDzFwbW1hIq0pegDqBAJAAAgAASAABICABgLgxUUDGIuPFhUkvUkqYLkHBvup8f1i8c2HBgIBAwkUlQqd7GFEw0BqkBwIAAEgAAQqRQAEeqWwQSYgAASsiUB2Af9/q59+OTC4I7zdtqZ+h7YCASAABExFAD5UZCry1V1vclapSCSp7lqhPiBg/gT4AvH8bS8z8/i/7Y1+k1Js/g2CFgABIKAXAYFQPHdrZHx6iV6pIREQMCoBEOhGxcnUwnIK+N//GbH++FumGgh2AQHmEli2//WrxCJsH48vnrc1MreQz1xbwTIgAASMR2DV4Td3I3PnbX1ZUCIwXqlQEhDQiwAIdL0wmXUivlD883Zy/O/UrbSTN1PNui1gPBCoZgK7zyf+9yRLVmlGHn/+9ih8TcliYAcIAAGLJHDgctL5+xm4aSnZvAU7XsEraIvsZSY3CgQ6k3vHOLYtPxDzMoEc/8MbHkR/FJ0n3Yd/gQAQ0E7g2tOsHecSlNK8jC9ccSBGKRKCQAAIWBKBWxHZW/+Jl7XoSUw+vIKW0YCd6iEAAr16OJuslr0XEy8/ypRVLxajX3dEJWWUymJgBwgAAbUEXicV/b7vtdpDlx5l7r+UpPYQRAIBIGDuBGKSi5bsiZbQF23hV9CnbsEraHPvW3OyHwS6OfWWobbeeJ69/V/l8b9inmjutsjCEqGhpUF6IGA9BLDblp+2viwTaJzKgkfX8Bib9QCBlgIBKyEgvfbxghPV9q479vZpTL5qPMQAgaogAAK9Kqgyokw8BrB0b7RaU5IzeQt2RsGMOrVwIBIISN224Pu0dhR4jA2cumhHBEeBgHkRKBOI5m17mZWv/trHr6B/2RGVms0zr0aBtWZKAAS6mXacDrOxown8K6N2DECa8/FrmFGngyEctloCfxwod9uinQA4ddHOB44CAfMiIJFI8Ky2aMplkybL8ctn7HixhAevoDURgnijEQCBbjSUzCkIu5iQum3WbhI4ddHOB45aJwHstuXKY7nbFu0QwKmLdj5wFAiYEQG8IvzaU93z1hLSSxfviRaL6VPUzaidYKqZEACBbiYdZYiZim5btOcDpy7a+cBRayOg1m2LdgjYqcvKg+DURTskOAoEmE4Ae1PYc0Hfld/YObqijxemtw3sM08CINDNs980W73vUpKi2xbNCckj4NRFOx84alUEtLht0c7h4kNw6qKdEBwFAowmEBlfiCe2GWTiwSvJFx6QXtJhAwJVRAAEehWBNU2x2G3LNgXXrfoYAU5d9KEEaSyeAF4SipdtaHHbop0AOHXRzgeOAgHGEkjP4eFJoQKhwVNW8Ksz/AKNse0Cw8ydAAh0c+9Buf1a3LbIE6nbA6cu6qhAnBURkLpt0eS6QU8Q2KnL25RiPRNDMiAABJhAAC/3xA5V84oElTBGIJLMJ7/SXVaJvJAFCOgkAAJdJyLzSKDTbYv2ZoBTF+184KhlE9DTbYt2CNipy09bI/GVqD0ZHAUCQIAhBPBCT7zcMzatpNL25BYKsEbHzhkrXQJkBAKaCIBA10TGnOL1dNuivUng1EU7HzhqqQQMctuiHQJ26vLz31H4etSeDI4CASDABAIbT8Xh5Z7vaMnrpOJlGj45/I4lQ3YrJwAC3RJOAP3dtmhvLTh10c4HjloegUq4bdEOITIOnLpoJwRHgQAjCJy5k3b0WopRTLn6NBs/5xulKCgECMgIsLBnflkAdsyRAHbbYujCUC3NdLRjr/u6aYC3vZY0cAgIWAwBvD5M+4D3szcFqw6/UWxvq1C3qQPrKMao7vt72rPZLNV4iAECQIAJBJ7E5M3cGCkyqi/zeePC3m/iyYTWgQ2WQYBjGc2w2lbgJeTn7qf7e9ppIlBQIigqVZ4epyU9Luevk7HzxodxOfB2RRNUiLccAj4eGq8daSNzCpVXjwV62wd6O1gOAmgJELA+AvgG98vEMCRBeIgSD1LikcqKHcyC3L8ZkaPksLiml93oDwPJZORxnAqJK3akJfD4yrda6+MKLTYmARDoxqRZ/WU1qOX898yWWuotKBYMmXdPMUH7hh6/TmygGAP7QAAIAAEgAASsh0B4bRftjWUTLCWB3qOVd/dW3tpzwVEgYEQCMEpqRJhQFBAAAkAACAABIGD2BFTn/rJYMGnN7LvVvBoAAt28+gusBQJAAAgAASAABKqWADWLhVYFyHMaDghUPQEQ6FXPGGoAAkAACAABIAAEzImAyhg6KHRz6j5LsBUEuiX0IrQBCAABIAAEgAAQMBYBVf8uoM+NxRbK0ZMACHQ9QUEyIAAEgAAQAAJAwCoIqJniAgrdKnqeQY0Egc6gzgBTgAAQAAJAAAgAAdMTUFHosEjU9J1iZRaAQLeyDofmAgEgAASAABAAAloJqMxARzCArhUYHDQ+ARDoxmcKJQIBIAAEgAAQAALmS0BlAB2Bl0Xz7U0ztRwEupl2HJgNBIAAEAACQAAIVBcBUOjVRRrqkRIAgQ5nAhAAAkAACAABIAAE5ATEKkPoMMVFTgf2qoUACPRqwQyVAAEgAASAABAAAmZCQEWfIwIUupn0ncWYCQLdYroSGgIEgAAQAAJAAAhUDQGY4lI1XKFUTQRAoGsiA/FAAAgAASAABICANRJQHUGHAXRrPA9M2mYQ6CbFD5UDASAABIAAEAACDCMgUVHoMIDOsC6yfHNAoFt+H0MLgQAQAAJAAAgAAf0JgB90/VlByioiAAK9isBCsUAACAABIAAEgIBZElAZQEfwpSKz7EhzNhoEujn3HtgOBIAAEAACQAAIGJuA6hQXAua4GBsylKedAAh07XzgKBAAAkAACAABIGBdBFSnuMAIunWdAQxoLQh0BnQCmAAEgAAQAAJAAAgwh4CKQgcvLszpHCuxBAS6lXQ0NBMIAAEgAASAABDQi4CKPkcsmOKiFzlIZDQCINCNhhIKAgJAAAgAASAABCyAgOocdBhBt4BuNa8mgEA3r/4Ca4EAEAACQAAIAIGqJQBeXKqWL5SuBwEQ6HpAgiRAAAgAASAABICA1RBQFejgxcVqOp8pDQWBzpSeADuAABAAAkAACAABJhBQNwedCXaBDVZEAAS6FXU2NBUIAAEgAASAABDQTUB1CF13HkgBBIxJAAS6MWlCWUAACAABIAAEgIC5E4ARdHPvQQuwHwS6BXQiNAEIAAEgAASAABAwGgHVAXTw4mI0uFCQfgRAoOvHCVIBASAABIAAEAAC1kFAjZtF8INuHV3PnFaCQGdOX4AlQAAIAAEgAASAgOkJqBlBhyF003eLdVkAAt26+htaCwSAABAAAkAACGgnoGYOuvYMcBQIGJsACHRjE4XygAAQAAJAAAgAAXMmoDqCjmCKizl3qDnaDgLdHHsNbAYCQAAIAAEgAASqjoDyGDro86pjDSWrJQACXS0WiAQCQAAIAAEgAASslIDqCDpMQbfSU8F0zQaBbjr2UDMQAAJAAAgAASDAPAJqBDoodOZ1k2VbBALdsvsXWgcEgAAQAAJAAAgYRkB5ggvCU9BBoRvGEFK/IwEQ6O8IELIDASAABIAAEAACFkVAjR90i2ofNMYMCIBAN4NOAhOBABAAAkAACACBaiMAU1yqDTVUpIkACHRNZCAeCAABIAAEgAAQAAJAAAiYgADHBHVClUAACJgvATyyJMgk/8RlSCJESHWuJtU2l7a0JopKUfEzWow+AYdwxHGmJSx8SFVKi9MRsA1Etv60NCXRSJhLi9ESKNbQwLJUVJagJZ+aQyw2cm5FixcVoeIXtBh9Ao6NEduBlrDgnsaOoKVTCNjVRlwfhTBCxS+RqICMwXaybBDHFXH9EcGlpYEAELAOAmKVIXSYg24dPc+gVoJAZ1BngClAgIkEip6igjuo8D4pJfnJiJ+GJALddnYSIJbCz0tpDHrcTncupRRNLiP3LrS4p92QKJ8WozNQ+1dU6ydaqjczUM4ZWoyWQFYzhNapOZ6+A8XOUhOvJYpwQO8X044XPUFP3qfF6BNo8RA5t6AlfEx/HKId0xCouxoFTKMdi56MCm7QYhALcTzIxxv7EOTUEjm3Jh8wbDzoaSAEBCyQgIo+xxcDbECgWgko3EGrtd4qqCznPML3XSQ2rOiWjxFhK8+CJUjkMHlQz71mN2g3LV48et5bz6zyZI3PIrsgeVCQhZ50kgf13As/ghwbyNPiYcvHuJBV8hi8l3cJ3R9Ci1EKhO5ALq1pcfcbIySixegM1NuA3DrTUj1qb7C0Cv4defajFfL0Q8RPocXoDNSaj7w/pqWKGIBKX9NiygMscuCQsENc7wo50hpxvdSltKY4rNsK8QAtbFZIQIKE2eRf8XOUday8/Q4NkOdHqMZA5NwWvq1oheeE1TaZBTOCrbbvTdRwMxTo+ME29wJy7YjYjjRo4lJU8oIWo09AQhf0ZCEv9clHS0O+6FfY8Kv/yhTCVygCv68WVqYQbD9tE6PSaFoEDuC36trNExcrZymJNPjJR1ioUkgUEuUpR2oPC1XGSnFzyhK1Z1I+KsxRjil9o4MAzpB9qjyXXR3kMxb5fY5s/ZTLsbywmEc+nyhteNAUBLoSE2sO4l8P/Je4FNn4Iu8RKPA7ZFvTmnlA2y2SgLoRdBhDt8iuZm6jzOqREGu+pDXofgP0vCdK360MlbBXjoEwEHh3ArxYFP8LulsL8eLevTDmloAnrsT+hG4HotxLykbiiQ1WvHnaZfcOOtW73qPebX2kf+G16NPirRaOIA0lr0KCbKsFAA23YAISldU14AbdgrubmU0znxH0nLPo1afkFFjplrwO+X9OY6o68kc7bLUBiS2bp9h4LkEfqlc8BvuaCOBRZLyoziI3PK0rcRnK2Ick1ImRtAK5d6M1VGldI+2Y5QcCnBJnNFuK3HugJv+z/NYa2kK3rsipiaGZID0QYD4B1RF05tsMFloYAXMQ6HjgHE8uT9tCQ18SgfL+o81yhhF0GqDygAu38HTfD9UdgThDCPh/ZUhqM0krFqCERSh+EUIKc7Ry/kUlUcghTN4GPOeYcETSiU94h+tHrhrE/j3wHDPFZaDyDNI9+ts5G09ympChm+rcCd+JSFxiWDF4daPS5tEH2QYoxekIOjZUTuDU3OAWKS53kRaHYVYCi43Kugi/Lwz24oJdwShteFq5tJkSEfm0xs8g13uUpZBz0FVGE8uzBnyjVAbCkwZxLkPxKpcCYSBgYgKqAh1G0E3cJdZXPeMFOh7ee94XlcWr6Ro8iK64DBHLBbYrMnQdh9I1hwUHx11NXdqjlCrFTsoqUQhi0yshKlOIsmDCThgq0RwbuiWI9ORg6CJRVe9sNu4GLylTFTQcN3IOvUGb6qsV7D9OExYxH5Hz+OkrE/BcW69hBtVpBomLI1DUWFT0WMVUCUpajer/KY/H53PdP5CNN+nBQ3EdszyFHntY09f/S490upKErNCVQo/jNafqkUhXEo+eCP+942Zf1zhYFPur0iYFfqs+K77iCh+RbnwKH6Dci0iYVZ7Mvj7y6KucJWklivuZPGGU3nAqp4MwEGA0AdUviRJKaoHR5oNxlkCApXoWMqhZWJ0/7UJ6XFa7YYcb7VMRHpmDDQgYkQBenotPPKxF8B9eKopnVdWah2r/olwDViFlSaj+ZoOfOpQLqvYwHh9N/J1UUdI5Lar1Y2+A7RJpjolU00CMdRLAJ0/+LZR9HGUcREGzkNKjDn738qA5klBz6vCkoNCtMJRunaeJBbR665m4/ZcrptRS7Vn6ecMW9d0soGnQBHMhwOARdC3qHI+U+05ANb8EdW4u55k52YnfQjg1Jf/8JiHJWpR5FLmqeKrG6havHJVu5qXRsYSKGo8K72rsEU4N5I/nS4C/Ao2ErPoAfp3i9j75F7yUnM2iuGHtHjWuXJ3j+Nzz6H4jFLIK+Y5XTAX7QMAsCMAUF7PoJss2kqkCvfStxrFz71EoZC0M71n2ecmU1mGx7j1c2RhFdZ62lfRLWE/dh2yUszEgnHGAVOfSAU5Vc/Bcczyl2HsMYoNDJFU6EEMngC8NpYc4/FpGyR0n/qTUqwkIr2oI240IlYlz9PIgBAQYRUD1A8Iww4VRHWQNxjBSoOOBGTwSozqzBY/t1d+IvAZbQ8dAGxlKQFGdS01MWY/ce6Ia/RlqsMwsrM5fjla/loDFJafxBM0kv/EOGxCoBAE8MUzV9a20nMyDCC/tCD8IGr0SXCGLqQioGUFXfiQ1lWlQr7UQoHtaYEirk1apfHEakR/FaHYN1DlDush6zcBfoVLd8Lc2BSqfQ1JNZsIYLercsRlqcR/VmgPq3IT9Y/ZV4wH1FveQ/5fqJ0fhOeuRwxH2GgQbEDATAmqW5ym9MjKThoCZ5kuAeQIdz5GNnaMMFKvzppdpH7FXTgFhIFAtBIKXoMCZyjXhL7a8xtKEqZtGdc4hB86xrgJX1kztOnOyC/vRwnO9mlxEtrXUmA0aXQ0UiGIuAdUpLgQIdOZ2l2VaxjyBHvON8hxZ/P69yb+gzi3zBDTHVmGN7jNW2fDM/aRjfgZueMIYfiWl6iXTPgy1uEN6p4HJwQzsNfM1yb0ravUc+U5S0wLQ6GqgQBRDCcAUF4Z2jDWZxTCBXhKNcs8p88eDfE7NlCMhDARMSCBkDeKqfOkmea0JLdJYNXbSj59vnVrREuBpLc1vIGeVL/jQEkEACFSKAMcZhW4hX86obqDRVZlADDMJqFPozLQUrLJUAgwT6PnXEKKb5NyaXLsGGxBgFAH8qSPs41lpyzqBeIlKcYwI4q87Nb0g1+hYnTe9CC5KGdE1FmwEfjmjSaPHzrbgdkPTLIOA6hQXmOFiGT1rRq2gq2GTG+73KWr7BgX+iDgVnx+qsxjWrpm8W8AANQQ8eiC3bvR4EUo1xscy6YUaJyTT6KDOjQMUStGDANboQT+pSZe0AuXfVBMPUUCAMQTUDKCDQmdM71iJIQwT6Ji6XS0U/Btqn4RCtyOvj5H7h1bSE9BM8yNQ8ytlm9O2K8cwJyzV6DB2zpwesQZL6vyqTqNjR7rjkajEGgBAG82UgDovLqDQzbQzzdVs5gl0KUn88Rff8Sh8v7lyBbutgYBnf2WHFfxUxEswfdML7qMUdWP5WKPbVLybMr2VYIF1EMAaPXCWclMlAsSLV46EMBBgDAHVKS7gxYUxnWMthjDyQ0XWAh/aaeYE8Gd9agxCydhHisJW+ADZBSmEq31XzEOvxqGSlyjrGDlR3lZlMWulLCosLrv7LOHFm/TIN+lZuSUCoahSxUCmdyVAECw7LqduoGfDEJ9mYf4Ngr1ZzP/CYZ1FqOAmIpcYUZvvZ6jucoTXksIGBJhKQM0UF6aaCnZZKgFrFOhZucUvYtKx1MjOKxYIxZbatUxuF5fD9vJwDK/rg0WGh6sDk03VYZsz3TsKTl1438Sf04r9iVTneMs9j+43QiErke8EHa3QevhtUva+f56e+i+SVybUmhAOVh+BqNjMM9eicH2hdbxG9m7a+/0wWy6Df8zxIwSesvigCcLvcLCDF49e1UcKagICxiIAM1yMRRLK0Y8Ag3/T9WuA/qn4AuH5m6/3//skIiZd/1yQsqoJNA31G9mnWbe2ITY2ZvideexlSGkreqgUUa3BgjsIr8CTbaJ89GoiKnmNghfL4vTfEQhEGw/d3Xb0vrh8NIlA2Gkj/oNPXusPsUpSShDZI2IkEb+Kzfx5w8UdJx4umNazUYhvldRmlELtg1Gjk8i5BanRYQMCjCegbgQdFDrju82yDGSMQM+/hWJnIjz1nLCn/uyQ9wgjDrRcvhuzaNPl7LyKZUmkyMBSA643053O+PcPf0MHiZ++SsV/Pp5O86Z82LF5bdMZVKma7eshwgGJK84rXAbfpI9/8QtI3aa44QsKL+cwfEvLKpy2+ER0fBaZFU/mwd9yh+vFcIxVk4NFPSKxy2W6WBibnDt25oGvRneYOEjlibFqLKhMqfgbRrABATMhoLpIFH7/zKTrLMdMxgh0fhrKv07j6tjEKAK9pJSPpbn0dTApygk8TAvSnEbaNAHpw5F0IFAsTM8u+nLh8cEfNvphYmc7W8acljrR4N9s/IVzRYEuLtWZqaoSlEShnH+VC6+zBDnUV47UFcbq/NN5h5PS88nBcvypUfKBFjbmESAlAxsRBJKIxBLhmt03y/jCKR+3Z56hWi0qS0W2flpTwEEgUN0E1I2gV7cNUJ+VE2DMfRcv6lfaCK5SRCWCWJ1/ueh4uTpn2SA2lxoLhIHzSrCsmixYYeDRWdzXuHcQOnox4pulJ81srrOoqAINB7GdyT9TbUmrEaL7HnBui2pOM9ScgmJehTrHD7S4axjzK2FoS6wkPb6ICA75HIXQxoN3d5006SQr/ZlLRCjzMHrcET1oBC4X9ccGKauHAP2XlKyTBW5cqgc91FJBgDm3XtXLocLGyv6PdR5W549fplCjgLbU2Hlly4J8VUqAVBhYptvinrr9NAFrdDz7uUorNGbhso9qISESFSJBtjEL178sQQ5K36mcHH/zixxkNWxbtu2qwti5wdkNqwxSG4sA+aBLavRVu2++lk5MMlbJRi9HWIASV6C7IShyGCq4hYT41N1h9EqgQCDwLgTUTHF5l+IgLxAwnABzBLrhtuvKsW7vzQp1jkcBQWfo4mXy46RMx69NSI2++cg9k5tjZgZgx+eKM22w9XbBqMYAQ1tx7WHsqf8oJzDk2DlcNYbyM2l6cqkAWyQSz117Dv9rUlO0Vp68Gr39FpXFyRMlraLm08sjYA8ImJaA6pAh/ByatkessHaLFeiPIpN3n35M9ig5gxZ0hpmc26RGJ0cBtxy+h/1tm4nRzDAzdaOyHTW/rsTslE2H7pLlVMOSUILj6mTr6aLfnxPX0WJ/q5T77Z3CuOMQC7t2uf4o9p3KqdLMfp8jFn5dprCVRqO8ywph2AUCpiagqtBNbRHUb20EzGc1niE9g19OLdt+lcxB6gy4sRvCzuRpcX+xOHjF24od17f8OtTk5ug2oO1ryh1NRUKTnG+FD1FZQoUF1P9sV+Q3kRajRyAiJi3idRqZEI/FVu1mP2bWiBlNbfW+OCWFj68NWvKS8ilTtZaZd+n4ERf3nUS4/5+nnVvXZWhbuN7IZzRK20YzD39Xy70bLQYCQMB0BFT1uRl8Ecx0uKDmqiCg9/2xKiqvsjKfv057+TYDq4yq1xlV1gZrLphShw9eJMUkmIMew75B2Q7yPxys/i3ruHKdPmMQ20k5Ulf41JVIMkl1DJ9zPZ04Bv362DnZG9weXe21zOPU5XPnWUJ6diFzG+g/Vdm2rBPKMRAGAqYjIBYrS3R4EW+63rDSmi1zBP3A2adkf+IbFUxuMccTmxwF5OBRwINnn82e3NUcW1DdNmeriJsagythw7No6fC5Qcq5EvVgX+2F5/595BhiS/OLwHJt1yUowIYlEeTeuZKYrHh/lEjyot8mVqoqq8tEXj7Y8aIYvwzx8TSdTyHt3J1bItsg2msffhLCL4JwPGxAgJEEQE0wslss2SjLFOj3nlG3cmokqYp7z7b/1I++amyr97O1KPG/S1MOZPCr2CyzL55UGOjuc5BkevRkWQoqfk5Lx3FHbp1oMXoE8Kd2yz9LVB0fChVHXXu4+BrdLKeGmz4ICsCuIoUFN/bd2lNMPwohAwjgRywx/mRyt3b1DMhUzUk9B6CUtbQ6c86CQKcBgYDpCKjxg673bd50VkPNFkXAAgV6Rk5RZi6+t+NhpKq/ngj7ukFuPp5svU8KCTfQ1RaBQNcJjOy7+JTcopIyJwf6ejKdWa0tQaGKxxuPPuQrCAO31MxCyvVHtVw4BtoGyQ0jgH/6JPjyyTMsVzWnxi6GlAR64f1qNgGqAwKaCCi+wJOmwb+MmhJDPBCoCgIG38Wrwgjjlok9GJAFVoM6x7WIC+/eiamXT1/rxnYKa1TDnUDisoLIlzmFtAtdnPQwQ+G78MZtugWVRnYfOQoYHZfVIrwmoxtWHIHECm9EsDd3x4bVanDhA+XqXDsqx+gR5vGFeqRiRhJXz25NPVz4+XfuZaSKEbuG39CutcPciZLMzOvXXt/Jkl1yNsENgzqEuvu72ztzUVlxSVJcyn/3UuN4GlpBLxafgUGNQno39fRz5ggKC14+iTn9olihp+WFsN1r9Gof1Mjf0YkjLs4vinudeOFRTrZYnqDa90glgb8qWu31GlKhSzvyM6hI4YsHINAN4Qdpq5aAmiH0qq0QSgcCSgQsUKAXFpdRjayeh13R7eNXbiut0PNuvnsVKdBRcdr+lZdPm+7T70qdbWZB3IESVNGbDLb9WW+Ep8/KNttaqF2cLFQdO6qyxqlVJepV/TBHJQqpliysur06LR3iwxHlHll0ZI9H+9/GN6jnJJ3NLu7mxxuyPqHYzr3foJYj3w8K8+Syab8Ekqn5GRcOXVt8PltlBo1isYdXFNX9dlKbvvUdbSse9SX9W0588vi3Px/fyFdoJeHYY0SnaT0Da9orTKeXtP0qLX7Hnxc3RymoT4VM1bPL9A5lOyKHMFTyQk6Dn4LKUpGtnzwG9oCAiQiorBGtpkE/EzUXqmUiAQsU6CKxKUeumNjJ5moTKayEIlNKHPMg59AAz9pGeCY61jeiAsTiIqem5mF5Za2s0Nwsu5C2vw8OD7GTaXCWjQ12DsPpO7nvzx2dOOQznoRfVJxVKBCyuZ4eDg4cFtfVp8+4HpyS4z/eUH50lhdbp+WfA5o1dsGaWyIWCkUE24ZgsQhuQPPWv34lmLIk4lX5bwynw6ie8/t7O+J0wrK0lLxMHnJwdw2sYevkV6tHK7dtUdlw+mrrZOdWNIGOkxY/A4GujRgcqy4CstdwsgplvzKyGNgxDgFRevSThHyZcGMRrkHN6nurmTksyqASKvQNy9EvPDzAwTh2MK4UCxTojGOsySCOfb3azk68whdJpeR7czvXD9oHhrqhvOS0aw+y0mQnK0L2NWq0C/OsSb6ml5QWFMZEJd9OLNN441cqFmf39e3WuEZNZ6I0N/fho6QX+Qpnt6JthF1404AWgU7ObFFBbn7ki+THmRorUcwH+yYmELJKboCoGAmyqA+yyuMsdo9w+GBgQ0c7VJoRf+JM1L0sdq1QP8+krBLE9nG3Y4tKY55En7r08vjDPOmQt71frSmTO40Od2TbuHTuEx5262GUwlUmp0Q4dx/R3IaDihPfHDz6aO/d7Fxnn2FDO3zRzduNINwbN53Q5tXMOwIyvWf9sd28HFkSUV7S5pUX/3opfXdHBDQKG/dRfbcMHlw/cqpq9xwbK0eXKbyMUj4GYSBQjQRUpriAH/Sqol/yZNf0yStvJRRXDHwEfrzx8q6JIeRHC2lb2bO9305ecT22UJqQsKvZctIfB1ePqK1GzNMymmkABLqpOo4VNqz3roHeHFHGzlnH93u1WjipSXMPDvmaCM3W3wAAQABJREFUXCIafPzI6H05ImTfrlfzMZ3rtKjl5FAxuIfNlYgFWbGxB3bf2vJCdS6tYrHH1pQGTB3bdkhzTzcb6cO/RFSaf//87cX74hNo0oTbsnf7bz4KCffAA4XlQCRCXuKLyA2b7p/N1CDoTUUO6tVCAE8bwH9WsrG4Tg6SstRXvy26eiKDOkvvx1BNZ5079l9mWfKpV7Qx8tLU+BV/Pm6wtGNrRxa3pk9bZxSlOFlFBo3F5nLEWRH3f1r5+HYRFZubvn/zecJz6Hct7AnCsVlLP8c7CXiGjGOob117fMGI0x493VGuznF6cVJE5KIIyqO8rEzYUUvA1l85uixZOQbCQMAUBFRvexWT3UxhjWXX6dxzwfVHvRZ+3H/+pVxSmQgTjy39/USPP4cGKAlvhw9//u9+9wXD+v58JV9s1+LrI6eW9vFXkfGWAwtPlIbNJARYtliNkw4zCPuQVn982bylJ6XOsS0slr2DLRdxun8+YM2EJu8FOzvgLwOKhEVFpYU8EZ4YxyJsvOrWmzqj+xchqt2nUGydput/6TWxTY0KdU4WzbZ3a/dRt+Vjayq4RyaaDuz+x7iwRp5YxYuKcvOT0gpzeGLEsQtq0mRoW65J6EClQEAfAmJe5uFNN8rVuTyDJPlZjJI6Lz+YlRRBvZxicR18vFQvH2kqSdHbJ7/I1Hl5zuIzd1Kol7AsD18Pdyqy4mmWZWtva4rPU5VbZsb/cVUEOp6mBRsQYAABlQF08OFSpb3i2WZg75b2FVXwY3YtWn0puyKo+L9nqx6dw7Eu4dbv3r+zJatz3GjGjKDb1UW+nyr2AnKoXlcYtLqrMcBy+nBEU3dHxM9Jvfjfm8hCbq2QGqyYglJkE1zT2UYiSIt+e+7q6zN3kqOL8CO9Td2W4V990uoDfxvC2X/4gOADy2Ny1RpLuPad0MbBnsXLSDzzT8Q/T3N4Xv79+7ca0siZy+LW7drqkyspG+KpMQK3ep/2C3AnWOLC1L1/XV5/v5AcdeQ6v9el4cjutUqLaCPtaquCSCBgIgLilJv3NrwwxFeJuLSIh9ce43st254c/Fa7iVMiYm5Jx84VjhfF5WWKEb5SCHu7GhyUJEQlMdlJfImXHcuzVdtFg0t/PZpCfedJIQ/saidgq+KgiQ8ItSODo9VEQI1AhyF0dewF2ZlFbl7uSmPd6lKScaKczDxXL3WeqQkPN1cCEXaBgTXSE5P4vGebFqwf1H5eB4XBRGmhhLOTE66NcHN11bNSTcYwPp4xAt2lNcJ/VrgRdh6uEn56zLIllw+lKL5VY105e5d/Ov7gvXwFdxOCNw+fzi6x3z23aV0blmtwzZZ2MRdV57lgjCwbRztx7qvHC1bduyx9DE1+FYnf6C/oN6IWh7D16tDaZWN8Pp4j6xheM8yJfE2fcvdBuTrH2fmFN87dwX9W2CHQZPMhICkpKlF7+subYO/cspFPmJ9zDScbGzYLq+vanhW6vOJ/eWKte6IigbQuFpttTw2+i9Kj9lwPDf/Qw9bGpcPHfQ++n3z15qvDF948VTtzRmvhVnqQ7aTccLF0Hr9yNISBQDUTYLoTpGrGoaG6sphD346a9arPnzt/6u6nUy4L4k/NHvP1rTYrd/82oI7yzBQ23vBvMrfDtNnEymn7koQFt9Yt3Drw2PQmyh9CYRHU7y9Or8Eqi4lmjEC3GKKGN0TMyzqy6RpdneNSJNG3nkWrK630TWJEdpO6vnips1OAxg6UFMc/X/jHvcuKWoGXfuhO5uAgP1sW2zfA0wHlF+LHUA4hPcvZHOlZr65KiGMsgdJYVHCL/CwRy4b6l0N6YberxVh7q82wGg3CpwwK79zA00PmKPEd6xZVjKnJP1hSdnH7eVeiy1cfeLtz2C41g/oPD+zdt/XTe5E7Dj+/Bos3dAKnfU6LXX4C68wFCYBA1RNQHC2T1gY3SGXqoqRji37ceD9W+HjsJ5IdO+f18NcimQXxJ2ePnrjiZjZ6vnz3kG4/dVB5OieLF0tK7bvNmtLxn5+u5oszL6xYvKefutWiypZYaFjTLEwLbS4TmyVOvnln3XPKKYSe5glL80vJXw8WwbGXzdlSziuOexDxn6I6JxNI0uPzcqgfHkcne6m2L4nPTRPhKMKnbduZH7hpLE+5fAgzg0DBTRQ1Br0cgSKHoBcDUERflHmYGZaZ0ApWcJfOW2e9P6RZDU9bJCopio1Jvvck7sbD2BsP46JyVR0cv4OpwrwjG48Nm3955+3U1BJyhQjH0a1ll/bLF/T+ooHyENE7VGOpWRVvQCIkKUNi+Iybpfa1mbWr4nHczMyuVnPZAcMW/PljFx+OMO3S4nFjfz2foslxlSDuxKxRlDp3af7Zxi0/qFfnpPHiMr64+eezP2vqgH8cpKtFkzSVWq2NNUVlGgdgTWGMddYpKcgt0PGanrCtF+YT7i97Tc+tR05KITdDJ8UJSgQ8SttzOGzpvVEU//LQ/bA57Z059jX6TRncslvs+asvD11NSzZkZq/UGPgXCDCCQI3QGaNCa9mxJOKS52dvLj7wJkruzcV24vxPQsmviBlzy3r9esXK1ytcPPv3ajq6e91QV7aNR+CEiS0fzbpzD64jY5KGsoCAyQiAm0VV9OyAnr/s3kmMHbfkEtboeBx95675KuPoWJ3PHDVx1e0c5Nxk4oa9Kz+urzxpRaFgiUAgQJ7dvp49+uTozdF8arXo0C7LenjK0xg4OVGe0ez2QKAzustcg+t9Nrhh14ZeftjPolHOSnHFuID8x6bk2OaL7uzOk1q7ORJc/7DQ8aH1RwzNuHX9+dZjMS/kyobRoMA4ICAjUKNNcAsXfLVIil88+mnnm/hqW+dckH3q4OVz9zLWzenYxpVlGxD4Yci9e+p9rcuMhR0gAASYSEB1DrpR7sBMbOq72cT27zF/1y6s0RddTLm8ZOwniK7RBbEnfhw9cTVW546Nxq7bt3p0mI7X9EIs0BE7YMD3Pwz894uDSULV1aLG0ULv1urqyW3kkaTKG11wF0WNo/3lXqp8aZaQkxX03vvb5nUd3cbX35GQCEpTEjMiopIfvUh69CI1gfToYrytOH3b8sOf/H7r2NPsXIFEwmLZefp0HdBt08IPBvrCj5LxOENJ1UGAqOnpwCVPW0l2SnaGsjonSOemVbnx46IvxpSR1bJs3Yw9VF+VhkPZQAAIyAmo3mKr+JdDXrXZ7bH9Pvxp1655PWpyhOlYo4/5+Vz5XBdB7PEfRlHq3CF8zJq9a8eG6/7mp1j6LXibeqNmfdPNE0tUMbVa9Jl8+Th2Tm12iCpnMGNG0HmxKH0nrQ3OrZF7N1qMVQVq1P9+XHhdB/yavjTiwu0/DkU/KahoP+E+Y/HQsaSjISNuorePnv/y6PnvvjWH9W06vFNgTXuWY2DYN5Oyni158VZZ5RixXigKCBiXgDivFD9lktO/3H3c3VCqwksgm5YDu3xcv8J9+btWy/JrEtKGn3RCYQINWSTHOcCd+jCYhJedBVfOu1KG/EDAJAQkcO0awp3t23X2zt3s8Z/MP5t05bdxY9COnbPr3Z89+tM1d3KQXeiIVXvXTWysdlmoci3lAh1/A73Zp3O/OnJrwa1C+mpRgl0+P1c5p+WFreVBxOx6zrttSEvqNX3R8wcztyqo8ypuSWla8s6t/3yy7PHLElLjuDQI/lBh7lcVVw7FAwEjEEiNSI8Xkmevc6MWv4wICqa+IeRaq86X3wxcPSLQi2OsEXSbTn06zv9p2MHv2o1t7elNjnWw3AMCP53aZXAd7C5Mwk9KuhwLN3kjdCgUAQSqn4CE/F4Cbavql2+0yswwwPbp/OOOPQv6BOJx9Cu/jR3w4aBJlDqvP3zl3j8/a6riz1x9E7E+lw6h48Mu7305d1IjOyxTaatF2djlnPrMlhbLmBF0SwP7ju0hAr3KX9NnJGZkKBcmnz+ufMRI4dyIZ5dimzRoyGGx7Tw9CIQ/0GJpW2lBTolA9gvMYnEdPZzVrVwRlRbkKyQkB2Y1JbU0RObaHn7U0+03a837wN2W49RmcO9D/fjFAsLBgcNhscRleVeflLVu46P7Ravu1osLS4QSG6f6bZrNaNN0ulBUJmJxuQS1WAQvT806uu/xfVghqhsjpAACTCRQsVpLbhtMcZGz0LDH9u70/d972RNHzz6d8OhWBiK4dQf/sefPL1q4aMigJlqs+O7Cq8c3s0ae/mR7jFBhtSh2caEmnyVGWclziNl1naSAJ6R+IFju3u70c9u2w9CO/YKM1XEsv0bBverg7+bSN46brxs5E0AiKsvOsTx1jlD2mR9a1/KuUbF51ezw/ZkMNc6cRIkHpzYPkCes4V27408XVL4ySacHocoRkAh4fDxsJZHwBSXaTjpJGV9EugaVSMrK1PQZQqVnNp399XR8fBFOxWJzbV0cbdgSQXp01NrfTsx7VMwn6xDz8X+0TVexYmEZ+UiHc0rNE57bd3XzjZTkYuwgHbs85djb4g9tsCRCXkJE5PIlp397JJ80SasHAkAACJgjAWO9ezPHtuttM9vNP6SOD+kjkdwcfWrX8naU7uv5r1ik+OPPDhryw3f9/fFQsphaLXqrELG5HGoOoZ7lmXMyGEFnZu9Jkp6nJ33kXYfDcm/eav7AoqWnU/Cnxd1r1xkztPWIVu6OxppGi2w69ev0YyPhmHtRJ65En39egD2nuwYGfTykXR9/fIVJSt4mXJV+iJSZnCptlefQv5406TF3zNh194vxz4GYF7lt4dqh7y/oRH8aQuza43Y/bdlt+rAvdkTxCef2M/bu/qVfsDHGXyttuuVmLI7+ZlpyiJdNcWZ+ksLMcdUGxx/9Z8BdF09UGpdcqlahI2H+mV3/njnk1KKRb6iXLVFWmvA6+XoipZhfXBrx6oGbqPh1uuJ9gKxER7H5L77+OrGOG5GblpdKDY2LMhP/WpP4F8c+vKFfQz8HR0JUnF8QGZn6Ile5ZNUmQAwQAAJMJqBmBB2BQtfVY4K3R78b+en6+wXIzrema1Zq+q0VE8dw/t6zsE+gvqPeYqUPVdiEjZ3z9eH/Zl3MxatF1y/ePvjIWC7HSpaJgkDXdcKZ6Hjpiyd/36k1p6Mr18bl/ZH92w8uKxQSTg42NgT+lEfO5SjUqYWnMTqPek3PdWr0XqtGHVv+KBCUiQhbOzaeDECOnhek7N37/JWlig3n+n3HDWyx5f516tMo4uJ7GxZuGnTiuxYqTqDcGg0b0nXBnqhY2zaDx/ZUUectH2JU8tOE9nFEeTTs6UNAVFz8qlifhMK05Jw0nQl5RY8exDxSTiZKS9GUV0expXkFkXnKxSFhaeTTt5FPVeIhAggAAbMloDoHHaa46OhMqTpfdy8XOYSPXrN3cdiFqaNmnUq4/seET1g7di/oFaCXRlf1b2nfcvLcKUdu/3avWJxxbvWK43162+GFRYZ83FGH4Yw9bKyZEoxtoCkMEwjw/BTyVbhQSH3xU60NEl6ZkHxSlIjLeGIFfSdLXHJiw7+LziYmFYux30OOnZ27E5cj4Se/ePHH4pO/R5bil/cSkYivnFNHsaIyIZ+qVcAXUFmF5w5c23YzNQW/pse1cLmO9niqLhILSt8+ebZo4b/ro5QrkNlnyp2yMkNmD2hMzfH09GTjaXKeXqQ7PHHOlZWLdr5Sd9kTzi4uOAXbw8NL9euQXG9k6yf/43qZkgzUDQSAABAAAu9MQN0I+jsXasEFlL058u3IT0l17th47IYDGyY1Dej4zVY8dB7AEWZcXTZ+rMz3og4ISjMPqdRu702bMyGMnIorjDu4blcCx9E6pKsxBmF14La+w7kRU6fG1nJjF2YVpGn8Rqjk1cFT/a45u0l4iekaEgnzTmw/c2K/c+vGvvVqcFmlxW9eJd9JoQRk9NkB953sSgvjlMfzdBQrir0/4cuoQEdJdnpRLtUzovSE9asT1nPsGzXCtdi7cCXFefkRL9Ki8hk6ci5KOffz+LlvBm38a4oeK08E8admj1+YMWbzuklNVFeR21CLwV37/vBdxpJZZ3OEKSeX/Xak95YRQUpP+iw2QZA/CGyOqj63vvMbWgwEgAAQsHACagQ6zHDR1OdYnX8/8rP193ORc9MJ6/eu+UTq75zt9d5323YJx2HH6MnY9+InxK7d87r7Kd1dNZVJi2f79J0x8+MzE3fFCovv/LU2kfrSBC2FRQZAoFdJt/KLil/rXkgoykjLU/HQomJPaeH9e4X3laOFaanK2rwiiY5iS/MKo1WzCksjnsRGVBTB3P9FCftnff7bhXjx9ZFitHfTlJZKc8ZplgviT84ePXHFzWz08peOnfZPrqdWXuNXGJ6Dp0/Y+9/Kpzxh7P7Fy4d1Xd3Hm1YQBIAAEAACQMCKCKgT6KDQ1Z0AZW8Ofz9yMqnOXZp/9te+lSNDFaaJYt+LM//eKRo7esGFtMuLx44ldu+a2823EhqdXWf4j98ePj/tZLowIz4e22ENK8Gs4z2BupMK4sySADto8KzFE5u5IF70oRkjJ//5UPb5JuXmCOJOzBpFqXP3Nl9tWDZBvTonc2FfIJzO02aODMaPq2Lei+0L113XWKpyLRAGAkAACAABiyOgOgfd4ppojAZR6hyvCs1Frq2+2Lyfrs6lFeBvGM3ZsWNWVx+OMO3iwrHjFl1OUzdzViQQkl6yxCIROUNYzWbbcNzsaZ1crUm0WlNb1fQ4RJkfAfuwUasObJyMp7fwXks1uur7AITV+cxRE1feykYuLb/4a8/vg4PVDp5LW4/d5gkI7MzpW6kzp8K76xdueqzsRUTz2AkvHpW+kf/xEsyPKVgMBExCgOOOOmTR/hoeM4khUCkQUCagohJhkagyIlHiyVmkz5Z85N7my637VwyvrzB2rpiY7ddj/o6/v+/kRQhTzi8YO3HVPdUZBsLMzGws3IU5Obmavh/h1PaLOZ83r3DhqFiBhe6DQLfQjrXoZtnXH7Fq/+YvWrlKNfrnGx7SNLog9sSPoyauup2DXJp9tnHvH8ND1H2BSIEQXs2LEOXM6QPpatHLqxbtjlZcLart01CP30P3QuR/TzoplAy7QAAIaCaAJY+NJ+2Po23OmuaC4AgQMDIBFX2Ov1Fn5CrMvji2d3j7tvVcPdtP375/+ZC6Wu+z7IBeC3Zt/7ajp13t9n061XeiN16U8/zI5sMP8XI8cfq5XRuvJiqPkJUn9+gyfc4n9VU+3EIvzHJCINAtpy+tqiW29Yav2Lfly9buWKMf/nbk5xselGt0QezxH0ZNXI3VuXMTvFpl5QhNz/QKuMo/LexAOnNqRS4PFyaf+H3p0QT5eziW0RzPK1QLu0AACAABIMBIAqre/ljgB125p2xDhv1x8Pz5A78NqKPlHXVFLnZQ30V7T/x7ZPNXrd0q4qj/8w5/0bTVJ38+Ir9JgoSJJ37o2rTvb/fVumpj+/X7/ochQVayetJKmkk7GSBgGQRsQ4Yu308Qoz5be/f14W9GSiT7Nn3qcWXm6E/X3MlBjo3Grtu7ZkwDDW/c6ATEFeuB3N7HzpyOD1sXyRe+3bt45dCuK3tLnSZKnbjQczEjVGMwateZZgqH/ttHOwYBIAAEgAAQ0E2g4qYgTwkj6HIW8j3bOq1ayEO69myCOnYOUknkNnRz4tDNKtHqI2zqjt1wu9OvxRKuR6DWMXv12c0qFkbQzaq7wFg6AZvgwcv2bfu6vQfixxyZMWLwgGGTSHXu0AB/JWHt2IZ6LvOWiCXicp+SUmdOdajVohFbF66/IV0tSrDZlENGeu2MCLEdkG0A7Y+t9PKQEWaCEUAACAABMyIAU1wY21lsN/+6IfVCgjwtXZ8jEOiMPQnBML0I2NQZsHTv9hkdPRH/zZVzj3KRXejHq/aun9jYAJkq0+e4RsqZUx8ffGGIC++sW7jlCTUXjsOBd016dQckAgIGEJCIEV5UrfjH1+141oDyISkQqCwBNSPoMMWlsjAhX+UIMEZ22AYhr+G0NtjXowUhAAQ0ELDxC2/TONDudnYJHgcnaoS0aBSk+k0iDXmpaDH5cVXZRjlzOnz1p//yxdmXViza02/vp3VsbPSYYScrAXaAABDQh4AwD92tRUvo1hU1vUSLgQAQMAkBdQrdJIZApVZLgDEC3bUDwn+wAQFDCZTFHP5u1GebnpQgO09P29zspH/njPmMu2/LtDbu+hYlwQN5iptT2ylzvzh6b9nDEmHyyWV/nOi1tjHXBlbwKyKCfSAABICABRNQHLSRNhNuARbc3cxsGkxxYWa/gFX6EaDU+acbsB9Wx8Zj/7x8Zzf24oT4b49/P2ryuvs034vaypMtEpUlcu/89ZyxlDMnfsyepX/elnBtGXqpiMsQP5P2J9LgoErWONgBAkAACAABrQRor1WplLBIVCswOGh8AgxVHcZvKJRoeQTk6ty56cQ/968f3ySk36LdW6e3w2tG3xz9fvTnWr4zqkRDZbQEO3P67kfKmZO45NG2dWcLuAwdPsk8hG570/5SNig1DoJAAAgAASBgGAGVm4K2r2EYVjSkBgJ6EQCBrhcmSMQ4AnJ17tLis40H1nwSTvlssak94Lc9m79sTX7D6PCMUV9sfCz1w2K4/TZ1R86c0cMLXyHijFNrNj/gwbViOETIAQSAABAwRwISpKLQzbEZYLM5EwDRYc69Z7W2y9W5e+upW/avHhmq4O+c9L24d9PnLVwQL/rA9FFTNj8trBwo2yaT5nzVwYVAYn5sTCyfPk+9ckVCLqMTcG/dev0vA3b/2uu7tnZGL1xLgaaqV4tJcAgIAAFjEVBaIwrzW4wFFsrRnwBjFokWPkJp22l2ew1Dbp1oMRAAApiAXJ17tP3f5r3LBgereFixDRm+fK9INOLzLU+i9k8fySb2b5jURI3fRb6A/FioWCgQqVffTh2+nPvZsYErn/DUH4f+MCIBwtnJhisbMRAjvlBQqJs7y6tuQNsGPhwk4r5yYN/lyb/+akTT1BRlqnrVmAJRQAAIGJ2A0vg5Q6c4Gr3ZUCCTCDBGoJdGo5R1NDIOodYj0J0bNJjaydsZlT69+ODQm+oTg6aql9bRBgVECSdmjqJWhXp2+GbrniUDaquoc2l59qEjV+0VCj+e8vfzl3umjeI6HP9zZIhSWmFWdhYWdMKsnGxNus7zw+mzx5wcs+U13yAzIbFhBFzq/ra4Sw8vDqF4G5RIREJBQW5B3Nvkyxee7X1erKmTDKsLUgMBIAAEdBHA36+jJVH8aaIdgAAQqCoCjBHoVdVAsyiXCG7VcFi3GngUsE7uy0NvKjkjw/Cmmqpewy2V5WB7hbVpXsc53uWLbbsW9A1SUtyyZNSOfYNPVu8Vij7+3zHue91a1FRKK8qJOLL1yGMeHkGPP/P3thEtPu/gp+bDZOyAgT/8OODsF4eShPTSIWQ8AmwPz2APujrHhbNYbBuuu3cN/NesVb3u/1z5bncifMbGeNShpEoRwL7bCx8g/MpXmIPEpUgsUC7FIQwFTKNF5pxHWcdpMToDHGcUvJSWqvgFSl5Pi9EngAvBRck2QS6KnSML6bsT8DXC42WK25tvkaHeovArcfcuimWgxBWoNIYWozPg2hH5jKalytiH8q7TYnQG7GqjoB9oqfKuoYz9tBiEJGV9EJK76mUhMYqeKk9DcFHIKnkQ7+G24BYZutX5FdnUkGfCVDFbQzf/L5BTE1qmt7MRPlEN2jz7I8/etBz4fMNnnUGbc0vkN4mWI/MYyr1Ai9EZsPVDtX6ipSq4i9J20GL0CdRbj28i8oRlSSh+sTyouMfiILY9Yrsip6bIuTXieiseNOE+CHTjwbcPmPFDxx6+NrK39Pgax9+oLOOV5WbnvYqMPXkxNqJId3VshEwyUmiqenUToaUgR8YP1fvCoXlzf2yxrs2p0YS1B2uN57bvXE9hljrOlX3gs6ZjdyRLJ5YL3x7+5v0r51ZePT6toZKMx0lt6o2a/c2hy9+fy9ZVGxyvLIGKX1FxXvKxC0nZ1NAVi2Pj7unRqHHN+u42BMehcd/Oc1KOfn25uLJ1QD4gUFkCEhHKPoUyDqLCe4j3Rkcp+FtLSgK96BFK/VNHLqXDNl7KAp0XZ3AhuMza8xFSEOiiwsoU4jVYWaCnbkEiA5ffO9RXFuhZR1HBTaV26whKypQFet5VlLpRRy6lw1iBKQn04udqsAjaKQp0AglpaVh2ygK9LIWWQKlSTcHAb2kCXcyrTCEePZQFevoOxE/RVKf6eCyLlQQ6Pudzz6lPrClWOExZoBfcMrhF9mHKAr3klcGF/J+964Bv4ubi8k5iZzh775BJyGAl7L0LFCir7FVm+drSlrIKpaUtUFpGgUKBDqDsvfdeIRAgCdl77x3P+3R2hs+xHdtxHCeRfv4lJ5309PS/O/t/T09PUEOPHXBr8HpNYTxiJR9DhgNO083HAIuJAL6JtVxCBF1j2NNt7UK92NYS90OdaEcHy04BHmOGZp46eHvLMzRTXweMegf67p0DlW9p6Nu/b8PaZhMPpE880LBcZol+wOKjbz4s5gB9MxOZFVChhhDAqovunnv1QNKfyMj2s6+GfOzBIFMMQgZ5+9wNi9KeC5iGRoXEtF4EeAUAktHM3YCT0noHgTRXAwEM1JoNahoTPV7UkIiatBYEOGkAfuALZMIXwHaR6C23ZVRHBF1zuNc+zsLS3AevCytFgslUurE528vFxIRGopvaTVwwoCz/4u9a9DLX3PDatSQG29a5frazXUOh7cGXZu49mzj4c29rMolmaxlkAKKUmIbStpKovzaJAJzih7/QGHSDQ6ndISDFx2t/3tsdDu16wLxcUBndgggggq558IWlWf/uefJCwmWZ7eX/w6fduptRyCzrsSOd//ktUWtu5pofHpIohUDAPYBJ+KGSGjrJSDVAWdUQqIgpzBRgkKCTaDRjGO1eRYLOdnIYGGDlZqHPopN4VVU5GblPXqRGFEn9/kqpRPfo5NzHm21lSMWqqnMysh88z4hV2rmGwjbr62fKJvNSY9KeZ7eIw5rUcFBWLQRYQQCTnM1RSwhq1DoRwDACJyeRFH9jtM5BIq0bRcBuSaNVmq8CIujNh2295KL3bzZdcjg6zYFJIpu62QbQEwmT+PUV0VErREDftRUq3apU1qeJ93EV8rjF4pkp5dRnd/BeNjlgsJcRkyL5W4vNn1YR9fTVb/9EvpDhRkvx6t318wneQZZ0iUbYwmlFz24++/m/lJTGHGzoLn7bvgwJNaOQMEHy9YuT/8yqUk5bVEvnEDAOAQ5fgLSfdU4xpFDzI7C1x1I+RgEYJOb4p/k7RD3oHgLMAGDcswXVQgRdS+BnxxRkCx3cKIBkoG8hy0+9ET2YxiEdrTtY6TNpgFNekZqY+Ti2olGLHtPKqpePqbUhVVhRiTdJqlLBHETV93A2MsKqU1JK8iVmAxrRE51GCGgYAZJTFxtnnCxj3LTsF8oSdJJ9SOi2+X7uTNEyfkzIqeKUc4EeU8+ARiIzWH69e25zNPp205ObhFAHlMAxQzZ/5GBOxX+PMaGgspIH6HQDOpnKMu0xesD3/LMzjhcqMIlTrN03LO8uYufC4thXW08gdq7hu0Hb4pw3gIJLoLIulgUJ6LsDVmdg2BkwfQGFBRrOmFGNpZW0mgHgylGVUkOxkCgEPlNJBl6ZZkZoQrdWRwiMSyOVOt0BmIq/CnpOUjJAh30ALlpVKcG1s1LJ8WtgPVuqrJEsvGpSCUaYgYsCiamR5UYkiWAQ4oasQHWwZdgTuqUaqSMELsCVSh0vwf31pMoayUppAmu7b1c5FIzU/QaF2C0DEF6VEpkY0QG2NRuhDiwkItOCkYjkPUHwZhZWArgUtewFHqMJd2sRWWJkms9LHuOPv1YWjyKCrtKN04TKlJoHGuPwylWZK6PbOC2YFDQq0MJCTyJINCYoz82+e+3lzouZ2TKUItl06rh0vF9fd0ODWjMgDCpdkpF25czT7Q+KGzXp0Z18fl4R2seSSsL4b0+cmHmyRAEpkdE/KkIIaAgBc7+ANR/YMUmQD5TeuRwd25gBW9wtxd537RwRO8cEedFRB09EnIksx297JnvYiM6fjHB10iexnDuumJn37tf4uidI36/LqnE4O8eE1fEPX+48FX0viw+oBkGh3lNG+PV1ZlhaG+mBwgp5QzNx+Op/vQfb4O2LY8PXbA57IMNCL68xKm9pBODWkTBSnoEHQQ8yA3j9BcK741zcehawWwz03QgVlMnA+Bjw08QEeb9R1ybKwFlF04VAJQyDmqoJbM/01oAQPWcAP01MMKxe0yPrwXCWTccWcsqmC4FosAKaCAnevCHvV0OongOAnyYmyPsbUn9VZVIMGsGWPbBGJB6QZy/IOwksp0h3kn8eRMGAoYOB7yktcHRE0KXxb548ycnXwhp/5cYq0nNeK73oyKxT5y2LAwNMxCwbD9rIx8gwXjSMEM2yshs5zbKT+8PPt8cQWQvJc2C/zdM9HPXEs3IYvmUxbEGimNg7T1poZoad/PIhR8EwKRZu65aH9MbZOeQZr/deRexcAVrolCYRILGsJ87vC+MP44lMMTQ18/Vgs2lAWF3y6OTtHx4r+eQwho0LCDaEtnOsJOrFF5teR9TZkiqKrhy/GZk3YN98NysK2bKz/xT3xF/ixayfOe4DL1cGbCTMenx/2c7ELLEa/Mrw+y/DH8eNmBgcmFkgVwN9q8XL+49zppMROxfj1rr+wm/JuE8ADKrd8SowDiXoDkM7d7oN4F/4A48SQgAh0OYRYNgC5/X4RyqJ2Tlcl1J4EUSO0wJHRwRd6go0S9bYy//LIdaQMGO84lvX43OV64Ri5bl2YVCACRknysnxx86/Pf8iL4NLtevg+MHQgIkhFiYUmkNI6JrMgjnH8+sYCN0r+NtpInaOcVPD3v51OfZuXDmwtOrXw3Nsf3cfNtPV1ZD+kFNXX1oXI/vPPus9zI5WxzMeqrgmT1pgm8/zCgEMk1yXoAmEZlqXQwcqIUBmmffsbS7dBE7+5BRkccksMihTxoJu7DKsE+52jvEKLv/3pp6d18jFUu+9PD/AaW4HGolmFhJiSo8XPT4Wbv28GPAlGuNknTuRVMPO61Thl146fOdSXVbqgMr+eOnAmd76FIBs51LQKMxSDIHvGUKNhj4MhNPNlsncBbL+wKW/HSqDo5v0araOkWCEAEKgNSBQx87FykKOnrQauDXvAhVE0DV/Z5CY5iMnde0t9mOhUNlWll38rSwZJIxb+uTEnV9eSkT8UNQ5feD44J5s6NaClcWFf/l92PMaxxR+Rmzi7ti0sLwR28ZYs0gM34GBI6/eOF0zmW4wboyvpz5uBcx+cn/J9vhUMaFJzzx5LPPMzbiFMzuZJZXJZed0i/mf9p/kyqhj52iOXtElEp8L6wS46fXVGE6ge3J9Fh2pggDG4xQUc2ucW2HUFj2GMZNKJVHYTq4fzXLsGxy2+tfXz+W6mNT0xPS17WCATx8JMtOuyQxpKiy+8bZwpocVdEe3d7E2AfnwndnQx8oVX4uK8dMybuSo4oUG9EYu6LUk2BAa+pFniypXG06S0PDdQFo8Qc+WxK9qtIBe0TI5eosriRRACCAEWgoB+BUBPVukYjqlb8W/vqQm3DSqISLoGoVTJIzCthv9gZ20XIyfE5vyLKlCkXOJZBsjl5FBhiIrYOGlw+G17LyuBu/FmZd3QoeNsiKTje0GdGOcviESbO42wFsPWgGF1VmnjyXUsPPaRoKC9J1bJahkbXnNf7LxxCWD5voZICugFDAoqzUEhAVx6794KBnjyNjBYezQgCl9bS1pVEv/LutmlczYmZSvUCELOyMTnJ9jZdkFCbJXsmEZaSXFmJUFfAcwMXSiglw+ydKaZSha91WcW5ynjJ2+RgeSWZfeK2xM9EgYLyNqPfI7V3hpdPEkJgTvZ+JLxOqSmKMHh+PrQVFCCCAEEALwqwB6vCStJCIhBDEzQfDr5nN+E/0iEftEuSYigAn4FRWcMvGnksvh407ggES19uv4v6/HH5zlbK8E6kw/Oy+4Mg46T2SkXIqTxReqs+5Gl+OuFSS6awcrpkhpQz9rN+hEC62AqenXslSzAg6eM/jTbkZ0ZAVs4uXXcnPjXsD7COFjNlLLKjRrdyVpaYf2XfrsREYpfAhIFNuu/hOdcPYtP5EtYMBzEUGvLK+Wzc/hG2wpp1L0fJDoNEPcTEEyNRAHsMeqKuW2ktlpdXk1RwhlkaiW9oM6IjdlmSDpcGHGDhkbzsMtvvVUXwyqw6NEqiEEEAJNQgDGC4IxnaRSVRxIWiVVpsEssqBrEMwaUYKsyOVfSmxURNX3CXAZPajjyE4mTKq+79C+G4rOf3K2UK6fCS6GZGUvtgKC4sz8ZNksg/82rZSPGVFIJFMzGFwCVACSdY0VECvMKVRsZSQOm2TWuc9KR1MDElaV/HYtsgIS0dHpHAxe1jB+mU5rrIZywndX3zwcZDvcgkximAf564EURYGIROwc74UkEfdIule40lpcJBTyRO+/FHJNrOO6M9JNZOexiuinu7P6ru1tQqcZD5neOzr12j9pKr0by5aLSrWBgJAH0n6S7sjAB3jshAvrpctRHiGAEGjPCDiuBsV3QfFtAgaZe4DTag0EmSEIrckoYcuV1QyVqYAAvyoqLGrTpvMb7hZzcUObXqchnQbqKxZAtjJkiNgFVlFWJZufA1BVxqnCmQCJwqAb4vLI5kzxji6gqqJaSVd3sR64dRL/QSIxLCwD7YjRQ8U10F+EQAsiUJ2XlC+eiaIYmzDpijTBimHwcjyRWIYG8mpSTfRYIiu7sKIqE3/AYCu+iFaTDJh6KtotuNcP3D+RxBXCJ5HttOCT4K7wdRmlVoFA/inAlVoPTMXjKsLoiighBBACCAFJBCBH8jwA4NJ2yYRVg6z9kgUaPNYZgk63AewhhA9cbNemUtW1k5ERIkJNYdv29GuEA5DrrowCO06tjQdGUhRTEmgFVCthRWGP9oSXCzBAZlpPmR86uMFWG2qJRY0QAhpCgExl0EQWbgzjcLgSQXMayseycirKcaM4ycDazFP2c0bu4Mo2wh8WrCgL7iCGH2TlVYieTmBkY+ao4nMkqMr8bW9YeCl8hSCx3ANWzXS2bKgXKmmIAL8EPHUifKKmNKzVjCUZO6WF2y/DdyFBCSGAEEAINEQAzlc7b5QuztwNw3JIF2oir+IPkSa6lC3DpA/wv0r4mI+SXbP1lhbnJxeKjXQMc3PFVmphSa09j8nSl80x4F4ERgwYrwVyi+qySlEsRKysGnJsPEEroNijVpRT5k/5f388upoNjYgkhq33F/O93HTm1lBGe1SnbSNAsXENthXdkVhlanKlQoIOyqJyknn4c0CxdhjqI+tB07MZCTcXgDWE1VERWeKoMOXv81JxGzqJYucwTPbdT1LwAsxNervhcHwO/gBRHfv0XDPYWFbHbfsqqT46GJ+Uk0r48HJUl6Jui/LXDbzPKcBuubriUDuEAEKgHSBgMwdQiPvMclJAwYXmGDliYc2BqhyZZAqthmsLORwxkZZTE2BpuTX2PGNrUwfZV4ka6GRMhQQd7quSkS/yyRWm51WIBJPY1qZWslvJ6xGAoqQf97+JgVZEEtzApfvacRaNuOHIl4TOIAQ0iADFwvHzhQGd8JdRGAsp5dpreT5ftX3mJdyJ4eBeW1STwZOCe0hv7K0/YErIEBtRhKTsxDPPauIqCTITHyWKGDrNfOQU/wCicwzdxuXr9VPPL3YWr8au7UnyP5Z65+HPtwur4QNEYfWY1GehJ6Lokvjo3nHBRWmdzEdrYNdDaaEojxBACLQhBChMYD1TejwFcjfJkK6pSl6ecVYVGaiucgjQXR06moks3vzSpMRGXMTLo3JSeE5+dBLV3nGYa3hUzWaHEj2ZOA/0YUIKgAlL3rwqFi85LX6fl8Z39IIbsDg5DrN7vUvFxWplb8O+O2Wxc4o9m6zn/0HfFUnnN4QpGxZSQjN0qEUE8i+AxBWE/hy/wvckVz1RFdiHVZemXguSgfmwyd1Cat9eSRQa28LUz8vKjoVvpovxSq4fD7+rcHk13q+w/PiZqOEdAj31SCy3wJ++Y1+4/v72u8JcIcPB1W5AH5+hHY3wrQJ4pTdPvLxXtzWosPjYpfgRbl52VJKJT5dtG0zP3U58mV7FNzDyD3AbFuroxCKVvWQo/Mbk3P773r9Ow2d76pFZNh/PD4le//BWzQYF6uHRpFZUqqrv6E3qrvU1LnshrbPNJ9IlKI8QQAggBKQQsF0IMn4llDX8MiGcVjOj8OdGTZmomQwE6DZuq+b4uNBwmlGVmHQ5tZaDyKiLFwmyEu/GBfr40sl0i1FTOt78MYKwISLZcPS0zj3ZImkJ8Weia+b8BalJT1ICPN2pJLrVmKneN36OipXwjNJ38vhyfjev6Ksz/q3feZTYvzDy4r0drh+sDDGiMUw/mN07Ov3miexGVCVKQDntIiAoAVUxhC7hzqZqJUNmy61trL3FyEbWw0dYy1IfbsKbc/HI3U2PJOJVy6onLquKDFt/2Ojnj93sGSSWncvkWS6TiZUxbsnD/25ufESIBlPw9OlP7uyNI62MyBS2a4eZ8CPRCuOXv32TI/IlkyiVOuTm7t7zzGtNrx6mZD177y/n5SZsi02WeAalqjdXVrSe1pCJVjoqBLgsjHiaCox7EktQDiGAEEAINEDAoAOAyyYl15dXRkKHSUDW8G9oGyToomgkDQDVYgHcSXT4hM49anskU+lm1hYBvla2BnhcFmFl7sn/3r5v9DdbWHL0bPQwd38Y19zEt+uvG0xPXYu9G1VYRDZw8XAY0t93sLchjNgirMo789+byDppwoKjlxOHLfawppAtAkN3fmt+5k4StAJiRuzgzh4jQ+ztDEBmGtyQXH4Slp/e/8DHfvCHjjSqueuSTzrFbXzdqE+BfHFNPdPiV7OpA2g97S1NmWwj/aLSKoCvdYS3qvaSID8/Lo/rZk3H7eR1CcMEAkF1ZVVuTsG7iPjTV+NfybBGY3DJKFx4QQVw8aika7ow6trN2RnZS8f59vE0McJdwcQJE/Kq094nnjod9nckgZ2LTnPu/3t5aXaXpaM8Aqz16hph/OqM2OQL58P2w4XUtXLk9AsEGdEbD5nvXuTjrEexDPKf4Ba/WeY+BjVymukf/o3g7YqWqsqHl5MFuJmE00xfQEFufQRIUAYhgBCQjQBcSi7pdw7jdJRHAKNusiurW6ozBL38Lcg7RhiF2Sj1RquveBaa0EezZOBOomPH2skQjWHV+enHDt7ZFtmYE62ocUXE82+PGW2e5Ax5C9vVc+5Cz7kEoZiwsvDKoVu/vCNIy334ZIuHybdDLFhkqqWXzwIvH8lGGLf49du8hsREsg4oT9v6x6sOX3fxZ5GMvYPXTM+feyC9iFBDKxmRFVAPBu9ASSsIwHchHzerR6+S4VskXGCplT5rOylPXPVp4qranEr/U05fHv3MyAxUJWdU1bLnGgG5796tefeObmLazcfcEYYpB4LyopK3UVkxJbUWexk9cSNuPpp786m9h21nFyMTqqC0qCz2fda7orqX4Jo2CvrNfvpg/NtwNwsGKC+LzZduKKNPjReJQgr4ullpXHDbEVjxRnosKHiLNCIojxBACMhBgEUk6LAW/EppswQdThCkfk9Agm6t3mhd7E1xOc0T9YagITHDzSuIz+e5WtIIu6OIrIBVFZU5mXkRr+KOX0t+L4MdY9UcPr4XIRByqoUSJEPw9uL1Oen+Sz706eluZFhn0INj41YmvI3778TLUzJ82atuHrxUlNV1yQj3jpaM2kY1hsMzZ8IOvavzupXXL6iKfbX+P7NdM1ytaTSX3v6jTqf/XUwcrTZyOCJuDqKrqY3uUB+geydHnKDD2Bok7RL0JmHPz84ozJYvgVtc+OCxqm4/gvS4tPQ4+ULxM4r6FVRUxFaIw8MoFtIMZ/GvPoxlQPd2RQRdPryCMulzcDdvlBACCAGEgDIIGHhI1+I3+EqRrqFyXmcs6CprLreBs62pvh6tCm7Uo+WZ+pL4r5fGfy1XLwUnsJjjF0beNzTBqtNy6tizuD6W8Tpi5esIfTOzrl7m9iY0GsYvLSiOeJedoOjXn/Py6oNZV584edoGORkaU/hFhaXvo7NjSqUMh4r6Tbh+44OnLGdjSnVJWaoM1wIFw9HEKdx8jpmZGFiaSsfg0IR0JEM2AqP7+ew8/IjDE2j72ZGtDipVCwH4fgXA2IF+ei09l6iW9tpqBB1GpRIZ+bdIIYKyCAGEgDwEJJbgkxgAfns0g1WrDRJ0Mpnk38H62Zu0Fpipl3cpGy8X5GYX58qvVlVQcO9RgfzzMs/wU2JSU4gLCBvUU9Qvt7Q8VvvUXKyiaAKkUwcb5IPe4JI1Y4ERS29kX+9TN97BECeARAw02IzdItGaQwA+OJgAriD4aIi/5oS2RUkYwTMQH2Ez/L62ReDQmBACCAHoBCoRcRfjAAEH8DXvZtAGCTq8d8YO8MMJOvQWobSimXp009ciAM3nop/PMQP9aovQfy0hsGhSyM0n8SXl1fjjQ0aPj5Zg10w38MER8qCoGaODHayJW2lopoM2JIUVCJzWE8Zj2I2Q1VwG7vSclVcWlZCTlVfK5dXsJac58UhS4wjAReJ0GsXWyhguzLAyY2nT7gOvfkZOaWRCTm5BGT45iZLWEcCvPp1qD6++u1XrmpNvmwR9QDd36B1RUFyJe6KTJGYitH5noA7VQgB3orWzNOoR4KRWc9RIfQTMTJjfzO//1S+XcSM6RkKPj/pQarkl/loL2Tnmam+6cGKIljtvfd2xOgH4aeaUlF547GrEtUexeHAklHQDAVNjg2E9PT8a6u9ky25WjeJS8o9dibjxJA63d6CkGwhYsJnDe3vBq29naawbGinSom0SdBqNMndc15/+vIvbk8h0LceMU4Q3OtcoArVWwPkTulF0YOucRvUFHS/Cxb311citPvj0kB4dIuOz/z4fDoRcQKahqf/6i6uzR2J2jglhoMwtK0Yw6G3zi11n4W+oGDSW/7DvzoOXSbWn4LsuNOQha1EtHi3wH1/XBFfXFJZUHr70Cn76d3X7el6/5jCppmYV//DH7advUsWjtLU0dnMwt7E0plEp2jTetwDGOtklnMTgcPnp2UUJafl5heV/nXsJP/Bn7qs5feHbmk6qXKNUm/0enzi0080ncS+jMkRWJUgy4JcjSjqPQC077xnk/EE/QoBI3VW9+e1w2h/7/6b3gp2KODp0RofTUFT0BGn/KijbI5wnxD1bMMjO928Y72pvpmxDVK8ZEIBs4NztyJ8P3KuEgQpggq7t6PFpBpzVFylapwGXatx+nvD8XdrKef1H9PZSXxqxJbz6x66++fXvB9VcvrGh/qBQr4GhXnBaklgL5VoMgczckmsPo+48jYXzWs/epK5eMGBgSIN4LC2mnXTHbfaFHi4V3bBkMFz0hnu5QIdmyPxQ0nEExFZAIDQzNli7cCCyNLTg5YLgQ47+zbx+eCQQGBUEThFACggfJZR0BwH8eREAARef6ABYkI/dP5smuTkgdt6SVwjys9//e/Lt7zdxdg6pOZxPw+egkHmoJS+KdN/Q6xVeFHhpSJTySu6q367uO/lMuo5aeXj1Nx+89+P+O5CdD+vtu2vtxInDgxE7VwvL5moEZzNmfRiyc+3E0EDX4rLqL7ZcOnLpVXN11mS5bdaCDpGxszLet37cvHWnSqEHGPwxQ1+UTb5dmlEAbgWEcRVwdg6tgM0x7diMyrdF0ZCjfzS0U2iA8w/7bj9+nYJzQVH8PnyaHhGOFr/i+MtSjdHBiMWA/mBThgdCq0SL69XOFYDsfN/J5zgIyDdMx28F+CVGogGMDE0Pu44+gV930C22KSqL2fmRS6/16NQv5w7q6GnXFGmobbMiAE23/5vZP8jX4ffD9+FkF+xryojAZu1RPeFtmaBDRDydLfavH7ds07ns/HLcCohPNcIJR/Qzpt7d0jytxIZAUdgWuM56xzeja7aaap7ekFSVELC3Nv59zdjE9AK42un2s4S8Ihh+H05JqSRDtypTGSw+p1y3dFJLG7hCA4akGDfIb0gPTxTyXGUIi26CtK2EVraLgPkoQomKmVtP4xA7VxGzlq6Oz3LArzTeziOPvVwsega5qK3QxXvRYna+etEwTxe0R5jaQGqvYZ8uHnQa9ddDtyFH93KxhJOQ2utbuZ7aOEGHIHRwtji5bdqWQ/fP3ooU+brwcY5eYwUUMXXE15W7VzRWCzJyPMEJepEVsMYuCyYN6/Tpxz3hJlMa60g7gkTuvxJdkXDjWdtK0K0ZemrCT25heXRCbn5xBYwW1xqH+CSGE5vJHxGsZ27UWiNIQjO5PoPm6mDawckc/rq0xqtQrzPc3cP+s/osPNLXlj8oJx0UXSV0bTaCkFUxA5cefrfnFt4I2mXxnxiUWgkCuM0O/hjxoWPS6V+n4W6xqqecgnI8KAUAy2f0R+xcdfxarEVIgEvhmG6Hzjxds+MaJIq6Rj9a+fe7cpeVZcD4dtGg0f18j15+BWM8C3FGCOfrlWuMajUzAtAQOCTUY8rIQD9362buqnnEP3MF3PR60Qwn0D25Ptu2jqDrUev1PrrwKCs6PRFekEcxwp3L/cyNW328nVZ/c1H0gRvRjN1qhwRNsNClVWT6abMru1rtxWlMccjRMWF+UcWe40+/nN23sdoyzm/7+wF0Z+/XrUOwn6OM06hIhxGAqwWev0mOSsg+cObF4smhOqVpuyDoYsQDvW3hB77pPnqVHBWfAzcOKCiu4HBbpSFQp+4hNZRh0CkWbJaPu5WPq2WvYBdzdlta5I4cqNS4I5q9SXhs8c6zODuHqaCUu+7A+1+W+DFoyNIphgT9bRICJWXV0MMBF4FWOjUJyBZqDGfRyVS42BpOs0OKxtRXbRNlOK9443Es3Ahp2ugmebG30ODbe7dwTnLuhB6f/XjqxLU3cB2CsjFq4U7bVFMCdhTNR2zUGYIOpwWlEr7phuYT3EXsw4F+8KN50Uhi+0QAgzE0JBJc56DNpO8JbBYSOmQFELIoA0B6XtV3f78XQo+q2hSbXr75aNyqaZ4oWFAtJOi/+gicvR2JO33B8CDIYVJ9FFu0Jb6hIRnG3rlwNxo6W6qkyqkbbwVCrF93D0OmOu4xKvWlYuXKgpSE1KyCimohVd/Y1M7V2Z6t2suH3P4EAgGlyRu1a0SIXBWVP+Fgw/bzsHkXl3X9ceyovsrFdzYdDHoUKN+FejW1SyYU6AidEaWSAC5HQwkhoPMICCoJKsJZe20moy4AflCSj0B5FX/Nn9HlVdJzZfciChyt0qYPQVPS8rFDZ5RD4H6YaHJGG67nepNWfPRZIENpNxqs4Ont8dsTy5QbSLuuRaYAoRDuLaUqQb8flgRxGxjiqTPoVWY+P3fu3IU79x68Syvm1xkmyHqmLoGdQ/v3GTZ+WC93lpS6VS8OLvlk7+MsLsXAqtOExd+uG+kh+32D8/Ln2bM2vaww67Pq3I7ZvgTGrxEhUoppJQvD1UOCDq++sgRdK1rpDEGnNQjfWxGpFQRQJwiBJiBQnQKExJAgUtNeTZCNmjYdAYEAg7ZzaEGXKeqf62mOVgZ9A8xlnkWFCAFlEBAKsajEXFFNpWmzMnJl1iHrWZnCSXjlXbMwtimLQKFkikWFOAL45YtKyIEBE5WfWOPy+HEp+dC/xdmuAYdpCVS56bf/3vzt/vOvCmHUYqkkrC5MeHIdfg7vPDT8q283LupiVn8jCfIinj2KLcTtomXl93//fqOjx76FnrJuHUFZfm4ZX8gvKSgqk1rKpxEhUlprJ+vlii+Bexefo53ulOxFZwg60x8AeK9gwMALGHYBhp2BcS8lx4CqIQRaDIGyMOmuWUHSJSjfcgjsPstRggAAAEAASURBVJcYHluioH/o6GJjxvB0MFRQB51qLgTgNGnsAoJwpi9wXEko0flMalZRFb5pKIyr3fzrT4Sld2+/tUzXI4S8JxsGhthaU0gYt/jls+w8SdKEYfnvUot1HkOdUBC/fKSi0qrs/DIbCyMlVYpLKeALhJ6OVjDagZJNmq9a2ZsD6//3zcXYCmg0J1PN3HqNHNirm5eLrYk+mV9VlJf6/u2z23fvvcioKIm7/NO/fccHTbSpZ+jwvaReM2HB/V1/Xhq5aaxDfYX6s/KPNCJEvvjmO2NqbGBiqJ+ZW1pcVgUPmq8jlSTrDEGHjgFBT3F2TpGeeFFpPKgyQkCrCJS9kO4OvluipBsIwLAt5x5lK9aFyxfCBaM7l/ujoC6KgWqWs3BvitzDBMkm/VsdQS8oFju5NT87x5ESRtx4GnGDgBlg+f3ZFRJ0gHELrx24ewI5hxLhUSUHLyJWWFKlPEEvKMGvvoVpy/MWXuqpH//39cXYKiEgG/p+tGTV6km9nKSY5oezv/ki5e6Fv7b/efi5BB2XRIhs6OljlvQumZt25Y8/xvb/LsRY8qySxxoRomRfmqkG50zMTVmQnReV6BBBb/l3vnp0IbNB7LweDnTUGhAouCitJZz/QUkHEJAM26JYHXFQF07rjOyueGjorBYQ4NU7+WqhN9RFsyMAvVaU74PHxxe30FRwOlJetio1eYkXN689I2LnRkGLN+//fVYDdi4Wx3TqO2ntif/On1s6yFKmdZzmN2VSbzO4wyon6q99x98SYyAoq5JGhCjbmYbqiS8iV3RBGxfJzQOF1wifqoTGW6lYQ2cs6CrqjaojBFoegaI7oJK4UoLKBvruWlWs9BnI2k/o0eIjYDqIUNL+Mg3DtijGAAV1UYyP9Fle2qsHMQV1i89IZLZ7SLC0tQ5vJMh68yAqly9hrCMxHYNCOrClJbb+vHYM6E3EiWXS08/UqLr42etCPAKFieWYvk5eJqSynJx7j1LeldZJJ1u72vXwMrVl6xsxAKe8IiUx4054YX7dFa+rKD6QEgtIlh4uQzuZ2RpSuCUlka8SryVxpFrUZJkmfbs5+tsxDanC8pKyhJi0O5FlaAJANlYKS8ue7D9wORW+WJDZ/T75blV/+wZh8QjNKWaewfJc5nnAavjMKWfv73jPLXp6cOe14b+PspPJ5AkSpTIaESIls7mzqj3BZc/Au1EElZy+Bc7rCCVNziCC3mQIkYB2i0DmTumhW07Whh+qZK9VcSCbSNChn1j7JujywrZIwtbwGAV1aYiJ3JLquCubl229Hl1Yw9jIliN/vXVyqV+DrZ+4STd/+9+PFyPzxFZmMtMpdNYPBzp3YCvmD3I7RieaggDJc1T/X8daUgUFx9ef/te026bZvj5GFBEvEQ5zuDThj4wqqvGQsUGTezn5WjFoki71mPB/+ZkXjz746WGJdDgkICn21LZyl2Wzuo32NTSodZPHJnRb8Cxs49534YSl2vo9P+yxfLiLW40ConFhgqKU+P277x1Okvcq0JTht922gpz7Z04n4LZueoePPp3o35R9ReBGjph+6IKZw06vPpfBzzh94O/JfVf2VXGNjkaEtN3rpfTIdMnFRUrpqkSQ8AWImiJVjLIIAZ1AoCwc5J+T1sR2iXQJymsXAcVhWxTrAoO63IvIV1wHncURMOz/zZVnt7aOtKz5ARHmXt266Vhiw60r9EM/O/P41i+jrPCKeoHLTjy5u2OKB2LnLXQbUWpIM4nh3nXL/I6+EuSYRqeSAXXYJyO/H+8ZYK1HIwEBp7ogvyynmMMVYjDEu4GF/YQFQ74JlhHXo16sS9Dv6wZM6mhkQAZwuSBsBxOJoucaEvLjog6O9XSD0n3y0B8nursbUYCAm5eZ9z4xP7WIywcUtrP7iK6GKhtsWwhPXem29NGjhzm4X45+0NBRoSqS6YaDwDCa04j584JZ0M+lOvrIbyej5UyANGxaX6IRIfXi2ueR7lnQ4UriomsgYycovAIXxOBXJWsAsJnTPi8PGrWOIgAXt72fDifwCerB9W1Mb0IJymgdgUbDtijW6OcjcTameh0cWn7Jl2I9deCsoe/wQcGrL14ReyTwU07+uGXCoB1jJMJC1CjJ8urf21//3A2OQ6/BvRqe1oGhtDcVyKx+4/wMDUB1XtqVG3HhhRR7dyujxMJqQLE106cIq5Pexl26G3PxeX42TvoA28V98dweH7rrkxnsoSO9/nn1JlmmgZtsNHRqMJ0GKrOSz56POPE0p8TUbtyH3WeFmjFJFIvgwFkdE9ZHiL4z2Z4zBlmySJiwJOPPX2/uiqwWXQFah87e00a46xei/b1VuyM5MW8ii/BLRXMOCerQYBpLNWFwlSwezoXhP2PuR8fCD0Tziu/+u+/8kM0TbFV6bdKIEFU1b3P1619pdWVo0ZPB22Gg8FINO4dqJXwGYLRplBACuoNA8jpp73Oom91S3VGwfWqiTNgWxcjAoC5rD0Tnl6hhMVIsWIfOcrLScxrauuUpKMhJzyK4JtRVpJkYQwMome7i4QYNpoAb89fG3+4W1Z2uPyAzDfAKVGMjZBqtR6UFj0h0IyaZmxWzacPl9WdjL9yP3n3g7k93ywSAe+P8g+83Hh//w6P9j2vYOVSzKCl+0++v31RD2kbSd7LpKhUZpG4gJCqDhhVGhX299urmW1nJFcKitLT9O24cjOJAPk+iGgd1thQ3ZXpZuRlAzxosOzziQA07h1J4sWFv1qw//cUN2fdbXT/oQAqBioyUdNETTXd1d20wwyHgcbjV1RzJD1fhkviacIvmobOXDLSGNlx+xvntR54qClYrpQ+e1YgQGXLbV5HuEXS7ZeL9Auqvg6AUvB0OuDn1JegIIdCCCOSdAGk/S/cPzedmo6ULUV6LCCgftkWxUm07qEtV9L9LhnUb+9W5JGU4Oi/lwtfjug9Z9Ne7chmgUcnw90OoF7Rw5WRX+DsurHy1Z+PuZzJqksWeFeQmbw0uQwlUpA4Cwuq8k388PJcj8kGpF4Clvoo5GVlJnBnETwuy0t/l4GZzsh7Tli1vNR1Wnvj6260vH0hyOWHx2SdZFXg/JAsbUwNcGCDDhP8nMfToDfgkfgIlVRDglZSUitZ4kJnGbCbRzs17v2NugKWfh0VHyY+bZUCXkXvDxRMXcruiOY2fM6M77ufCeXNiz78xasVz0YgQuSq29RO6R9CNQ4H9Z9KwV0aBiP6Io0vDgvItggDuygL31ZJIFEPgeUDby0Ml+keHqoZtUYwYHtTlv3jFdVrlWUH6hc3rDkVkPvlt9pQvzzbC0SE7/2bqrF8eZUSe2fPfC7mb3QiqaD2WLR1sgZP1kvvbvz8U2ZanH1rlZW+gtDDz0bPfI0X+Kw3OyS4QVpaK6RyJos+UR9CFaRGxjxu8oJWmlOTh3J5EN9AzETGOyoT8DB5ujzcN7rphlLW57C5RqbIICAVyL6WwrLgUn8CQSkJeXvj7xAaXSqoWMPCfsvxDd/gOJSx6uOfglYyGb27SLWTkNSJEhtz2UKR7PugQdZfvcBeXymjCBYAc/XVv4H0EGAYTylEGIaBlBGhmoNMtEDEAVETU9Oy2Feg5aVkL1F0dAtAvZcfpBH0GBX7qCqUO8opl2H8sTOTa76KSSy89zR7RHd//ue0kiv24TX/GZ01bdzX96fY5UwB2+OexrjKXbPJSzn8zdfYvjwqAUeC8vX+t6WciFwVuNd9zwcpF/z347kmZMOfKlk3HR/w1zUXulZArR7sn9JyB+XhCl1oOkEroW8sZrKykohHzqR4z0Nfay4ZlyqIxKDCeC8XVpJaX1/5XUmlBOZcjttRT4X6EeBJkvz/6xNu7jwmdbtzn41Ede6XefhB9/GZqLPJtURJTQjWyvj7uQgZTZSm+bZJkDBeG3+TPf3bK5NR4nECqnXl7696rKZDR1xURhEllTPtPmzvi2jdncvipl/f9Oa7/2i5qLEHViBApxdpHVicJOlkPeP2N03Eh8XmtigXh3fF95pzWALLMX5X2cdHQKFscAUmObjYK2MxrcY3aswIw/sRPC/wUI7D1WNzV57mSdXYt79QOF4NSrPp+9ddh8qyP11xOwzk6Bo5sbsDRcXY+ZfYvjwuAof/s349sm6ho4RnG5fGAYc9Fq2adGr/zXTU/5cQmuFp0+2i4s2VtUpHR1TZr1v8mfQH8oNQAAXYHz4Uf+vXzMTPXqw2U2KCOagVCIObnsBUJn2eB/zlX9183Bv0W9jI3oVBMnV3GOzuPHl0Y9iTy4Kmo53Ina1Trtt3UpphYWhlTQQVfyEtNTKkGFnoSQ9d3D/3QXSJf+TT5jz8k8o0d0pzGLJty6uZvz8qq3x768/TEgBmeJJUnizUipDFN2+J58XuX7o0M7irqdx6Qxe/bkurxQep3IMwPZOwCgkYnaCQbomOEgFoIlL0C72eD97OkG4s5uu1S4HNc+hTKIwR0GAGKZe8Vh45sGuVEB0XPdsyZ/MVpQnxEXvK5lWJ2zvSbvvPob1O9Gn4NE0bHF02wWw79bOVEZ9ziw405tHH7PcJqUcmI2oS2KKNTCJCcevc5sKrvhCALCz2SoKo8JTHz5ZuUJ6+Sn7xKiStu6CnRBOW5hcd+Pz1pw90jz3Nyq6Exl0QzMgsZ0mvH90NmutW/2jWhg3bUlObh5c7AuRwv/sXrZE17mOl3/uiTKfjaU2Heg0N/PCgQAasqc9SIkHZ0SWuGqirMWkSIPVAORwcAmtLjl4AndiD2E1D6XIs6oa7aBwL8MlB8D6RtBa96gPAgkHMQ5BwCeaekBw85usd2uGxKuhzlEQK6jQDFoucXByFHd4Ec/fnOuZM/P5Ug/lnH2fnUOdug7dzA5+PtR3ZM9xEv61MwHKFQIMCpG8VpwldfjMSjPggrw3/fuOc5nGyvSRTxmsDaLPqvowiYdfhimpeLPgnOXb+9cmv6J/+O/vr8nI1XFm66unDTnetZdXZwTamPZUfH/LzlzLBPz2w8l5BQjodbZ1g4L5gTGKCTU/uaGrbG5dDsunf2xaMrCqufXb0YXv/gaagnsz4LZw7Cn2xe4rFDx1/zSeo8zxoRoqEBtRoxuv0ciDl65IdAUCYDURjdJWsvMOwKjLrWny2+DxJX1GeVOSJRQeAjQsWylyBuEaFEmUzAAxhyrL5i5XvwfkZ9VsmjjlcBjV1ftzoNRBEdJevPyT/yPQUY9vWneQV4GBxVk9c/wKBDfSNhNXjdpz6r5JHHHmAYSKj7KhRgKi41gR7exj0JQiIGyr4lCJWIGecNwHQIoejdaMDNJpTADAxwDm+26mR4JH0qbiEw7g3oFtLlKI8QaI0ImIV+duAIZe7UL88lPt81bzLAjv4Y/G7N1Nm/PikEep6Tfj2yc3ZHpcLBC2udWWneM1YtP3nvm9tFwpJ7v31/8IPji0W0AfJzDTlLtEacW4/O5t3cgoygOxJWEfly9V/xKQ2+AptpKIKi3FOHb1x+2mnnyu7BRiQ9Z6cBDi9fJ2n8faCZ1NcBsXTfgSN67g+7USqsivpv+5lRQVM9mxwNXXJYNLdR8+edvft9WEVJ2L9/3PnGRJ05Do0IkdSqHRzrNkGHFwBy9M5vQcwsUHxH9uWAzjCSiV8IylS1qTcAgV+iuhCoBPH7DHrgqKwJ/G4kBj+DXvhqCIFkWjIJueoIEYg3IKkVBFm1GprAlyipVPpMGiipCg2zPMJsOX6+LAwIJEN5NWzToISXL11U/gpw0qQLFeR5eSDuEwBfflBCCLQNBEy7f/rnUQpl6uen41/smvvBY4fsV+8gO/eY8MuR3fM6KbsaTCis++Yz6Lxg9Sennv70olKYc3nrj8eHHxKtFqVRG3zHtg0A29QoyHZmBgx8uQBWkFmQW3dNa8ZIau53rKqE6FsJQYGBDDLcD8mMApLkRiZpU6hrZjA09zELxhy5B0Mh8nMu71i72WX7ylArdVi0PHX0O82cO/54xF8xvPTTf5/upaKNrUaqRoTI07BNluuwi0sd3jA+hv8t4L4DkCVXJ4tOkw0A07euIjpACDQvAvmnQcHl5u0CSUcIaBMBdtcl+45uG++hB0qiXkJ2Tncbu/nwnoVBRsorIRTv6C5uYNJ72aqZXvhMIj/p+I9bL2bjP+U0HQyADqdJE78ifEqeKD/mtlhTWFLFE02GkNiWJsSgPbTOY/uNd9cUWyDZdHQf6d7AxEs1smVTcQO+sLowXz0G2BYvi5JjMh0476s5nng0F2Hh482fzfv08NMMGYGrQFVVpaziRnuhWPaavbi/FRUIK95cv5qolgygESGNqtqGKrQSwwZcY2S3BJiNBOnbQPYhUGeXZQUAkiZfE9vQlUVD0TQCrM74XqGmQzUtF8lDCLQoAkxTG2s2pEuieTeGsaUlu5FVoVLaSljQ4RmK9cgvvp5wafbhFD73/cHvt4/r/UM/KpUK17DJ+E2H7oWGXQjiDLwI2ebLVLyV3m6M4QCMQ5qvQ92XnPkuJ2WstTuNZNgxeP3Eih/PpSZWA2Mn548/7DK5mylLYyZ0Wu8Rvb7qyJ8aFnPxXtzV10UFQmBs5zBhXLcxThQSwDhp6XfTkX+LqvcLxWrQ2h/W5H2+4XRilbDw1V/fTb50tMfgXqFdvRytTVg0QXleevzr8PtX771MxqfpyUDVfcNorh/N/vjow21PKqRnV1RQVSNCVOivlVdtJQRdjLKeM3D/Dbh8D7L/Bpm7AIyMLvXl3sovBlJfFxEg0YHFBJyaG3XTRfWQTgiBpiDASzz9xeS5O5+XALqtg3lhRmb43vmTKeT/tox3a2DilN0P5OeSJnRI0V0++vrz4zeWX8wVVr7c893esd0W0xmQoMtYSEQ1AkGqeiTK1gKVNh0B7vuIg4+c1vZhM6isruOGnRjFreCRDQyoVBIJGrVvvxX07GwhscpK7Q6FZZU8jMbyDgnyDgn8nC/gCACdTsGDrUPreUXuiaOvw5F7izrosnw/3v2HtdfmTTtuxJYI+fmx947AjyxJZCPPMb38lVpiItGcGTj9iwmXp/4dXV1L0XGPKBWTRoSo2Gerrd6qCLoYZQoL2C3CP9WpMKxqA+TJMF5Tg0KFBQ3rw2CtDQsVyhCdlFJGI0JgyFEVh4OrQtAkJq3cTVgzz0Ai4QuwoVAlRiM1oameJlJCoGrwG17F6Us8di4xwcW4QhVhaTjTAjWRxlY0RhjcE64EZQXjr39whQMrENRsr0HUAeUQAq0dgVp2XgRXhX607fC2ri/+N/l/x2PDfp8/hUQ+uvVD2XsYSY8aw2p/rmvPMPxmrV526sHaeyXCogc7txz9YBodhTqqBacZ/mP8ai7A6BjG5VdJXwtCdxwOX4ABKsC4XIGsb+GqS39cBeWhC/raO7AoFDrDiA6X9HOz4xOOHn123r7vhc4WNKGA02AqRLFYAZ/HEfUq4PFFm1ryrx295wgCRwVa2TIpZCpVX0RDMF5V6vv4o0df/BffoAPCIFBGAQJ6jgO/2tF17P2zhy9cufro5ft8yRuCTNa39Ovcs3/PfiMGD+xuZ0CUQzcw0CODCjKTyZTLC00Hf/LdmuxvNt+MLxayOgR2dJKuqREhRL3ac04a3taEhZ6jDG3NPwC9m/x4ww0smi7EMEgDQgw8migkp7B69T9FxeX36rAaEGTx9dQOdVllDygGTdSkpqPexM2nlO2eWC80l5hXK9ctXq1mOtaIygYGfgSdaCjODAEPlJGNACfh1Iop83Y9L4IRFaf8duT3uXBVaPDuw3zepM/PJDzfNXcKmXx08xgXJV6EZbgjsLotXD3/9Iut4ZX8rPO/H+zSS7/BW7ZsrVCpGghUvF+2NM3dnFaeW5yh6PsVSzh5acwTI1NQlSyvHr/k0t9XLh1nBXe07mDOIHMqU2IzH6aLYnBG3ZwQaWTMK38vvYC0MbF5bxYtS3E1BoXZJVmi9wdBXtqe7Wl7qPq+fjY+1gZMsqCipDQqMitSs6HW1UCybTQx6tB7+nr44RWnJiQk5RSWcvhkuoER29bDw9XaQI5TMMVm6k/3+n1eSjaxtlZgWjfttmz7rQUVJZUY3YilLy1LI0Jax0WA8Uu6pxNUpaiwcIfQUH6mNRN0+aNCZ8QIVHEEa/6MLi4nRIa5FZ7nZG0weYA9QqktIGA2AsAPSggBlRDA2fnkebteFAFmx+k7j+yY6Sf+TTbpvGTfYYFg8pfnk+AeRlMppCM/jnZWgqM37Ny03/JV085P3hvDrX795/Z8skLLbsPmqEQlBAQVFTHEsFtymvOzMgqz5JyrL64uf/ki/mV9XnykoK2CU3jbqqKSyAaxuAC/KvJ1YqR0LyivMQRoJo5ewY7Kr+qgG9vaGyvTO4NpLNcBTiNClFGihevA/U8Yds2tAzJrNDfCLSYfOoZuOhyblC1j14IDl1MevS1oMc1QxwgBhEALIsBJOFnDzg07zd5zbFctOxerxO726Z//fj/CkSosfPLrnKnfXEghvOArrTfFdtQXX37oAG1AwqK01ALkVaw0cqgiQgAhgBCACCCC3mZvA8jCn0QWyhvej0di4zPK5Z1F5QgBhEDbREDEzufitnPjoPl/HNv+sbeUKyoctmno//78d+Nwe6qw4PEvsz5edTFVJkfn8kWsmy+U5c4MxdDcp678bKCFgh8ZuC9Y5l7Cp+Bi24QdjQohgBBACKiIgILvThUloeq6hMCNsNxjdzIUaFTNFa49EF1U1mR/fQV9oFMIAYSATiEgSDu/cjJk5yWA3XXx/mO/TvKUE1GRYtHriwP/rBtiCzn6w62zp/9wr6GHAic3H7eL8wsLikQ+yjJGyvCfs3pxiKHcnxm4Gxrc/EvyAwPpooQQQAggBBACyILeJu+ByKTSbcfjGx1aXjF33YFoLh85hzYKFaqAEGgTCFAsfUK6eRibhXx64OjW8Q33ipEcJMWq78pDf60aYK3nEDJqkB9b8hyMxFQUeWbf8Wcwdrqw4Mbfu++kylmcaNhj0ep5HWF0CJQQAggBhECbQQDO/nEyCR+4ebymE1okqmlEW1oeDNvy7aH3PBjWSokUnVr+y7F4dYK6KCEcVdEGAlVJoOQBoSMYGpLpQyhBGYRADQIM9wlbjrvMonYKclBi6SfFeuCaf870yerQL8iUAGHxyU/8px5I54pe7vkZl1YN9L+64eq1Vd1lGOQtBi3/Zsr5aQcaNxkQukAZhABCACGgswgU3QDvRhG0c/oWOK8jlDQ5gwh6kyHUJQF42JYD0mFbFCuIgrooxkfXz5Y+AjEzCEq6bkEEnQAIyhAQYLh0DiIUKMxQbLr3s2lQw2T8vrTx+xoUyy6gOHy07V7wygqMZmwrg8DLboRKEQIIAYRAO0cAEfS2cwPUhG3JkhG2RfEg4XJSR0v9Hh3NFFdDZxECCAGEgDoIGNm6aT5GsDqKoDYIAYQAQqC1IIBcA1vLlWpcT8VhWxS3R0FdFOODziIEEAIIAYQAQgAhgBDQGgKIoGsN6ubtqNGwLYq7R0FdFOODziIEEAIIAYQAQgAhgBDQGgKIoGsN6mbsKCpZqbAtijVAQV0U44POIgQQAggBhABCACGAENAOAoigawfnZuwlt4iz7qCyYVsU6yEO6qK4DjqLEEAIIAQQAggBhABCACHQrAigRaLNCm+zC4dhW1b/GVVcLnOjP3V6R0Fd1EENtUEIIARaFwIUY6DfgaAyVSrUO+EkyiAEEAIIAS0jgAi6lgHXcHc5RZyxvWwVCC2t4O2/lCJV4bOP3KVKJLMkEoC7F9GpaHZFEhV0jBBACLQhBCzGAvhBCSGAEEAI6CoCiKDr6pVRTi9nawP4UVC3IUEP8TUd1s1KQRN0CiGAEEAIIAQQAggBhABCoAURQFbSFgQfdY0QQAggBBACCAGEAEIAIYAQkEYAWdClEUF5hABCACGAEEAItG0E2IGBq4baGILq11ce7n7N1dpgW6pfrQ2wVXRUEfHv7mPPiklmwRNXjPVnak3nlupXawPUbEeIoGsWTyQNIYAQQAggBBACOo4AycbHtW+gBRUIjJLC/3jNFWhJ35bqV0vDayXdCIoizh/+50oFYBX5zP3An0nRkt4t1a+WhqfxbhBB1zikSCBCACGAEEAI6DYCVYmg9DFBRcOuwIAY14VwWiczLOf16/sOs6FJ+qoKhUIeh1tcVJIYl3btWuTFZO1Zx3USo7arVPmj3Qs+ORCez8dqx0giUWj6TBNLGycv3y4DB48Z081Re9bxWiXQf40hgAi6xqBEghACCAGEAEKgdSBQch/EzCKo6r6j1RF0irmlt40eXfpnnEKn05iGTDtHmx49vYacuPXN+dwywlBRpi0gICiMiniZXFIhNZay0qLcrKR34XdPHz10cPK6XV+M9tSXqoKyrQQB6Se7laiN1EQIIAQQAgiBVo4AzRT0qiaOQdIWTDyDcg0RINUUCUuyLt/LKhJZUsk0momFmb+3lT2LQmYY95zY/6ucM6ufcRq2RiWtGwEMiE3nNI9xC6f3YOM3AybkVRSlv3t24/LL1HJ+3rPD3yxl255e0oXVukfaXrVHBL29Xnk0boSAWgjweILcwnIOj4/VzauqJUfLjcoqpAlKek4JBUgXalkrNbqjUsiGTIapsaLgqmqIbbEmZEaLdd2GOsaqCq4df/5AwpmFYuWydkX/UY40Ms2435AOjs/eprah8aKhSCJAYfv1mzLPl15fJlj08I/PZ+64m8MvfXH86NVJXcab159ER60GAUTQW82lQooiBFoKAQzD3sVlX7r/Hv6NSc7n8bW1okxzA6brG1PpBFL7+c+vMAFfcz1oVZKFKdPXzaprR4eRfb2NmHpa7Rt11hoQEOQk/Xo+pecidzMySd/RurP+29Sq1qA30lETCFAse05fMOny499iuPyCVy/fV43vidxcNAFsvQzDbsDvcn0WHhl4ELKayCCCrgkUkQyEQEshYDERmI0kdE7W5DcxpOY3n8YfPPMiKiFX3Au04DrYsBlwp1m45WwrS8T3CrZpK1MfTmBjmECIFZdW5hVW3C1MvPsicfvhRyP7eM+f0M3SFM1it7rr2bwKF0UXZAohQQckfYax6nE6mFbW/QKt3S31WTTArazKTMt5GJaVLOWRJD0CqqO3Y28vtpUhFauszEjLuv8yP0v5t2CWSQ9fUzaJk/Q+M7K4Vc3QSePQ8nmmt7cbHcRwgSC/sJT4zaeMcpzcqFfhEcmZ+eVcQGeZ2bj4dwr2s2zEFFCdH/PiVWRibnEVmWVu7RIQEODOpinTm6hOeVp0dHKJkGXn5e+gxv2qdD+aqUi3AGbDNCNKvhRE0OVjg84gBHQfATINkE2aSc3CksqNe2/ffhYP5ZuzmYN6eAd42UN2TqOq/mvfTCq2V7GQo8en5t17Hvf8TcrJ62+vPYr9em6/4b08Sa3vram9XsLmHzdFjyJmR1g1t0wVisZ0dl86JWi4H9uIKvkSji0vLw67/3L7f/FRMmg6yS2k8/LxviH2evWNMOyz4rz7l59uPpdZ834vf9R0F99fVoT2MKeQMEHC5fOT/8qRcNiR3wydkYOAoIrDFb3jUExNWKp8YXNSbx/dve3w2fsp5UIJ2WSmY8+Rsz5f8HF/exk0XZD99OC+HTtOP0ysqGtEprI7DJ2weOW8Mf7GEoJkHvJSzm5avORIRImQbNhr7e09c7yUJ/YyBbaNQkTQ28Z1RKNACGgYgdjkvAXrTxeVVhmx9GZ9GBIS4EKhoAV8GgZZbXEmRgad/Zzgp6C44siFF/fD4lf9djXsXdqaTwaSyZKkSu0etNIQE4LK94SeKEyg50QoQRk1ESA5BVk74MwMq07LfqH0agvLzt22LezkYyi6jTCMV82pEJANDGh0MonKYncf1t/T2fibn14+ITjMUAJGDvpxspM1TbRQERNyOXxAo9EpJAbbctCUwWzB6QUXFZlxKdbu3y0PEbFzYVFM+NZTiJ2redVrmwnyw55F4hedyg4M9pZwT6+tIPt/SfjuNcvXXU+qwmk2mW5oaWemxyvKyizhCCtS7x/77mXY25+2/TjDizBNy0m6sHLFyj/flIgaUfWNzYxBWX5JJb/o/cU//veugHJ94ygbBe8IgpzbOz5fLmLn+q4f/LBiImLnNVcHEXTZtykqRQi0ZwQgO5//7anisurOfo4LJ/eGHL09o6HLYzczYS6d1rd7gMuuw/fO3IoUCrF1iwa1Go7OLwZhvgR4TfqDTrcIJSijFgJmvgGrRtgakADGL717NSalzq6pUBrFxnvdfBE7xwSF8e//OhFx+nUpDNFIN7McNTx4zmBHWwaZ7R30zYy86XtSi2pF6ft2WTURZ+eYkJP4JHzP6egbaVygb9izp8+k4T4htnRbR2M9UCodD7C2OTBx+Op/vQfZUGF7yM5X//zycXndOXSgDgLl0f9t23E6hw/IrOAJk4daKGDHEuIF2Rd//XLt9aRqaMb2GL586cJpffxtIBXnFcU8Pbtr52//vCqoSDi7+jtXrz8+7VYXX50bfWDTOpydk+mOPeatWfLxqEB7JqjKjnp05uT+nSeeZCfEp/OBfIJe8uLvrxfvf1YgJEN2/tO2TTO9kLNe7UVBBL0WCfQfIYAQECEAjbLQdg7Zea/O7oun9qaQkeFc1++MLh2d1i0Zvn7n5XN3oszYzGVTe+i6xkg/jSJAYlqOm91roNhtm0I1Njfz9zQzpQEhp+TxydubnippP6cPHh/U3RjazrHS2Jcrvg9/WevKwi3IPfXP1Td5Q/bMdDYjU+xCAyZeTNuTLu6P+eFoLzcGbCTMefrg0x3x6eKXgaqyhzeePXwQ/9HHQZ4JhbWSGgxbz2rR8v7jnOlkTFiMs/OwR4idNwBJcYEg78X53T/fF8+cCaqL0l8/un4rrhhQLbpNWrtzfjcjxc1rz1aE/7P5VFy1EFAdR/24fct0t1qzDI3t2WvWNncbyrzF+2O5xa/+2Xt9fOexdmLWn3/v7z0P84SAzPSbu/PnFf3MxMX61j4DF67tOaT3gX1xPs5yiWb1+9PrPvnldjqfrOeCs/NZ3oid114P+F8ubhJ10CFCACGgqwgIKgCX6N5JMwNUJb+RZQwKLkOEfufQswVyPsTOZQCkq0Uu9uZrFg9f/et5uKK3bxdX/w42uqop0kvzCJANLfv2t5SWiwmK0nMTigXK/swbuQwPYFFwo3vh1aOv69h5rVgs7mbY5X4OH7vA8OqWPUON9h0vwT3bLVz7ezHgSzzGyT57PKGGnde2AdUFx/ffqMtJH5BNpi4dOMtbnwKExbHhq7cgdi6NkDJ5XtLlg1uIEUVgM7Kha3CohylNubkTAMoeXr3wBtJzMqv31KWT69h5rQIUmwFLJvc5+d2NYn7ezbsPsj+YJGLoBXdv3UiGy4DJ5sOnzuxdw85r2wA9176LNvWty0odCNJubvpk45lYDtBzGfXTth9aFTsvvA6ipxAG5PgVcFhBKGlyBtnGmgwhEoAQaEEE8s+A566ET9a+pqhz/VHsnecJxob6Cyf3QrbzpiCp/bZuDuaThneG8elXb7/WGkNhah+xNtMjxucUFpTnij+FFcWVfAG0bpMoZm4eMxaN/uczHz8lvJCZPraeTNwMK8hMuxIri9fxC29FFuGknERxcrUW2zoNfaxd6bAVxk/PuJEttqkrhytJb/iCwUs6G0JDP87ON4c9LFWuIapFRIDMcvDw6+Qj/vj4uNiZ4S9MwrLYq9vWzRgyb+OFVCXW23Kinr7MxAPuMDoP6eMqa4kmzTG0Z1d82wJh2dt3b8WTMlWRLyOK4K1CZnbuE2KpnCeNWHms9MWORWv/flkuZuebZvsYEkel4zmMC/gFhI+gUuMqK/tqrfGOkUCEAEJA1xCA5vMDZ8KgVrPHhRii6Nq6dnmU0GdkP79H4QlJ6QUwAuOgEA8lWqAqbQEBYX7cui8eSmxURDJ3dR4/PGBiqCWbSrPvFrqhuGTGgQzoTa4gmdsbi3ejLMsuiJcdG1GYlF5agZkbk0j6JoY2ZFAiJFlYsQxFhr7inKJcWaxeTo8k8y69v7Iz1Sdh3LTIdYidy4FJmWK6z+yfj34hsVGRoCz56a2Tv+/dfzGhIids37JvLex3LQgkLOxsILc0JSGVB0vpNu6eNrL4OQA0KxdXSypI4fOLsjLgi5oBRVCakZqNs3+qnYurKqER+emXv1z55F4+n2zcZ9WWVsfOG6DXTAXIgt5MwCKxCIHWh0BETFZMch6MqN2tk3Pr0x5pDACc9BjVryNE4ujl1wiPdowAlp+YtGfnhRXnc8pxUzrVuVencQ1cYIj4kC0N6aIonVhleZVsfg4Av5RTJbaS0+lGOH0gmTHFbA6rqqyW14rYUU2OWy3ejphEtbTt7YE2lJUJknqFFEPnHmO++HPHmtG20AYrzH/615/38hSL4hUXFwnw9yuKiYmJPEs4xYgtZuHCygpROEVhaVmp6KWMYmRoJK+VrI5J+iwjOh4WTFgRdfdpPJo6kQUSnJiQXYxKEQIIgfaHwMV70XDQg3v66JxzS3VeyttHD29euHrx7I2bt8LeJRYpmrTlccrLK6o4jYZ+5pXn5xWW42Yj2UlTcmRLb6ZSGNEFRt0Jj8rIykM/e82EcWsRyw879+apaMcfsoFVF/9G3FwkwqiK1xvKGmbd/mRCoZiOw1bi2qSa/7JaySjDSt8+2fG0jIcBMsN09JxeE6zkdyqjOSpqFAE99w/njvDALzo/6+6zCLlBdMSChMrMfmDCGh8mKlXsfQFbiUvg7GujCklUoJj1XrV6TjCLDPh5d35f89O93Ea/rSVat5tDRNDbzaVGA0UINIbAu7hsWCXA276xilo7X5J4d//W5aOGd/cZMnzo7FlTli2ctnjWmCnDAnt37Txt0df7L4bnSfHryke7J/oE+doEetn3HrnwvzdySSr3zS+zu7n1CPSY8ssTGUEuNCVHa1DVdgS3kerYwRbm3sXn1Jah/+0Vgaq8pHwR8yJRTUwZCm2cWGGlmHKTmIb68pxfqcZ6MHQj9DgXVlSJtgjFiqv4ImpGMmDpyWslG32s+uz+B+fSeEJo4TdzW/yJfyfV2suWikrrEdD3dHEVTU3wC/LzFe9VRTZkQbYME6+wqFAeWRYUF4qWIJDpbDPRFqFkFtNAdFMJSktEK4br+27siGQcunTzot7QZUZY8XbP9z+cSJb6Jm9MQHs4jwh6e7jKaIwIgcYR4HD5cSn5dBrF3qq5tiZtXAmJGlXJV3YtGDxhxv/2nrobXwCjC0gmIacg5tmFXT8vHvLRjPW30+p/UAT5URER2fA3Hwir8yKObP5ub4ScpTtYZWkpRwiE3NKy+s3v6vrQlJw6gdo8cHO0gN1FIYKuTdB1sy8yjSFmvRjGrebXPycytMVycsorcK5NYlmbdpDNlSl+zsZigp6bWVCMC8Gy8iurRQzdyIptpyqhKE/bujf8LfTCIZFMfIJXT7NvdMtJGYqjInkICKq5HNG1IdP09PUUvp5RTOwczPGLzs+Jj82UzZU5KTHR+fhLHMPd3UMUB53CtrY1EbXKSEqQy+vlqccKnv7thmFOkKJzk8+t+f5QuJyvannt2365qs9T20cEjRAh0D4RyIYmFiFmZ2WiCzuGFofv/mr69B2Xo8pg2C+6le/QBf/74cDeo9eOnb999L+T2zf/sGDiYC8zOllYnfFg95EbSfU/KFjNlKvoIgrLwvbuOx1ff1b5S6spOcr3qLmaDtZsKCwlS8SgNCcWSWp1CFAcnIPgWk6YhGXJyYrcwmCV8qjcZNHu8BQbx6Gesugc03aYvzEuTlgZGZEt3ku0PDovFbehk6j2DsOcZDIKkoTzDK6LZKqKe73hv6Q8GHSGRHcf1HtNH6asjiVboGNlERBk3nv2RkR6Gb7uborXiAKGT6D42nJeXr0bL2NOEVS+uXXzJX4PMTy7dPMR+0sxvDv5MuFFF1Y+v3k/XeYXrUAg/72Q7jZpxbq53gbQ0yX7wS8rfr+fJ7+usqNuS/VkPk5taYBoLAgBhIBSCFRzRbYRumzTmVIiNFSJl3j0h89W4xvaATK70/Q1R+4f27dl4bQJ/XqGBgZ2Ce4xZOikpZ9vOXXq1p1fv5rU0ZREkrGVEpnpE9gBBhvj59w50JSvfU3J0RA0yolhiC4ilyf2WFCuTXurZTUd9OIQPraLmoSByFLZJAmabkyxdFqxwN9HD7qkYNyMlCtRjZAfQW7C3VgunHwiUdlDJwd2lWZ0BkM/7j7AEt/GiJsefya85u4SZCQ9ThYxdLrlB1N9/YjfH3Q7t1Ubp56eZy8trH6wWML1B1vvFUNTL4lq2G9a35nOiJbUo6P2kSDv6T8bt9zEA+uQjbuN7OfZyDJcinn/AQPt4dUTlj88vP1IrPj1q777grA/Nx55XQW/k41DJo0IrNnEiGLTr28vc5yhF137e+c5URyY+ja8zHt/Luo9a5eI1tcXSx5RrAetWrOoB5sM+w37a926q1IiJOs287HuPcFoo6JmvuRIPEKgtSAgXuVTtwasxdTmxZ/ZvP5iAiQKZOMuy7fsWttLzi7RNDP/oUv29RodnctyahgWjOw5cZJL5sZLObyEo/uPTA75tIuBWkPSlBy1OlezERmSKPiTWbugS00pbbsZCa5tbGTRpJIA0KgtTyhJ+mZDPuratZZikKg0tqVZJx9rOyZ+Kwg5hZeOvX7e6PuasOz4mejhHTp5MEiGHkFbvmOfvfb+1rv8LB7Dyd1+yCD/EX6G+pCe84qvnnj9tM4cLyz871LC8CWetlQSu2P37RvMz91NeplWJWAadwp0Gxbq4MgkFRUqdk+vunrono/jsI/dGRQj+zkLu8ZsePqwkTWNSl4cdarRaCoY8eGSD9gHX7H3kDpaqNBGUPTuzpF9r/GHHk8Yv7ww7e3T65fD03DnPapF37nLP+7Q8CtSXLvuL8VqwOwlPW9/czcPj4G4qDx29oxxoX5ubHpFbtzzeyd2HTgVBv1byCY9Zi372LPu0aE4DZkx8/idLa8ruAnHly8siZw+YVBHR1Nyedr7pxdP/Xv0RbrA1bZU4auhSecFmz+NnLDxShon/uiP33Z02bnQR70v67qxqHUgvoh00QVVS4DmGxHfdjUvH0lECCAEEAIqIFDycN+h6xmQS5BNByza8JU8dl4nkeng7VKXqT8QYpjpwJnTz97e+qaqPOKf7Rc+ODDRpdHfqPr2tUeaklMrD/1vcwiwjcXW4Vp2rM0B1vZJNrYZ+YGNrJ4xblHW2b/v/PSiWtZZ6bKKd8+/PWL481RXOzrZyNFt+jy36cQqQk7x/aM3Nz0jSMt//ORnd/Z3wy0NyRRTd89Z8CPRCuOVvXmT04h7cXX2b3tfeK4O7WpMNnDuuHJ23vwdCRkSQrR1iAPKNpJv7m+gh7hyXlF5gzPNX1DLyHlxp7avOSWrP7KR94eL12+aHqyUbz/DZ+6a71NLv/49vLA69e7Ob+/ulJJJtQiZtnHn3C4EaYbdP13z5fvlP1xM45TEXdmy5soWyVZko6Be3Wv8YSTLCcd6vhPXbIxKWHAytjrn1g8bdvn8vqKPKaGGNjLii2iiytVvbrVa/tW/uUeI5CMEEAKtBgFB9r2zp0W+snodPlo2wa8JhhSBkB48Z9YoR2iE4Odc/uvgzQL1UNCUHPV6R610HgEnG7YevhITrlqo5cva0lmQnx+Xz5OeKcEwAZ9fUVqWFJt04eSt+SvO//BIRgQPDke02yhcPMqVdBIWRl65MeenxxejisvE0VlqxoIJeVVJb95t/eHM8ssF0u4PgHP370vLDkS+zOZINsL41elR73dvOfv5zXoF5PQLBCmRG/6OTcM9XSi23TqOta+ln9oCU3T5MGOWnq2FkfJ9dnAyp5BJcGswgVJxCpUX3HhNiqmnn68VTYrEkakMppmNe3CPUfM/3Xz2xKmDs0KsG84IUPUM6LAhWY+hJzlfQHMYtmnPkQPLxoU6iGO61GhBphp7hE5ev/3oyZXDXeus57UqGnWc/ce+3Ws/7OqoL6EMmeXc+cOvfz5y8suBVnUKyOkXUBxGf7Z+eWczuGC0+PU/+29nKLS513aswf+FJRXFpVU2FoYqvZ5pUAGZopAFXSYsqBAhgBBoCQRKHj1+lItPxet3GjIiRLyXuJp6YEBIsxs0Z37366sfFnMTT/x2fGyfhYGqM35NyVFzGKiZriMAF1V7u1q+is7EObpqscCbPLTyxFXLElepIwZLOHlpzBMjU1CVnCHNt7Pfvl399i3dxLSbj7mjCZ0GBOWFJW+jsmJKFbyBcF9dfzjn+lP7DradnQ1NqIKSwtLY99mRxdDJQjIp6BfLeHB37KsX7uYMrKw0tkBBX5ICNXiMq+rjbkUSbdekpFy43sPdyTwmKS81s9DF3lzJVpqpxuq99FT8UnVkUaw/2nO157flwNjSFl9QLplMfMct+XXcgpLk2OjYrAK4TQSdae7o7uNra1hHsyWri4+ZroM+/3HQ4hXxb94nZZXxaCwzOycvHwdjqUlLBf1STHuu+uvh/JzCCmBobctW0FfD3jVQEpOUC6X4ullpQJbmRCCCrjkskSSEAELg/+ydBXwURxfAJ3dxdycJESSGB3eKF1rcirVoC7QUKrSlxUop/aAFintxKO5Q3IMmEJKQBOJC3HOWbzZ6u3u53F1Odu/edn9lZ3bmzZv/bO7ezb550zACJVFhETnE16SBR8fW9a1qqq8pYj7T0P+Tz8YcDt36oqzw4YGtxwaumyjBXb0eQcqSU08zcFutBPg5qCyR1KKRGzKwI+XInOjaujFhoJcLlOXXLnPLDSkoSE3OTq1bAC83+/a97LrvS7wjSIpOSIqWeKsmU1q7wsKiqEINuZ+LiFnbrq29ahSV8QKPPjbQ/7sf9dlI9RroMuonuZixjasX1TYXK2lg5RXQwStALEeGS2M735DOvtILSmuXa+7gak6EiFX/cfVeJG60SxtJ/pLq16a6RbEXEtVZ8C8QAAJAQCMEipMTCPdzbFg39vGivUktK8zJzcnKIZ05BcUSY3thGZUzcNbtJ80ZQGx4LUi/vOGf25ny90tZcuRvGWqojkDWKfSkBenMOKhwax/3CSSWipbjbRXVP++rsNZQUYwAMXAi7Kr0YQ9/sVyZLkf2C8LLsm88elNUUrNyVqaKUIghBJLTc8OikrF3U//OTRmiUqUaYKAzajhAGSCgywT4+fn5AmICnWNsZW1JfsnJj9n0eXuvkGCv9qTTo12bXn/cypNCjev+0ZQp3Yjozbyo45v3hFPf50upSrqlLDkkoTqe0LdEwVdIp/dqNiLBfqsDuzYjNC+v6+ciG7ulMzpj61xEDNzQnv4WZvWEI6RDcbKz6N3eF2/0tv/0I/pdyGE4ARy+bMexe1jJYR8EViwmYZC+YKAzaDBAFSCg4wREtcvVqDOR5cWFRcQGodRDVPgmKjZTqllk1Hz0vBHNjYlIu6Hbdp55p+j6I2XJoXZBd9N6+simD+m0aM1SGnPGd7bEth0xia7o88XSnmuB2njUkMjOynTWmI6K9eariV1NjQ2u3It8EZmkmASopSkCl+++Do9OcbG3+Gx4iKZ0qKtdMNDrIgP5QAAIqJkAx8QU7ymHD1FpXl5t3IcKLQybj16wdvsff21bXXVu+XqoH2UJUp3qWnWfMP0jF8LPJfnyti33cuosWM8NZcmppxm4zT4C9jZmP0zvReiN52IJgw8OlhDAP6gq3nssntXH2kKOAIvi3XN1tFwwpTvOWbPrv9iE9+K34JrJBB6/jN/1732s4ZIv+pqZ0Lwqpahu2hw1XkU6bT6QUlyxW/grCw4gAARYS8C6Jwo4TdLeTM6FPaTKmk1wrR2drPVRkQDx4uPiechZ/OvSwKPNII82tQqWPn27VeYJBq7b4C/GH734x51cfvS+nYfHtp8ZjANuyB/ITVlyarsBV1pDoF+Xpq9i0/eefopEPMQxwOECtaZrWtsRbJ1XOLdMGxHSvZ13Q7r5ce+AiNj0Y5fDl/59/rvp/Zr7ODdEGtRVA4H7z9/+teeaUFT+5SddQoIaydeiiQ/y+Ea+KvKXlvkLTn7RUAMIAAGVE8ChJ+w/JJ0mDfqaUbnCUhsw8GvexIj4UOK/e/gspkxqWTlvGrYYMesTQrgo9+E/m66kChUMiKcsOXKqD8WVTYD+3Uf1qlKgRezqMHFIhZcONvuIqXQlyFRADahSP4FKv/Nq63y2os4tNQ3h4IyLpvUa0TeouJT/8/qz+04/4vHr3bu1pjZcqJVAUXHZhv038esObJ3Pm9Bl8kdt1dq8zI3RP6RkrgoFgQAQAAJKJWDg2rFti4rNLkqeXjr3SLnh1qw7z5wy0I3wc0k6sfdgaIke3u1dkUNZchRpG+ooiwDHmCpJRNodk3pXtjS20rCN/v20njg8NuGMLipDIgGY6bLBU1epKtO8DA8QdhzHni3YOpcr9nldiuJYLthGnz+xqz6Xe+q/sLnLjx6/8jyvUNFl6XU1A/kNIPA+uwD/dvpi2ZGbj96YmxqumNd/yscMtc5xL8HFpQFDDVWBABBQLgHDZr0Hdtv64EKeqPT1ob+ODWk3yZ9mSCncItdj4LTpJ6/9fD+vKPzgpkv+vooZ6EhZchTuiNZUFOSihz6k3lh3RwHHSTkqSnBpW1aVKWdreWzqje7fomMLz+Vb/nsUnkgER8cnfl9D/B6U36lKRd3XUbGVcTCrXmt0buWFlw1g93ElwsA2+sShbbq08Vq66b/nkSkHzz4+fO5JIxcbHw97FwcrQwOuUn4JKFFhXRCF47TgGDuJabl4eUBKRlXIrx7tvL+f1svJrkG74amanhYZ6MJixEuVe3WOiS/JExVPeJQmyA0dOxWIuxvit2al7+QWYuxFuC3WHHj2pSSuJiXrhbEH4ohFiSov55S+cTMj7cdha5CPiqWOu5E74oo7/yJUEiP3JJCRK+KakdTG3cGdkuswdEb6FqQaGGzFS0lSpvSEoSPStyIVwUOMB5p+YJ9kHFaCY4L0bRBHnvUidFGQoyABA++hM0YcvL7rVako68qGH1d4/f1Ldxel+fIaBU36bOThx9tf8tPO/3O4p4IGOkLKkqMgJK2phhdTCshb4QikRcxUZr9NmlClFTym5jQg7eFivfWX4ZFvMw5feHH5XkWEbHk//RrQOlSVQgDPm/bv0nTMgBa+HqraV8jb3W73ilEvY9Lw6F99EBOfko1PKSrBLbURsDQ3whFR8eh7udk2qNH8R8jQCRl7NkhIfZWlGmr1VWbW/exzKGKU3Cp1KSYZo0Xh6Gk7uYV0TCOGquYofYtC5Q93H/IG4V8LNQf/PQqlfYXU3K3rovUTJB6nTFRs/jJgd29a6VBajnhGi+vIuod4BnqEuyNnXAK8chH7RosfT9ogYa54Rv3XzfYhp/GkYs+7Uff/I92WlPDbiFxnkW6ED0TFr0g5lISeATINQBbtkEVbZNkBmQdT7kNShQSse3z67fRHszeEF4ryQtd9/WnGnEWLRnXxJP9kxO2XFBeVyflQ4lo2nabO6X/+8zMppdFXLzSgF8qS0wAVoGpDCJj4Ia4VEor9Hih8RswgiE+1NER+Rd1mjR1/nv3BTzP74Nm7VzHpKe/z8Uxeg6WCAEUIGBvquzlZ+fs4uTtZ4XluRUTIWSfQ1zlwjvMvsz+IT83Bo5+eVQijLydCpRXHo+/ubB3g4+TmZKmclxivx6PSGGTgQBgJ5thOCEF2g5WmbrUgFhroRREo5W/UaCHCU87iB574hAMIKIUAjrpV9Jw407YR8sxaIrfPkdMEvH+OUsQrU8j7EyhmDkmg52LkOp2Uw7IE177nohW/vF+w+HB0sSg//MCK8ecPduzbtWNIM09nG3NOSXZ6RkpM+N0LNx7FVYQ/1+NwuLLPhXMbDZsy+cBzybX2AABAAElEQVSN324WyG/di4NUlhxxmXCtPgL4dZlFG5R7rbZFUTEqDEMWrWpzlHSFzUFPVxt8KkkeiGETAS6XgyfU8ckmpUFX6QT4mag0liiCJ1KzLxCnsa/OG+g511HC8qqPVK458l5FYggGOgkHJJRHAFvqbz5Hdh8iQ+YZ6KIixCP7zgoLlNdzTUkyazZ6/Rbn5v/7de35iByRKDfu7hF8StKGY+7Xv0c7uZxgjAPHLRh79tH2sJJqE12x6TRlyZHULchTAwE89SVuoOMW03Ygiw1qaBmaAAJAgMUEUnfiTYNJ+uMPExUcsk88qaBx2UUKC1H0LBTWq/bzNHU7EpIXRzNwdlP2DkJJhhNwGEnyYmK4ttqgnpFb96/W/Htj5+/fDu8R5Fi5f1FtvzjGjgGdh835Zt35U6d3jfUXW3dhaGqK9wxFHFNTszrfD1r1mLZ0ycDmNvocxDHzbtfSV8KCA2XJqdUZrhhGwLoXVaH0vUigBb9vqd2CNBAAAkojgFfOpGyiSsMbkqjgqPMrTAVtKSoy9waKmoqwY7f4gZcWZRxELlNr82AGvZYFXCmbgNsXypYI8mQgYO7daeyP+OTnJ72NiU3Nyi8T6BmaWlq7+Pr5uJpJWjvKdRm/6mavr/P1rJ2dpazPt2oza83lqcvyikWGlhYmEgQpS44MnYQiGiKAd/4z9ql6VV2pAn77lL4buZF9xjSkHTQLBIAAEwlknUFl70iK4dUslMVypNuKJxhvoKdsQW9mUd8mVPY3ZQPJQMfLNJ0m4Zkz+WDgqB3ih4E9cpoiniHTNeW3AY4ZooAQLjnYE8dUESFYf/EDL3ZUQBNDF3EZxLXzFLnD4+B4MpQD+3AL5QxsjTfrohwOoxE/i5JXTxJvyUs57IehshBKXlWynIfwlzR2RRX/CySWgHSglsdvdXDgIBwiBg7VEzCwdG/S2l3GRdOGVi7u5LA9dShoZGYlNvVOK6QsOTTBkMEMAjjuoetsFPc1SZt3PyP8IQN/1yQokAACQKCCALZhYudTWThPpsaso5ZQME02TxUUorJqUqxz3CYOt4dtNYPqtRd4S8VmuxuqirEXaoa9ixp24J8KDReib6kEIThWYMM1wTCabm8YkYrafuuVIMRntRKENF5avxD8aOGwa5nHUfo+RJ8+x9Z52AAkyEI44o14AJ/65UIJIAAEGEMAv4N9txjhhRyVB55q8fyZiMwABxAAAkCATiB2ISqNI2frIdfPyTlKS8k536y0dmUQJMU6tx1MGEbtwmutcxnkQREgIAcB/MPPth9qsgV1TEaOY0kVK63z/Duo+DV60RPx0kl3IQEEgABbCOhbI+dqP0nLjqjNc+Q+j7QzBls6AnoCASCgagJZ51DqZmojOHqEqR81U0lpphromWcke7bo26Hmh1HQGWqgbiXhADFAgEoAf4WLb1pUY51XlsM2evgAufdOorYBaSAABDREoPFyhDctarwKtbyNTGX0otKQqtAsEAACmiKQcxVFjKS6W2Pvc18Vxn1ipIsL9i6InkYFgUcFL7pvfgA8CjT1fEK7BIFXwxGeOxc/8P4m8cuQLG4z4rXgGggAASYQwM6EbV+SdnGu0Qp7UYrv7lyTDxdAAAjoFAFsnb8cgkTkyIGYgO9aZNxIdSQYOYOOY07zaW4DNn1R0DmwzlX3KIBkmQg0+hZR1gTjagkrCYd1OIAAEGAjAYlWeFkqehyMYr6ixvNlYwdBZyAABBQjgHcXjv8VhQ+SYJ3bDiLiZ6jyYJ6B/v4Yen+Y2mVsnQeeYuI+jlRFIa3tBGx6ocCzNBtdgCInIVGZtnce+gcEdIMAts5f9EAlkSj5T/SkFcq7rxvdhl4CASAgRgBb58+7o3c/IBzejXLgrUOVEjyDIpacZJiBXl6O3v5A1hAhQ3fkfwSscyoWSGuKALbRvWnBZIojUPp+TWkE7QIBIKA0AlXWeXSVwJIo9LwTetELvT+B8Bc2HEAACOgIAT0ukrgDEbbOW95Ahs6qxsAwAz3nMiqp/lis6Tr+mYIji8MBBJhDAIdPpm9DiAPzwwEEgACrCfDSKubOaV9DuddRxDD0sDGK+pTYRzA/FFxfWD3OoDwQIBHAL8Dx/iepO1DablK+52Jk1oKUU2md47jeqj8YtkgUbxtk3gYVPqntOI6BhaPdwQEEGEVATw813YVCmyNRca1eeLVo3l1k1bk2B66AABBgFwG8wgTvhkGfJ6rsRVkiSttJnFUHB+HN4PBh3hK1flCdWfFv6k70ZjYpp94E/vrrWkgqlf+QeMMu79H2BTJtWlsJb61yt3q3kNrc+q5wPAaHYaRCj5qh0neknHoTnj8gz59IpfAiexyrTq7DfijyJ3u94s2kElbJJQPhPe/avSJVyTiCIieScmRJdMklvcwvikBPWstSj1Sm1V1k0YaUc8tEQlQMUglaoslW5EzW/0lbVPSSVk5qhttc5PM7qUTkZJRxiJRTbwK/Ug46TyqVuBq9JY876bakBN5OpEM86UbWBfTqY1KOLImOSUh8u8bSBPRIhtBM5QKEql+OmTRDzpNrm8ILVJrtQU/boXI+kYl3LQw8idRinePWGGag2/RGbR6j/AcoeT3CzuiYiMf3taSUccXjC8Ki017FpL+KTc/KKeILRMqQCjLkI2BowHWwNfP3cQrwcQryczYwkLDXunwS1V8ab5XqOA6lkbdwSt4ABrr6hwJaZCsBYmOgxSTljb1JSfUn8Nva4EsI78IRuwCJyOayBGVEqLxi5Ql9/Qn+yq+8JaFWHVmElUA+yqvlk7PrSeFapKNcbk2I6tX2So0o3Ed5e4TD4FAOEU9+ITT3XyxWbk3oC4SEcgvBfcFeuKRDKQOExZaSpMqSoD8tCgxQpdEp3pxSBkiBh19EJ6CUAZL/4cc/zgUFSN+ilop5C+JjKn4p8X+P7xBl+/nacsq/YpiBXtlBvK06Pn3WIBzaxsRXWZ1Oyyw4djn83yvhOfm0WDnKagPkyEPgwu0oXNze2nRE3+DhfYMcbMzkqc2Asm5zqAZ61inCSxU7rsEBBIBAvQS4JshrSb2lNFDAdQbCkQmipqC8mxpoHZoEAkBAYwREqPApsia/ucJ2uf0wZOavZqUYaaBXMsCvPJzGKwWHUCjac/rJxkP3BRXz5f4+zs19nH08HBxtzfX1uXrYXQEONRIoLy8XCIT491Js4vuImLSot+mbjzzYdTJ07vguYwe25HDYMxzmwciyCyksOo6TWvQK4Xw4gAAQYDUBk8bEftU5lxB+LZZ9ASHKtDSr+wbKAwEgUDcBHDSZYqDjWXO1W+dYPwYb6HXTk+tOelbhgtVnw9+kcfT0+nVpPqBbgJuTtVwSoLAqCHi62bVv4YUlJ6Rkn7/56r8HUat33bz2MGb1gkG2VqaqaFElMm36kAx03Ab+21angW4agNwXkrpmEUJKQgIIAAHFCOC5G9v+xFkSh1I2oozDiJekmCSoBQSAAGsIFIQyRFUtN9CxdT5t8bGEtFx3J+svJnTHs+YM4Q5q1BDwcLWdObZrzw5NNuy7+SQiedrP/25bMpw1NrpF25qOVF3gv22XqdRM1aUtWiF8wgEEgIDqCJh4I58/iBPHeMG/wPGJX4Lzs4m9S7AXL/ZLNvWjNm5gi0wDqZnS03TfVq6Z3EJwExxjcjtcRYTgPcwph2kzxDWn5NWTxK/BKQdegCsvFmNPigwivJ3cQjyoQrjW0oXwhaKUrFKRiHA6x291nWyNTQy5SI8c+A6jllcTLI5Lm4EyC6J5t1P1pabxA0Y5TGVYDUmpYuRKyUB4bZW8PaKvGzFwlFuIAW0dM9dSbiG4M5Q/Ij1DmYTglaB4PQxef4IDtuDvdMv2VCwaSuthfwMNNU1uFi9NwIvN8eOOTyX5nOQWlEz87jC2zoOauH47ra+RoZb/GiEDZV+qpJT365ZLkXHpPo3s9vw6ytzUiAV94GWg++QvIcuOqNU9FmhOUzHybcaYBQewA9iSuYNpN5mbUfRk+x97bmeX27Wb+POEdjSrQmWKa6pdWTqE3cZ+/PNMp5aeG3+SPwyCLA1AGSCg1QSKSgRz1oUlZpTU9NLCRH/Dl8Gu9jjcChxAQE0EyD8H1dSopGZwBPR7tuiOKbrFRTjk0B0bIpBLw45ft13H1nkgWOcNw6i22ibGhotm9Gvi5RibmPW/3bfU1m6DGjJ0RJSpJkF+gwTqbmV+SWFhYUF+1VlYWFJKCwEhAY4wL/LayRPHL5w8eOd1Li3whIQKSsrSVLtKUp8hYoSF6OVHpBNH0IMDCGiUgFBUvmJflLh1jtUpKBH8uON1YQkt0o5GVYXGtZsAYyaVa4Ps4LA4pUhYiqixouQbiMv3oi/fjbY0N/5qUi+YO5ePneZKYxt9/pTe83/798R/r3p38O3SurHmdJG5Zfyau+rQRzgqBf31ZfVt+LdOAgU3/pwweevzLFLUUw7HyMLF3ScgsF3PDz4e0zvAHoLj1AmQpTfwi1Mc+Ej8EBaIp+AaCKifwPaz70Ijc+ntYpN9+d6oFZ/5c7nsiWRA7wbksIcAY2bQ6UE9GxCrDvuNrd9/F4/C9FFdsI3OnuEATZGdtdnU4R0xiPX77zHF/0r6sGB/u6pDgLB5wUuvTsK/shIQ5rx5HUW2znFVkagsLzn26eVTW76fO3zAwj2P82SVB+WAABAAAooQuPQo/djNlLpqPonO3Xgqrq67kA8ElEuAMTPoSu3W/RfxiWl5jd3tQoJp60uU2hAIUwWBrm18/730LOrd++eRqa2a01axqKJJ9srMu4OS/yap7zQB2Q0i5TA/Ub0QxqDJ2C+nd7cj5qfKRYLi3NTIp5dP3oh8LyiKPL9ijr3HmUU97ZnfG9AQCAABNhJ4+Tb/z2Ox0jU/fTfNw9F0aBcX6cXgLhBoOAHtNNDxhkQYTf+u/oyLcV6SlZKWWVhWbmBm6+jsaFaxS3TDR1HLJOBQ6P26+O8+8eDY5TAw0OsZ3NJ36D15Z2a8CJ11Bnp1J7nWTTp9PD7AsDqN/50+6cA345efjReURJw4cGZitynu4OkihgcugQAQUAqB9OzSJbsjBcLq2YK6hW48GefmYNy2qU3dReAOEFACAS000LFfxJOIJMymY0uGeDALc6P/u3jm7K27d5+FxWSVVW54wTGw9mjWIqRNx149Bwzu6E2OPlEaduTnH4+E5wg5RjZNh0z75vOOTpKtkpIHv3/x86FEgWPvb/Yu6OdIKqQUIUp4xhQR0bm1NzbQn75OVqSymutYd0M4lkvNQY8sVnMLLhQgYNFi+Gfjjl9ZGVYmKnj+9HXJFHc5Q70p0CZUAQJAQKcIlJQJF+98nVsoy8J0hEMvLtsTtW5esKcTLWCiTlGDzqqYgBYa6CkZ+fmFZTjwOV5xqGJ69YsXZj0+sX7ppoM3E4spG9GJ+Lnvwm/i88jeDX49pi79ft5gz2p9+an3rpy8HlZcIf/Fk4Ryl72rR7qSrO+qpkXpMc8j3xSIUmJSCkSIZKArRUj9PVRNCWtLU+yMnvq+IDuvmOkx0ZvvVw0DkFpFwKhJE28TDjbQRYX5+XhFrpwGelHik8dPwt6mvCfeXJnbOXkGtAwJ8bKW9OdUi7woNfzek/CY9JxSPTNbJ6/gViGtXGX+LhbmxoW/jMsXmTg3bdvEiQ3RQms7DldAQOcI4EVrqw5Ex6VWfuPK1P3iMuGP2yM2zGthZQ7vwWUiBoUUIKCFBvqbhEwMAjugK4BDuVVK3hz9ff7XB5/nELY5x8SlxQc9Orf183C0NObyi7Iy4iNe3L92PzyppPDNtc2LPUJ6LepebQKQVkcKEk6t2T2kz6Iecr5QU4oQ5RKRRxoewazcopiErJCgaizyVIey2kOgpKSsIriZvoWVpTxhiItizu3bsHb/+dC0EvGfxxx9u+APJn79xbSP/CzokMqSb2/9e+3Gs0+SSmsrcUw8ug6b+cPscR0dpBv2CPHjT/w66/OD4QUijnnH7y5vmxVU/bub3hbkAAEgoHkCey8n3H2ZLa8eadllS/ZErpoRYKDPmGAb8vYByjObgBYa6EUlxFsqjW9zI0w5v+bLeQfD8MQ2x8Rn4GcLf/xkUIA19WkoSnpw4sjODQeu5JWV0V3fOFaNvY0TY9J5Ecc37xna4csARQLSKEUIVW81pC3MiN4Wl/LU0BY0wWACwvePHoQRxjLHqm1IgKwGujDrwbrvv1p+K4lX+fPYxsXdwbw8PzUhI58nyHp+4a9Pw8IT1/w5pxXJuaws7sT8L7/fF1lUUcnI2tHJRq8gLT2npCTh5v7FUdkGV9aM8ZJiogvTr234en6FdW7sNXj5NxPAOmfwkwWqAQGEbjx7v/8K4ROrwBEel//XsdivR/sybrWbAp2BKswjoIW//ESiii9Xrka7Jky8uOaHAxXWuVnAlF937pojwTrHj4OZe4cJ87dePLh3w+gQM9rjwTHtMHFEKzMOEuU/3LrrXIJC+7AoRQhNNdVncCtGUCgkRhMOnSVQEHHwf38eTRUgjnm7MRM/lOjoRYcjTD615rsK65xj3XzYsk0XX95+8PTs1We3Qp/9s/qL9s76SMRLvrZi2d/XxcMd8yJ2/LqEsM45hl495u46eufNrbthN5+8Pn9w/bQ+fmai3Pj4ZGn7lOSF7v3u820PM0UcbJ3/tva3TwMkzNDTlYUcIAAENEMgKrHg90NvGtL2pdCMozdSGiIB6gKBugho4Qx6XV1VZ37Ro+3bT8bhmXyOVZfpvy4d5C196tvar2tvSeqJBKjxx5M+Pv1sX6Ig+dK2LR/3WdGZNOEnqRI1TylCqEIhDQRUQUCY/uDfv5ZfrdwGhAiD/vze1Vtx+UjfscO4xeund5Dx6S8M/WfN6bd47tzQ8+Pf//p9rFeNl4mpR7sxy9c6602f/vfLkqKIQ1vOj+kyzrvSizTz5t7N97LwGy+zFjP+XrWwW5VLmYGdd5fJC9v3635ga5inT52fmCWv/108c821JAFY56p4MkAmEFA2gcy8sp93RvIF9HfX8rW07ew7dwfjToGa96qVT28ozXgCdX7dMF5zJiv4/ta/R6OIaC2GfqPmj2ttqbCuePGK3YDZ44+c+/1WTtnrf7YfHt1uenCNsSGjWKUIkbEtXSyW+D8kENtCR98aNZqvixyU0Wd+/KV96y5RJXHMPQJbuRkJSoXIRIp/SU21/NuXzr3Cf38cy+4TPh9Ra51XFeDad505rvfhH89miPJuXr8ZP9Lbl7DQs65fvRqPJ8g5DoPHTexMXfBh4BIy6eeQmiYoF/yEKytnrjgZXYZg7pyCBpJAgIkEyvjCn3dFZuUrx4Vy5f7oP+cE+7jSX4Mzse+gE1sIaNQPhC2Q5NUz586dW/idPEImrfoP6SLjpJ/ERrBtjQyDhs/8pKkR9nPJebhrw8Ukuf1clCJEonqQSRBI+hMlLKs9k/8CLAoT4Fh6NmvRJrjyDA5u4uVkhhdgiQrjrm1aOWPg1EUHomUItFAW8fBpxd+fUZsPunlJirHAdevUrQN2HUOi4lcvq6Illbx6+oJYzs0xa9u9Q71LQcV7WJ77cP2sxXueFoJ1Lo4FroEAUwngAAprDsdEJxYqS8FSnuinHRHZSjL3laUVyGE7AZhBV/4IlkU9D88i7HMDr05tmzYoyJqonHj7ZtVpxpSBJxadSBSknNi1d1z3RT3kMvqVIkT5mEAiEKARMGw2eeXBBeIbFRUnhd48uXXLliMRuTmvDi1Y7OC5bUFn6a7defGxicRCcUNXv6bOkuxzhLh2jX3d9FEkT1SUmpzBR1YGwrzkhHRiNk3fzcvLUpZ5+irlBcnnvl0UejdLxLHo/O0f4HdOG1PIAAJMI5BfJGjbzKZdcxvsTFe5vlNPDxGOdThRcYH/v3RPFEXtxZOaGXArihNlKuvhf2qvy/iwYorCDJINIgAGeoPwSaxcmFi5lIxj5IPjN0ssImcm12PAtOknr/18L6/09cG/jn/ccUpz+e1+pQiRU3EoDgQaSMDUvd2AL1oGuOp9uvBgPK/g+cFtl0d3GN5IigXNz8vLrVhazLWyqjPauZ6ltVWFDFFxUTF+KWUgKijIr/h25VpayGOfIz0zO8dyAw4SiIpeXrn+ckpwR3BFbeCYQ3UgoFoCOHj5B20dpbfh75US8a5AvEx7fxtDiKgoTgSuVUwAXFyUDpifm5crIL7qORY2NhSXNF7Y2intvNoFeZDOYK8u/T8/9Y6Y9KvrMAqa9Nkof8LPJffGvm2nU+X2cyEEK0VIXRpCPhBQGQEDj4GfDvYnVlqLMm+HPsuX3lDFaydcpLy8IqCT5MKV75XwlBlXv/I7F5etXCxWfUdyPVou17rDtz/O7GCJ/zbzHmxfvOyy/E5oNJmQAQSAgIYJVK5UJynR0NWkJGGQAAL1EgADvV5E8hYQCQRVy8I5+O0X+RBkpSZlZuXl5pDOnKyMqFsvYqWvVrHpOGVOXxf8xkOQfHb9gYdiqxLJTUhNKUWI1BbgJhBQBQHjpo0bGxOfVqKizKxsab9lcTxGc4uKzzVBdnaFq5kkfYQ5mdnEr1yOvq29HTGVjmuZVUypC/Nyc+X7/atn3mbW6nl9sMuMqCxyz8rle6JLJTUJeUAACLCHAO3bG/+ABwudPeOnFZoyxsXFqjsKPEtCahZISrImoW9iUhlqQlSQX4CNbvFtME1bj/9mqXcqv+bvXPj2wq8HH+DNjPB0Xz095DYaNnXSwZu/3cgveXF0y4Eh7Wb5SfavlSZHKUKkNQD3gIAqCAhLeWWV76U4JiamUucVuDZujRwMURFPkPEmKonfr4mEPxN+SmREMvGL2NDTz8+GMMy5Ns5utvqoSCBIiX2TKewhzYmG1kGOSfCYxctexc48GctLvrB0WfNmG+Z1kmuhCE2kbmToGSDrnqSumrciJSEBBDRGgDq/Vu93tMY0hYa1lIDUbzp19tnIBdkNIp3GnupsX3ltcW0dHCssCBEv6V0CZVrcqsUHn8ycOHVW9Tm5vaf0EOniehkHjJk3rAmOsijKvrV59+UqPxfqp4h4DQnXShEiQS5kAQHVERCm33z4vGJe2sDP17fCoq67MRP/1sFWxCdb2bNLN6LKJBQsfXX1ykPihqFXSIcWles5jJq3CDDHtUQloZdvSvY3Ewrrnlo38By24JfZgcSuYlmhGxeuv5xSd1kJGulolr4FanGNdPr8oaMooNsMIyBhBr2+STSG9QDUYT0BxhjorCdZ2wEjn2ZNKqxuXmToiySpb+NrK8l2ZdNz4vShFX4u785u2/UCh5yT0zwnmlGKENn0hVJAoOEEhFmP9i9beT6NiFFu1vLDXsH1/aa169mnjwd+OSgqundg3d7X1Fhquc/3LN8XWojjpJu3GTs4xLxSQ65zzx7dHAgLPe/a3vXH3pJ/WvPT7uye2338mruS7P0qAfY9Fv40r6cdNtGLww4s+eHEm7rLNhwKSAACQECVBBT4alWlOiBbFwkwxsVFi+AbeHZo3dT47rNSUfGdS+dfjvqilfwhV+rCwXX/cM74fy+vuZtX8mLXnlNjlptz5P8cUYqQujSEfPUSMHBAFh1ITRq5kpIyJyqXTMi5RFJm6bIVFGaHXf1n05PqZ7pcUJyT9PLRfxefJmB7GnGsO0yePyWo3p26uI69pn7R7dp319IFKZe+m/1Z1ORJwzsFeVtzCt/HPb59atveY6HvBXiX35BJX00JqrH2uY36Tpp65Nqqp4W8dye+nl0YOWlU3yBPO25RUtSDs8f3H3iYwHefXCh1Xtyyxaervn45YvHpd4KE4//7Jch38/yW0kNCyoZF3lLE1gcYlwKfDfK2BOWBgLYSqP4Uqukfjp5ecw0XQEANBMBAVwFk4+APBnbY9eJGoajo6YEN5z/c/LGnBDdYBRs2bjVy5oQzoX9H8dKu7d75ZAZXEdFKEaJgB6CaUgnY9kP4VMZhbEQ8SiWlSn3nI6Ni1d+F/JgTf/9yQlIljnmTD2cs/m1qJ5mCGBo2m/rjioS8bzc+yeIl392y4u4WikyObfsJyzfO7EjaMNQ8ZO6P373+atnp+LKC2EtrFl9aI16LYx7UtVNAPT+2DZt+/MPKiJipByJKsu6sXvZn4KZFfR0rFp+Ki1L1dUkpMf9vbAgf76omDfJ1iACY5zo02MzoKri4qGIcjPyGTR/iTUz0CRKPr/3572c5ymzFpuvMKQNwyAhUFrl/z4UUxUQrRYhiTUMtZhJwcbAwNOAmp+fyBVKniVWgPde2WWCgM44iSjo4+kZmNs4+rToNnjb39xPHTu6b0d2d9nOUa2BsTFTkGBkbi980cO+3YvOBHfNGdPEgPMtrDo6+pW+H0Yv/Onzsxw/9aNa2eeCkzds2/zK8gxexz2j1wTH3ajvsu1UHT/44wL3a2K6rXcR1HTx36cKOTvocUeGrQ1svSXZnrxatmn/fpWRjwY3dbVUjHqQCAe0nULFhkfZ3E3rIZAKMmWJ5fxxFTSGRwquFXKaRctiT4DoOnP7NxCfzdkaVCNKuL5k7I3X+oq8Ht3QUtyCI3giLSssqdkeRq2tcr0HTp5+4vuRhfubdi1flqlpbWClCasXBFesJGOhzm3o5hL9JS0jN8Wlkr9b+mHedc+zNHIWadBi+8WLHxQXIytGVunjUyn/Y52uHTf8lPvp1dGpWAR8Zmtl5+PoHuErbicjMq89XK/vMXhAbFhmXUsA3MLd19WgW4GFN/duV0q51+4Xbb01OzyxC5o6uttSKCvVSvkqxCZm4QqCvs3zV1F9aWIgS1yCOAdLTRziiC/6/sQ+yG6B+RaBFIEAhQF8kClEWKYggqWoCjDHQy3lISN5/RMTqJVZc1wG//JqRNX/ZqfgyQfr9jd+POPFPt76d27f1c3e0MhEVZqZlJEU+u3n+xvOsCgudw62empNlyI2CJ3428vDTHRENcUdQihBZtIUybCHQoqkLNtBDw+PVbaA3CJCxtauXdd0SDKw8Azp4BtRdQNIdIzufdp19JN2pzZPWLtfUwdXDobasGq9Kyvgvo5NxgwG+TmpsVqGmypJQ/M+kmvYfg4FOAgIJDRGgG+jg4qKhodDdZhljoGvhEFgFTdq81bnZ6lUbrr0pEJWlvryyB58SOsrRt2/xYadmNavVJBShZdl3+XT+oCszTybg0BYVB/3jhFaHlqEUITSpkMFaAkN7Bew7++zqvcjhfVviCXXW9kOnFb8dGlNcyu/aprE9dSNj5mEpo3noGSq4xJl5fQONtI0ArBHVthFlfH/AQFfpEJk27rdoY4dhN04ePHfx4r0nke9LxBxaOPoWbi3adu7ZudeH/Xu3dhSLTcExNDXFfrXFHHNTk+rlc1Q9uY1GfLk0OnPx3/cSSjh2LVs2p/rPKEUItVVtSJfkZxfXbhWFe6SH3Rgsae7I1K7yC3MKyiqiY1Te0eOaWFmbatyIxV8ahc8RL4U4sbmD/2/giBovo2ovW9rP076Nv9uTiOTrD6L7dmkuWyUoxSACPL7gzI1wrNDYAS0YpFZdquDHlXKAgU4BAkkNEaBPecFOohoaCt1tFgx01Y+9VbMek5bgk5+X+DbuXUZ2QamIa2xmZefm5+1pJ9Eu5LpP+uN2v++KuFZODuIbkZJ15br2/mlnj4WFBaV6ptZmYvZ9ZTGlCCG3qBWprHPfhEzeFldU+1PJuPWiy7dXdK2bNO43//XGkR3nX8yrrsUxdhu8+uKRLwIlDqA6QYnQ03Z4NUNtkyZNFTbQsZDPRoQ8WXrin9OPWvm7O9hqIkZgbU/gSm4Ch88/SXufH+jr1KGFp9yV1V+hjHDFIR2KBgklCYEEEGgwAQmLRMHHpcFUQYBcBMRCFchVDwrLT8DAqlGTVl279B7Y54N+XTp1aF6HdV4p2NDK2dXVwazeCVqusbm1BOtciULk7yiza9iN2Pz86dG57WrDdJS+PHP6PnU3G3Inyp7/e/RWQbV1bug79u+7YcerrHOLVsgipPZU817lelxEsWlKYpAQb2Gl4NGxheewPoGlZfx1/9wo41U7UCkoDKqplcCz14mnr4Vj36Slc/qyIwh64QsqIKNG1BxIAwFNEJAwgw4GuiYGQpfbBANdl0dfV/tu0WTQpI9a1/r886LOnr5NXqJMRlNw5+jR0OJq+1zf7YMx41vbVv94CjyNWj+sPQNPkuuqPmXektyGEBU+JefIl/p6crdGzlaRcemrtl0GG10+dpor/SIy6fftV3D7X03s4u0uU7R4zSlb3XJBaPVV9b/Uh7k6H/4FApomAPa5pkdA59oHA13nhpzdHS4rkye4T52l9e3s7LiI4/jBkF62+G+AF3Pu9HUidLTkI+u/o8cjBBaBLZpXGPW4si2TfMPM21LVLnhMzZEnbWZiuG3JCDdHy/DolF/Wn0vJyJOnNpRVNwG8b+i5Gy9/23ZZIBDNGNV+3KBW6tZAsfYEuag0llTVuDEyYMlPC5LekNBCApJm0MFE18KBZnKXwEBn8uiAbiQCwpRLP33YZcqmp9Imu2tq8OPPLOzfbfqOsIKaLLELA33i0Rc49x/T3xFfCeLPn76aIXZf7FKYeO7IqbcihwGTR/lVxrTmcplknyML7INOPvJukdNyp5ztLXYsG9nYzSYm4f2CVcdPXHleVCzPLyO5G4QKihDAe4+/eZexZMO53SceYOt89piOs0Z3VESQRurk3UGUyNIWtJ+aGlEMGgUCOHYA/g8OIKBRAowyNDRKAhpnOAFhwqHvZ/x2JV50e6wIHdg6q42lFIX58acXjZ+65m4Wer2kc7dD06ssa0oNkaDUqOvw/m5HdicKki6euZw6fIJLteNKTVF+zOmjFzM4Xp+N6Gy0rdrLpeYuEy4ssYGOv0vEZneyLyNRKeLUOvEooCa20Q+uHr/h4L19Z54eOPv438vPu7X1bdHMzcfDwc7aTI8+v6RAG1BFIQJ4q9d3yVlv4t/ffPQmLpHYkwi/7lg2p19rfzeF5GmoUibNGQyv5YADCDCDAP0TDsIsMmNkdEgLMNB1aLDZ3VWux7Dvf70VNmv78+ij88cidLBOG53/7tT34z9dey8L2YR8sXH1FMnWOUGjnMcz7jV0oMe+LXGCtMtnLiaPneJBsdDLwv89cj1Pv/mnI3vrP1onZgQzh6aBPbFEteBhrUaiIpRzFdkNrs1R6MrYSH/B5G79OvntPf30v4cxV+5F4hNLMjYyMDLU59C/wRRqBSrJTgAHehMKRUUlPOzWUlkL/44a1S94zIAWpia0QE6yy1V/yXIRyjpDbdZ2EDUH0kBAUwRoE+iM/PTXFB1oVx0EwEBXB2VoQykETJqN+/MwhzN2xtanbypt9M2z2lC3kMTW+Xfjpv55PxtZtpm5ef/vw7ylbLUu4vP51j2GDPbZtS6Kl3n19IV3E2f4kCz0wgfHjj0qMW47cmRXE/4dvqQZ9NRtSCDmdKNviVymKaW/cgixH0oy0HHN9/823ECvVCCoicvqBYPSswou3Yl+GZP2KjY9OT0fh3mRQz0oqlQCRobc5t6O/j5O7YM8urT24nJZ6KmYdxvxyT5lJk2QGYTeV+qDAsIaQIBmnyPsUdYAeVAVCMhNAAx0uZFBBQ0SMGky5s9DHM646ZsfEzZ6efnBLbPFbHT+21Pfjp/6F2Gdt5y25cAfo3zrCVMuFAmRdbchQ5puXh3Oy712+lzM1LlNxSz67GtHj73iWfQePaKVEXoolBh18N1SxEuqZWLkoQED3W4oeruoVgd8lXEI+axGeHJdSYeTncXEoW0qheHp2zK+QNynRkmNgJj6CehzOfrE2wu6/VB/XQaVSN5AVQY/w3AAAcYQYP2fGGNIgiIKEwADXWF0UFEzBIz8Rq05yOGOm/536JtjX2NflwNbZrcl5tH5b09+M+7TdQ+ykUXwlL8PrB3TxKReDUUCvMOPeachQ4PXhz8uLbx95kzkrKZB1Ra6MOXCsZNvBQ7DRw5tYoB4IqHYdkD1ilZrATN/ZNIMlRD+J1VHeSlK2YQ8f6pOK/NfHGPbxKgakjIFgyzdIFD6DmWeoHbVYTg1B9JAgEkEYAKdSaOhE7qw8N2oTowLdFIaASPfEf87tH1Oe1tU+ubYV2On//04tyzuRJV1bhY4ccOBdROa12+dYx90PIOOvVZM2g0Z2hpvJCoqunfmTHhNtBI8H3/sXCryGjJysCf2e8Hev0Rhph5un1M1S96IRDxqJqSBgMYJJK0j7X2L9TFvgyzba1wvUAAI1BCgv6MCA70GDlyohwAY6OrhDK0omYCB97DVB3fO62iLY5j/O3/MsKEjK+bOTZuPX3dg/cQAbG3LdGCbmyhnFPzhRx3w1qKi4kenTz8rqaxaFnH82JVc/ebDRvV1qMgh/GGYezhPQVyyQz4/DWUcZK7CoJluEhAUoLQd1K67f0XNgTQQ0CgBlvuQaZQdNK4kAmCgKwkkiFE7AYPGQ1cd2DW/sx3ixV6/9DQHGTcd/eeBv6cGmcuuSpWBjoz8Bw/tao7/GkpfnD4dWkwIKA49dvRe5fJQi0qBjJ5AR1wz5Dqd2vPEVTCJTmUCac0S0NNHjZcjY59aLQzdkMOo2iRcAQFGEoBFoowcFm1WijEGumUn1Gw/6bTpp83goW/KIGDg4h8S1Mi48inm2Pu2DvSoMqZllI7D1lWWNPAdNLSXNWGhvzpz5i7e2yj3xpFjYTyLbqOG4+WhLDnc5iBEXlVS/BrFL2GJ9qCmbhDgmiD8oIZEo4CTyKo70We3LxAHljToxuizp5cSXFzYozxoqh0EyF/nGuyTsQcyHqfB9qFp9hEoizm2YNy0rc+LkbGdnVFOVtKFHyZMMzy4fW6IjfydMfAaOKSP/ekjGbzoM2duLwoqOHoyBi8PHfWReFAX+cWqtYaRO3IYgd4fEmuUg2ODiSXhEggwg4AeB+HYoER40KfIuDEzdAItgIA4AaqTC3yUitOBazUQYMwMuhr6Ck1oE4EK6/yzjaF5yCxo4qZrD/Z9Tfi6xJ1cOG76htBcBXrKdes/pJ8L/sXKiz136ujhI+eSieWhg4jloSw6PBcjveoZfxM/1PIO8v6VReqDqjpHwKI1MlDgB7XOcYIOq5kAfQZdzQpAc0AADHRGPAMlUWf3rFu5Yf2Wm2/Vuv+LptptKPRa69yixdRNh/6eHOw7eMW+HV92wGtGY48vHD9j0xOxrYNkbI3r0nfIADdsoQsSjv204nyWfrNhI/s6yliZKcXwVi9eSxHSQ25zUZsXyKojUxQDPXScQHEkKkvWcQbQfRYRAAOdRYOlraoyxsVFWwHL1C9++r3da1ZfKkHm/R2Gdm/sLFMlJRTSVLsNU73WOrdsPW3zgbVjm1ZEVDTwGvrb/m38MVOJ+Ojzx3E5hzbPaGUpV1MOvT8c1Hj3xjeC7Iz3HNOOI0d0k8+jXa7GVFa40QJk3QNZhqisARAMBOQkgMN9RoxCpYnI9y/kPFHOylAcCGiAANXBBQfaBR8XDYyDTjcJBrryhr/kyYFFi49H5QmqnX719DgcrqGJpb2jR9PAdh/06dvFQ4YAIziUn0a8KjTVrnwDUGud27SbvWX/HyP9qh06sBwi9uIBgWD0tC1Pow9/OU4P2+jTWshjY9v0HDK4yfa1ETzEseg2ekRrMdnyqanJ0ti7V6J1XhqPykXIBPx9NTk4utg2fuqip6OicKLvUZNQ5r+oyVZk6KSLKKDPLCJAm0Kv/mJnUR9AVXYTYIyBnnkavSHvtIJDcTlPYhFdflrotfO3wipC9NHUPnd2358b/UfOWb5yQjsHjdjfNJVYmFFrndu2n7PtwOph3rTYD0a+o/53QCgcM2P788hDX47F8+gbPw2W8LOIxydimosEfPLeQxZdhw713xTxnOfQn7Y8FBfmV25UJBQK2EYPW+cveuK9llCLG2Cjs23w2Kwvts6jPkXpe2r7kHUahd5FzQ8g2761mXAFBBhGQNIMOsNUBHW0nQBjDHRRMeIlkWgLcaw7Vh3V778MfAaOGxRkTvx9lwt5hTmJ4Q9v3X2XL8qPOLzqS5HFvi3DGtPsSlZ1VDPKChNOfTeuYlWoXaevduxfOdSrDoomTcf+Scyjz9od/nr/3HGGpic3jfWllBVkZmViC12QmZ1FGOq1h2mn6RsOtkoW2AT0oS4PLcrMzK4w0AXvs7JZZaFXWuelb4luvugBNnrtcMOVSglUWee7qY0ICxGOOAQHEGAwAdoEOv4+Z7C6oJo2EmCMga5FcPVdu4z6co6fmElYFH1k1ZfzjoQXChLO7Dk8ZcB3XWXZh16LkCijK1yHZiGtGlvEW87c+c+yQR5ieOnSTZp/8tcBgXD0nBOGXXq3dqOUFWa//HfHv89K8Qx6/LndO8e0ntHJpcaZxcCr80dedInFCVc3H7iWV2mgJ5/fve1O28+7uNbUoldgTI64dY6VKksAG50xY6PVitRlneNO43XMZv5a3XnoHOsJSJhBBwud9aPKsg5AFBd1DJhZk1FzZ33sRPwaKn0b+jCOp45Gta4NYmb86NWLB1fUY51Xdtw8cMr6I6dPHaleQ1qDI+vwtOA2n2x+VkwY24K4Y191DRq27pXU4Dkld37pHdzvl8sZlR4uSBB/YmH34KFrw8pqpDL0AhtJ4YPxQ0dSr9JGLyFnkkpAAgg0jIAU69z1c+TxTcOkQ20goHoCtCn06nfkqm8aWgACFQRgBl1ND4KVf5CfIUoVIGF2Vg7Zq0ImDYpTIsPD36VmFfP0jCwdXX2D/X0d6p2/Lct4HR4R+z6vlGPugKs087ShzCVLa5qfm5qYVqxn6ejuaiFHNWkiG3zPxLdtK9mFWAT06kEvbTd6Z9LonfR8KTkmXX65n/uLlAKMvYUXjPptQOGDkKiIpCO20Z91QE22IPuPSPmQAAINJ4CjtURNRblXJUjC1jl+IOEAAownIGkGnfFKg4LaRQAMdHWNp1BQaZZzzMxN6X/6dWvBT7t/cvuGAycuv84orZrAxYU55m5tBg+fMmfCh8HWEuoKc8KP792y8djlp+klVZU4HCuPziPGz/56bJdGhhKqkLL4iWf+mDN3z5NMEcdu4Op7/xvlCgtbSYDEEya+iGtWm2HkVnvNhCvr7ijonAQbnZ+BXn2MHCcgv/VIX9JDxATlQQfWEUjdiWK/QkJJ+xCAdc660dRhhWkT6OCDrsNPg4a6Dga6esALM188jcJOz0jfKbiFj7GsjRaG71ry5aIz0YUVVjaHY2RqyuUVl/JEosLk0EPrnl27/3Lj6m/6kc1nYcrVpd9+u+5hRuVCRg4H+zGJ8JH37vaOlU+fZu44+3VnafHBhVk3Ny+c9w9hnRt7DV48fSBZvKy660y5lteZ3tW6bHSsd8Y+lHsdNd2ObPszvRegH8MJlKWi6Gko+5xkNcE6l8wFcllDANaIsmaotEVR8EFXx0gWRx9dv+UsDgHCse40cmQvK9naFGZc+mvh94R1zjHz6vP1qiOP70WkPo1KvvffuVVzBjU25SBBRujWr34/GiPuQM2P3r3i+wrrXN+t/dS1Oy6/fvwm4/GDu9t/X9CvmTUqin4dlSFenqpLwdMD383edPe9gLDOf1v721R/CUEKqZUgzXQClTY6R2ymv0ZjXjIKH4CiPkMCSbOeNcXgAghIIZBxCD0OBOtcCiG4xS4C9Bl02KiIXSOoBdrCDLryB1H0/sXVA9seVQoWluQkPL5++swrbPHahoxesmZiK1PZmix6/s+qw6+LREjffeDKDWumNKmK/GJs69vt42/aBrrOmPbTyRRB4pVtOx4OWtmlaj+erNt7NtxIEyCOWfC0jWu/7WVf6ZviFtxtbHDn/oNPrN+R1cSxTpdy3pvTS2auvpxQbZ1/GiDPNj+y9QtKaYgAYaOfRxEjEXZuoR9pO1DmCeQyA7l9gYxc6fchBwhII5B9GQmyJRXQQ40WIu9Vkm5BHhBgLgE9uoXOXGVBM+0kAAa68se1LPLw2h8PU+Vy7AN7D+7gaysr8YI750+/wF7nHMvuE7+cUG2d10g19Rvx5ch/L/31uIQfd+6/h9936VPhtZJ94/Lld3iCXN/xw4lTu1dZ59WVuDZtRixuU52i/StMvv77zKVHX5eiyrlzsM5piNieYd0NtX2J3sxGmcckdAUbWIkrUdZJ1C5Cwl3IAgJSCDSaj9J3Ue8beaGmO5FNT2o+pIEA4wnQV4pBFBfGD5q2KQguLsofUY6pvUsjT/fK083F1syQoCzKDDu6eN6I/vO33qXsjSNRg7JX9x8n43CMHJOQgT3pG2biOsYBnbsFEYFcBKkvwyIrA/6VhD9+TuyhwzEL6dHRWZ6FneUFTzd98dOOR/lgnUscD63JNHRAAUdR84NI31Zyn1xnSc6HXCCACfCzUdpe9GoYyn9A4mEWiKz7kHJcpqO2YWCdk5hAgs0EwAedzaPHSt1lnc9lZec0pLRRm/nb94htVMTPTQq/deXYpl2H76UVRV9aOdvE/tSKYXXtg1mptDD3bUwi4Squ36hJ8zpcUowb+/iacR6ViXiJyUl8FGKEhLlJ8elEkHVDz8Y+0taBUskIUy599/3taxkCfYfei9f8BnPnVEDS0hkHEd4ZsebgWiDHMTUphl5gDa17oOjpKOsMSUOuFXKeQsoRlaIn7RA2vyzaEqepPzKwR/Dyl8RIqxPCIlT6DhU8rj1RxepzYx9k2YHUc/evqkIrGrpXLDvuR7oLCSDALgK0KXTwQWfXAGqBtmCgq34QDazdWw+Z0rprsNOEGWtu5QviLmzfM3LAz+2qfMolKiDIyc0REKFbuNbWNnXNhBta2Vjpo2yeqKyosBghcyTIy8+rCObItbCyluvlCEePCPSC5/lzoh+/SikLbFpvjHWJautkZuw3iJdU23MjDxYY6FhdQ2cUeBql7UEx85Awr0p/l2mIS14UnHMVFb8kzveHqsroGRJ1DV0R1xTpSVrOYDcIuc2pBYKvktejrDqCe5DKiSWMPYkw7eJHzjWU+Lt4hkzXAcdIPeJloMiJMlUUL+T1C9UYff0J4r8XL1L/tcNI5PIpqVjCbyj3Bimn3gT+geS7hlQq6yxKlj+yeNAF0q+skrfojdibk3IBKucjzIqXIjlgItYg8yTyWU3SxHYAMm2OLEKQ719IX8aV8CQBkAACzCFAs88hzCJzBkdXNAEDXW0jbdPmk8/6Hrh3LEVQFn39XsS37dpIi7ZYTpjLxFEuZXvh6l/0ehxu5UBWGNmV9eT6P9e575Jp7qlf7w0vTTy59udAv60LW8szAy9XY1CYQQScJyHbgShlI3Fi7wW3uVTdsB1GOcp5CO9zhM+6DmxbU46iVyjnEiWvniS2RCkHNhblFYIliHhI/AeuqEQRIa6zKboQhrX4rzLqbUlps2BqbuELuZWhxxcvjZdbCKEHfl0vZoFgsfKyLY1BRRHITGyY8HuVlneQQR2uU9TOQxoIMJoAfZEouLgwesC0UTm5plm1EYA6+2TR1Me7Ymaan5xRFaS8rub1zczNK+wKYV5unRuPluZm5xFvm/Vt7OwqjH2OqalZxbeuMD8vt8rAr6sFSr6efa+vV09rZ8NBouz7/1v6vwtpCmx3SpEJSVYQwF7pXj+jDgko+BIybkRSGW/YTvGBId2GhG4ToP94A+tct58Ibeq92O/Xqm7BIlFtGl9W9AUMdDUOUzmPz6swmzmmJsb0P39xTbj2bo1siFlxQVLMmzoWlZbGRL0uxvI4xr6+TSpcDQzsXVyx0wtCvPjYmFx5LWzrzp8t+aGniz7eFj5i77e/H4smvNnh0BECHCNk04va1/z7kmMyUstpfxq/rNp/JTG/WNoWAtpPgdRDPVT6lpQBCSCgTQRoX9HS3mZrU8ehL4whAAa6+oaC/+7e44poKxzT5j717SZq5N86yAKPjqg49PLNeElmQd69a9de4+AtHOM27ULcKn2BTfxbBOANjJCo8OHVO6nyWujIJGDqoh/GeuOoM4K351cu3P0Udq5R3+PBxJZ4aci4MRMVU7tOx2+n7r6YsGxPlEAo36sptWuq4gbxMmLsa+63GXVIRk23qbgxEA8ENEaAZp9rTBNoWGcJMMZAt2iH/DaRTuue2jQq/LSb21esu5ePv931HXp+2M1N3DFWQke5Tr369HLFs+GinKt7Nxx/R5nNFqbf27rqaCTOxXFXRvdrUrWmk+vWs0dnW8JCzzq3Z/P5FLKJzkv8b8vMLl/sJu08Sm7boNHgX378tLU59nTJurHpp5U308kiyKUhpeUEHIaj9nGoUyYKuoi8liOHsciqG8LhOzimWt5xcveikwq3nCZmi5/H5G08qTvTxlxiKbB5W2Q3BLl9hZrtR+2iUOccYrsr1xnIyIUMCVJAQKsI0H3QpSwH06qeQ2cYQ6BybSED1DHxQfhUxsHhEL86RJqb6BJlhl87vPNJdV9E/IKs+Od3L557nlxCmOduA2d9Prw++xyHb3Ht++nskzd+vJ3Fe/vvlzPzIz+bMCTE38tclJP25uH1Y5v2nnyGrX19577TvxjZqMba53r3nzTp6M21YcWlkf/MmZ33atLwPgGNrPXy3728c+LoviNPU/RaNs+TttiF69hl7h+zX49acyOjKGzr8l+DPP4Y11hSrI7q/qnqX2HFCHK5jPkNqaqOMl6ugR2y7Uec4geOLInXX+JwH/RvLbr57r0aeS0Rr13/tR7to8lhBLL5oP6KlBL6NqQMo0aoYxopp75EYkbx95sSa9xPz9xL83QyHdr+GSqX87cr14zaVJPNyPdPaqb0NA6hQzmcpyJMRt5Dj/xnZRYghkUP4bs4Pg+O56NX88kibwNQHgiwmwA9lqy070129xW0ZygB2rcgQ/WUQy0zE8KcLCzG3h+aOcpeH/zf9wcltM3RtwsaN3fp0rHNpcVvqaloFDR98fL4rxdtC8spjLv0x6JLf9TcqrjgGLj2nPn72nH+JGlWnb/8YcHr+b9dTOZlRZxc8e3JFeK1OLadOoX40r7kxYvgeI1tJv78S0Tc3LMJvPjTi1f4N/1rRhuacUGuooJUQVEplmpqXI+yKmgZRMpAAFtvshtv+hYI4bNhB8cYGZIedUXEYdPT0En2inmF/EV7EvNLSV3deDLO3SGgTVN72eVILknEImxwOEKuCcJnAw/8c0geLA1sDaoDATYSqPmVzkblQWc2EiDPo7CxBzSd/TyIL864pCzaHdVmGNg3CwxwNKAQ5egbmdu7Ngnp9vHnC9aeO3b077Gt7Wh6cAyNjYntRjmmxib6YraAkefgVVv3bf38ow7uZuJyOQa2/j0mr9x8+MCc7q5i5SsFW7eatmP73z8MbdvIpLYSR9/Kt8Pon/48eGhuxxqboK52kaHvuG9+mRlshZ3R0+/t3HWnOkw2TXMVZsQlZmLpfp4NNoNUqCOI1mYCfIFo6Z7ItGzqT31ROVq2NxLPrGtz56FvQEC3CcAMum6PPyN6r1cdSpsR2ihFCdyjHpO35BWW7lk1kT3zr2V56e+L9CzsHa0kzhjzcuKiIt+kZRcJ9IwtHDx9AwKc63cDLn3/5kXU29QCobGVvZtXM39XC5oxj6S1yy/IeJ/HN7RytLdQt49LTn7x9J8OuDpYnt88VSlPhQqF3G9EComNNyrqEK/C5kC0Wgjgj5G1R2MvPEyvqzU3e+N184ItTdX9p1GXPpAPBICAEglsOB576i7JHe6vOUH+XrA/iBIZg6h6CGihiwte29Ha3+36o9gHz9/26tC0HgBMuW1k5eReM7NNV8rQxjuoo3cQ/Ya0HGMHv/YOftJKICStXQMLR9cGOyZIb76uu/eexuFbrfxd6yoA+UBApQRw2BYp1jluOjmzFAd1WTndXx+WSah0JEA4ENAIAdoUOri4aGQcdLnRWh8IDVPIvohCA0lnhiQ3btm0HNmXMGUv3Hqlfe8HZAPA935S6QAAK8BJREFU7lIiUfnFOxG4DyP70jZfZHfPQHt2EHj0OqcybIt0dXUsqIt0GHAXCGgVAXqYRVgkqlUDzIbOMGYGXZCLil+RiPEVdyLv0MLTw9n6XXL2o7B37Vs0JomFBOMJ3Ap9k/Y+v2ljhxZNIZQb40dL6xSMTyte8U+UjLNlVUFdusCDqnXPAXRItwnQJtAlBKzSbULQe5UTYMwMulJ7yuHozZ3QGYvcevhuXmGJUmWDMNUSyMot2nX8Pm5j7vjOEiLRqrZxkK7rBHDYlh93RBSXyRFCEQd1eRKVq+vgoP9AQLsISJpBhzl07RpjxvdGOw10jL1PR79+nZvkF5Wu3XWtjIejNcPBAgIlpbw1u/4rLuUP6xPYuZUXCzQGFbWIQF1hW6R3EYK6SOcDd4EAKwnQptBlfKvGys6C0owkoLUGOqb9/bSeHi7Wr2JSf9t2GWx0Rj5+JKWKS3nLN12Mfpfh62H39eRupHuQAAIqJoDXq6w/HhcWl69AO0Wlwp92vM4v5itQF6oAASDAQAI0+5y+JRsDtQaVtIqANhvo1hYm25eOwDb6y+iUb1afeBOfoVVDp12deR2b9s3vJyqt862/DDczkRhtkpF9NnRGhi5ipxz74DCyPzqqVL1hW6RzwUFdlu+NEmhuA2Pp6sFdIAAEGkoAPFwaShDqy0eAMYtE5VNb1tKOtubYRl/4x7kXUak/rj3Tu1PTAd0CGjmTd/+WVRiUUwmB+OSsczdfXX8YjaW3C3RfNX+grVX9Md5VoopiQtuEKlYPajGHgIxhW6Qr/OxN3saTb+cO95FeDO4CASDAfALgg878MdJ6DbXcQMfjh230nctG7jv7bMOBe1fuRuKzmbdTc29nHw8HRzsLA30OrERU81OOfQn4AmFaZkFswns8cY5nzbECxob68z7pMrp/C7zAV836QHM6TkCusC3SWUFQF+l84C4QYAsBCS4uMIPOlsHTFj2130DHI8XlciYNbdO/S9Njl8OOXQ6PjEvHp7aMIOv74WBjNrJfMF4Vam9jxvrOQAfYRkCBsC3Su4iDurg7mLRpai29GNwFAkCA2QSoU0WwSJTZ46WF2umEgV45bk525p+P7TRtRMirmPSXMekRsemZOUV4KlcLR5XxXTI00Md2eYAvfpXhFOjnZKDPZbzKoKB2EngQkd3C16pF3Z0Li81PzSql3O8X4kjJEU+GRuUE+1jit3PimXANBIAAiwjQZ9BZpDyoqh0EdMhArxwwbBq2au6GT+0YP+gFEAACDSHQL8QJn1IkvIjNW7DxpXiBj7u6zP7IWzwHroEAENAyAtT5c7xPEbi4aNkYM747OmegM35EQEG2Ecg6i4TFtUpzzZDdoNokXAEBIAAEgADbCNBn0Msh0CLbBpHt+oKBzvYRBP01TSB6FuIl1Sph5IHs4muTcAUEgAAQAALsJwAz6OwfQ5b1gDlekvQXSixDCeoCgQoC8CTDgwAEgAAQYDcBCO/G7vHTCu0ZY6Dr0TamEZVpBWHohLYTEJFXEHKMtL3D0D8gAASAgJYToLu4aHmHoXvMI8AYA51rQoUjyKbmQBoIMI1AuQAJyZvDc2hPMtN0Bn2AABAAAkBATgLg4iInMCjeUAKMMdCx5y7lKImlZEASCDCOQNErVM4jaWVMe5JJtyEBBIAAEAACTCdAn0GHRaJMHzOt048xi0RNmyEjT2TaFFm0RRbtiP8buWsdbeiQ1hEoCKV2ybwtNQfSQAAIAAEgwCoCeoi2mgjCLLJqBLVAWcYY6Hoc1OGdFgCFLugWAbqBjn9ewgEEgAAQAAJsJiBhBh0MdDYPKBt1Z4yLCxvhgc46TkBYgt4fozLAL3/gAAJAAAgAAe0iAPa5do0nC3oDBjoLBglUZCiBjIOIspTZpAkydGCotqAWEAACQAAIyEZA0gw6mOiysYNSSiLAbAMdr5rmZSippyAGCCibQMoGqkSX6dQcSAMBIAAEgADbCEjwQWdbF0BfthNgqoEuyENJf6LQpuhpeyQoYDtl0F8LCaRuR4XPSP3imCLnqaQcSAABIAAEgIBWEIAwi1oxjGzqBGMWidZAw3Hrkjeg9H1IVFiVF7cANdlScx8ugIDmCZQmoNj5VDUcxyEDG2ompIEAEAACQIBtBCS4uLCtC6Av2wkwbwY9YRVK3VxrnWPAqVtR1lm2gwb9tYeAiI+iJiMh5cUOB7nN1Z4+Qk+AABAAAkBAjADMoIvBgEt1EGCege7zB9K3p3Y9YhTKvkLNhDQQ0AiB9L0o9zq1ZfevkXkQNRPSQAAIAAEgwEIC9Bl0hGCRKAsHks0qM89AN3RETTZSkYpK0KuhYKNTsUBaIwRcPkWuX5BaNg1AjZeRciABBIAAEAACrCWgR7PQYQadtYPJVsWZZ6Bjkg4jkcNoKlFso78chN4tReUC6i1IAwE1E/BbL2aj66NmexDHSM0qQHNAAAgAASCgIgK0fURh/lxFpEFsnQQYaaBjbf02IjwrSTnK+Sj+Z/S0AyoMo9yBJBBQIQHsdF6WQpVfY6NjpyyLNtS7kAYCQAAIAAH2EqBZ6DCDzt7BZKnmTDXQDWxRi2sSbHSMufAJetISvfgAZZ5C5SKWcge12UGgLBW9+xk98EBhHyBRGVVnbKMHX0Xu86j5kAYCQAAIAAE2E6DZ59gFHXzQ2TyiLNSdeWEWayBiZ3Rso7/ohYpf1eRVX5Sj3KvEaeiGvH9HTuOq8xFhRfGza5OyXGFXM0NnUkERD/GzSDmyJIxcSKXwtCs/k5QjS8LQCemJ/WoqFyqyVRNGp8etbQ3/jOGl1yZlvMI7YuqJPR74s4mXJmPV2mIGdohjWJvEV1iIvB9z+NcaxYEEd0fe32Y4ACLHmKxJBsJ4KUd5GRF3vygMFTyuOB8i/N4GH/w09G4x8l5FKY5selNzIA0EgAAQAAIsJ0BzQQcXF5aPKAvVF7PAGKh9pY0eMRLl3ZKsHS+ZanVlX0CvPpZcuM5cfdS9wgirKZB3B4XJb3h1LSEpU/QCPW1XI1LWi47pCPe65iiJJXZrkvcIeYNMfGsrYXP2gWttUsar1k+QRevasqJiRYS0uIGsu9cKwVf33fCvKFJOvYmA08j+Q1KpR02RMI+UU2+i2T7kNJ5U6mlbVJZIypGeSPwD2X2ErDpKLwV3gQAQAAJAgP0EqHPo8s4ssZ8A9EDDBMQmazWsSR3NEzb6DeTzJ+KYSC5hIb8RLFkQ5AIB6QREFeHPS6QXgrtAAAgAASDAdgL0GXS29wj0Zx0BxhvomCj+Q8Fuvm2eI8tOVL4GTsi4ETUT0kBARQRK41H+XRXJBrFAAAgAASDAEALU+XOGqAVq6BIBNhjoleNh2gS1uouC/0P22IOl2sEaomfo0sOqyb4auiOvZahDArLpo0k1oG0gAASAABBQPQH6DHo5+LioHju0IE6A2T7o4ppWXtv0QvgsTUApm1HORQlz6vQqkAMEFCZg4IAs2iPnScj+I9KSWYUFQkUgAASAABBgPgGahQ4xXJg/aFqmIdsM9Er8xh7I+1eE8Ek7cFwX+xG0XKkZ4rFKKgtix3d5hRAVq+f1K4Xo2yoihBJphGuhiBCueaUKlf8/cS/bLq1HlVJcvVZ+1iaGZFXFS9dc69vUXBIXmJICTLCBSznwLlT02CmUMpSkEW2FKzaXhUWUUvUkjT2pBWwHI/57Uib+RNYzJFb6GjgSoc3x8gb8pMEBBIAAEAACOkaA7uICE+g69ghovrvsNNClcLNshwKOSrkv0y2zQCUIMfFWghAcurFh3bn/KnvTudzy8uU1Hfd4a7JubrCZiZxDjwMdNkyTKgX8D9VoovhFs92K162p2WRjzSVcAAEgAASAABCoIUCbQK+5AxdAQE0E2OODriYgWtXM29SilfujKb/7EzJKlv8TJRTB+zqtGmvoDBAAAkAACCiLAMygK4skyFGYABjoCqNjesXcQv6PO16XlNH24kHocVTultNvmd4B0A8IAAEgAASAgEYI0KbQYZGoRsZBlxsFA107R58vEP2y63VGDm13+urunrideu6+/DuDVleHf4EAEAACQAAI6A4BeOmsO2PNkJ6Cgc6QgVCyGn8ei331rkC60PXH417EyLkfp3SJcBcIAAEgAASAAPsJ0F1cEFjo7B9WdvUADHR2jZdM2h65nnQ5NKPeotgNfcnuyJRM2BqzXlRQAAgAASAABHSIAM3DBexzHRp9hnQVDHSGDITS1MBhW7afi5dRXEGJ4Kcdr4tKBDKWh2JAAAgAASAABLSeAH0GHXzQtX7QmdZBMNCZNiIN0kdi2BbpEiGoi3Q+cBcIAAEgAAR0jgDNQgcPF517BjTdYTDQNT0Cymsfh23B0+ESw7ZIbwSCukjnA3eBABAAAkBApwjogY+LTo03IzsLBjojh0V+pSrDtqTXHbZFukgI6iKdD9wFAkAACAAB3SFAm0AHH3TdGXym9BQMdKaMRAP1kCVsi/QmIKiLdD5wFwgAASAABHSFAM1CBx90XRl6xvQTDHTGDEUDFDlyPVmWsC3SW4CgLtL5wF0gAASAABDQEQI0+xzBFLqODD1zugkGOnPGQkFNHhBhW94pWJlcDYK6kHlACggAASAABHSRAN0HHRaJ6uJzoNE+g4GuUfwNbhyHbfl1f3S58j45IKhLg8cEBAABIAAEgAC7CdBn0JX4PctuNKC9ugjoq6shaEclBJxtjf9Z1EaK6Pxi/tRVz8QLBHhZLJnSXDwHroEAEAACQAAIAIFaAjQLXXnzYLWNwBUQkEIADHQpcFhwy8SIi08pitJDRVmaGViZG0ipAreAABAAAkAACOgyAZp9jn3QwUTX5SdCA30HFxcNQIcmgQAQAAJAAAgAAcYSoPugM1ZVUExbCYCBrq0jC/0CAkAACAABIAAEFCFAf/kM8+eKcIQ6DSAABnoD4EFVIAAEgAAQAAJAQAcIgIeLDgwys7oIBjqzxgO0AQJAAAgAASAABDRLAGbQNcsfWscEwECHxwAIAAEgAASAABAAArUEYJFoLQu40hABMNA1BB6aBQJAAAgAASAABFhCAFxcWDJQ2qMmGOjaM5bQEyAABIAAEAACQKDhBOhRXGCRaMOpggS5CICBLhcuKAwEgAAQAAJAAAjoHAGYQde5Idd0h8FA1/QIQPtAAAgAASAABIAAkwjQF4ninYqYpCDoov0EwEDX/jGGHgIBIAAEgAAQAAKyE6AvEoUZdNnpQUmlEAADXSkYQQgQAAJAAAgAASCgLQRoU+gwf64tQ8uafoCBzpqhAkWBABAAAkAACAABNRCg2efg4aIG6tAEiQAY6CQckAACQAAIAAEgAAR0nIAEFxcdJwLdVzsBMNDVjhwaBAJAAAgAASAABBhMgD6DXg5O6AweL61UDQx0rRxW6BQQAAJAAAgAASCgMAHqHDrY5wqjhIqKEQADXTFuUAsIAAEgAASAABDQTgL0GXTt7Cf0isEEwEBn8OCAakAACAABIAAEgIDaCVDnz/EaUQjjovZR0PEGwUDX8QcAug8EgAAQAAJAAAiQCNBn0MthoyISIUionAAY6CpHDA0AASAABIAAEAACrCYAM+isHj42Kg8GOhtHDXQGAkAACAABIAAEVEVAjz6FrqqmQC4QkEwADHTJXCAXCAABIAAEgAAQ0E0CdB903eQAvdYgATDQNQgfmgYCQAAIAAEgAAQYR4A+gQ4uLowbJG1XCAx0bR9h6B8QAAJAAAgAASDQMAKwSLRh/KC23ATAQJcbGVQAAkAACAABIAAEtJkAzccFZtC1ebgZ2Tcw0Bk5LKAUEAACQAAIAAEgoCECeohmoWtIE2hWZwmAga6zQw8dBwJAAAgAASAABCQQAB90CVAgS70EwEBXL29oDQgAASAABIAAEGAbgXLwcWHbkLFdXzDQ2T6CoD8QAAJAAAgAASCgTAL0GXRlSgdZQEAGAmCgywAJigABIAAEgAAQAAI6Q4Dugw4T6Doz+EzpKBjoTBkJ0AMIAAEgAASAABBgAgH6DHo5E9QCHXSJABjoujTa0FcgAASAABAAAkBAfgIwgy4/M6jRIAJgoDcIH1QGAkAACAABIAAEtIwAfQYdIZhD17JBZnp3wEBn+giBfkAACAABIAAEgIA6CdANdJhBVyd/aAsTAAMdHgMgAASAABAAAkAACNQSkLBItPYmXAEBdRAAA10dlKENIAAEgAAQAAJAgDUEaBuJwgw6a8ZOWxQFA11bRhL6AQSAABAAAkAACCiDAM0+xy7o4IOuDLIgQ2YCYKDLjAoKAgEgAASAABAAAjpAQIIPug70GrrIKAL6jNIGlAECQAAIMIqAjblB33aO4io187AQT8I1EAAC2kdAn8uxMtPXq7bT8b+mxlzt6yb0iMkE9MrhrQ2Tx6fBuvEFonuvssXF2FsaBjS2FM+BayAABIAAEAACQAAIAAHmEAADnTljAZoAASAABIAAEAACQAAIAAEIswjPABAAAkAACAABIAAEgAAQYBIBWCTKpNEAXYAAEAACQAAIAAEgAAR0ngAY6Dr/CAAAIAAEgAAQAAJAAAgAASYRAAOdSaMBugABIAAEgAAQAAJAAAjoPAEw0HX+EQAAQAAIAAEgAASAABAAAkwiAAY6k0YDdAECQAAIAAEgAASAABDQeQJgoGv4ERCmHp3TztvFxbPl1D2xfA0rA80DASAABIAAEAACQAAIaJwA7CSq4SEQFaTGvn6bVoTyY5LzRBpWRq7mS9Jeh8VkcRybtmziYCBXTSgMBJREoCw7MSlbaOHcyNEcNvlTElMQAwRYQYBfmFMgMrW1NGKFtqAkEJCfAMygy88MamACwtid09p36tq1Q8cvD2cBESCgAQLCpF2Tmnj5+vl4D1z1uEwDCkCTQAAIaISAMGXfRG87ewcb1/5rw+BvXyNjAI2qngDMoKuesVa2IBII+CJixl+AD63sIXSK8QTKSop4xDMoLC4uZdXbJ6xy6uOz/73MQTaBvQe3dYHZf8Y/a6AgswiU5Ofk8fA3UHFOXhHb/vazIm7diczRs/Pv0r2ZLbOwgjbMIgAGOrPGA7QBAkBA+wkIk06v+GTmyQJk8eHGFydmNQYLXfvHHHoIBAgCwqRjPwyt+Nv/eOuro9Mawd8+PBd1EgADvU40jLjBz0l8m1Zs7OztYVPp512WGn7/8evEHIGpk0+r9m29rWl/3rhKXFqphZu3q2XlPX5GxN37YYm5/P+3d+ZxTVxrHw+TEEgCCETZZEcRQRBBUNzqUvfloletK25dPmprrdW+tVev12prtdqKVmtVtGrVamvVumHdrlVBe11YZAfZZN+3EEIS7sxkYUiiF215DeQ3f8CZOec58zzfM0/mmXPOnOFaOvUMDvaz52ua1lCek1VYZyx0cbfVyiPLNpRlZxXVczs7u9lQ2aKK4poGabVYRlfT1FhfWVjYRKWNjEzMO1vxtTSiy+EPCICAmkCTnHYZFqupqZ31/6lNQAIEQOAlCDT7Pj0G/RI1QMRQCGAOuj63tCzrwMJePb29fRdEZMpkRXcjPhjb28d/2KQ3wubNnjpmgI/v0He+vVOkCJSVdsgyIxb08vb28lv6Izk1vPzRDx+HBvbqPSJ0Ztj8sBmhw/p49Rm78sijCqbVDY++ntLT28e7x4CPztcyMxTp+rubxnt5+fT0Gr7uqogcmj/ylpe9nX3X4I+v1lEFak4v8bJXbHYOHrP3ZbRQR7s6HAEBEAABEAABEAABEHguAfSgPxfPK86UN0okMjlLLmuoSz26ZPWy/Y+YC73IxU9v7132Rl7D2ZPLA1U933JpYyMl0igRpR1b+v6yPX+UMXvo5NWpkdsWJmVUnz6ytI+Zwjy5REJN5mOxxA0SZbdeC7slEvolHLm4oYEsJSHn+7bIZuzIJfVialIw+tAZUJB8RQQq0+/ez6g2dQ4M6SmkrsjGotirv0Ul5pY2cDu7+A4aOdzXRnP1oYr0uw8yas08Avt3s6K0llWk3rpyKz6rsEpuZtc9YOiIwd0sW1ojK0uOfphVx+7iFRzoonQoZomKtOgHT6qNrLoHBbtbUBm1OfEJ+bWy8qJa2i9ldYXJ96KLjagsI5Munr27WcN7KBjYQODlCdRkP4rJrOG5+Pd1o71OVpFy63p0Um5Zg0kXN9+BwwZ50IeZJ6jOehCbJTJz8+/jYk4fr8mM/nd0QlZhNcvcwTNoyBB/Bx6zvCJdmfkgPquGbesV6G2nYzWZ6qyHsZnVquyG4oz0YpGstKKe9n15fVlWQnw15fvk4LPQ1dNexw+I9ilxxJAINGF7pQQkKeFjBdQFxx/82QOxhiqS1B3jqEyOnZMjn2BxbPsv2PLT7aSc/Cf3z4Uv7GtFj39wHGYczJSqJFUiXGcPN1KEEAbMXH/4enxOaWn2gzNbZvYyp2UI4Zjtcaqzie6uDzElz0I4vHmqWlVP83/RzdX+VDbH473zNeTh8uTblyMjLx35IIR+KBCMXPNLpHK7/HtCqVqT5hqQAoG2ICBN3zWBvpeaBv7jlkjjDNLcfVOoTP6wzTFiUcalL2b6CznNA4YEt+vgpQcfVjClSJHJlIj5pN2ZUknOjfBFA7qaNouwCEG3MR//lEQ5gWoTP9z0GuUGhNWcYy3qUhSQpO2kHZiwmLo/n/IMac7+v3diVEmKMjbTfuuiNO1QnQn/QQAE1ASafT9Y22ekWXtCKUcWjNqWIBFnX9u+oL8Dw5EJgfvoj04m1akrIxMqEfPJ+3Klkrxbu955zUXQ7KgER9h7xueRWap7plJU7f5d5p/QcesUx24ZTv86WM85WtYkzY2YZt1cJcPvySTBf23TQ43amfohbZgE0IPe0k/0c09amJtv6jUz/PudS/oJaRWdJiz7xqWpcNiKi2XSwt8u3SiYu8CxRc+bJCcj29Rz2raIne8NslXkCP+2KsLNpHb0h+cKpWXXD/xwZ9Hm4S/xyG7VY+CoHqzGlOTtdLcf28pjwOjRtvoJDloZLgG5coKnTJS8f+G6lSdTyIVeCK6Ftam4spocMSJvwt8untMouLh7movKc+TKieEyUcLeBR+tOp5Irg9BithYc2qLy0VyeV165Jb5+VVGv+78u0pGLqendMllcpmu0SdljfImmVyx1hGbYKvOpt00BJvDeIbQzscREACBVhBQemWTtD75wFtrPzxKOzJBOhe5+Bg5vFz35PLWRbNlZhc3j1XeG1kspQhLLko88NbKD4/E15C93ISpuRlRXyuSyqVlsT+umZldffz0xtFqmWYpaqBbxyaTKX4dyJXOyF+HJrliV0dBlpxF/oLoysAxgybwrAc6g4aif8ZzHMdtPLhbFZ0r9ON5T5s+kupEl9cmJ6dpLQXL6Tpmw6G9y1XRuVLGL2zJG9255I4k9fqNmHr9sxQagcBfSkAcu2Px8pNpcqdRK/ZdTykqLSsviP910xRPskdNLk4+vHlflEjzfPV3tyxYdjyxwWbw4h0X4p4WFxUU58Sd/tcENy4pUxcXsebLC8WaMq3cZzvM2vmfuPi42BufjaIHzgSvb7gWG6fY4h+eeD9Ixzh5K+tGMRAAASYBSUz428uOJjc4vEY68qOnFaLyJ9FHV492Irsl5TUxe7ccjNW6bdZHbw5790h8feeQRVvPPMgtqagqyYw68uFQO0qm4t6OT7b/Xs08xQuk2U4zvr4VFR1158K6EQrfH7Hu4p0oeouOvn1ocV/4/gvgNIyi6EFvF+3M6x86K0hj9iuLbeXZoxuXVSaWFpeXaz1980KmzNYSYbEs+w8eaLMr6alUkpqQVCobhEWe2sUFACVfloC8qqJK4Ddv15HweX70fBiWtffEj7+V5yZO350sESdcuRrzj8EDWswulZYVl/F95nx9aMfbgfRUdBZL6BO6JsKkctSU7bFiSerJI+dWjl/k+uyu8Ocoa2Lj7mPDkmXd5tGdI4SptYuPr8dLVfWcsyALBEBAWl5SIeg1Z/uh8DcDFHdPs/6zNuxl5Q+ddyhTWvPHlWspHwT4tQiLpcX5JfyeM7ce3LlYOVjNcuw3Z/MhbuXIuRGpElHcD4cuvD9kpt1LOayZs28/Z9L3Y8wUvm9u790vRDUWh+YCAW0C6EHXZtJujnDMzcypHwq5SNyga3xdpyE8dw8PqgtdLsnPy5PoLIKDINBxCHBcJn1xUB2dK+2yGTFpLO0GkrS0jBpNYzlOkzYd3q2OzhXZbJvX35o3hHqHQ15262ZUuaYQ9kEABPSLAOX7h75RRecK3djO4ybTnegscXKKjpFnxwmfH96jjs5VMn9bPC+Ymk4uLbzx72itHwz9shradBwCCNDbc1sSbGX7vcBiyhxrS8Xa6fI6kajVYX17pgTdDZoAz2/U+N6KvnMGB1737t2orjO5pKKispGRQSV5/qMmaouwjN1CQrzph9uqpKQUzA/ToIZdENAzArw+YydpO7LA07M77fs1FRXVmkPPvL7jJ/fRWuKFZdJzwCB6bqi0NDEpXWtmjJ7ZDXU6CgEE6B2lJV/YDvKdGTb9mucLS0IABNo7Aba5QEBf/U2SBvLt0dZtPHd3NxPqJ1OSW1CkeOmzdYIoBQIgoC8ECDMz5QItkoZWh9omHu7u9GQYSV5egeYTvb5YBj06GgEE6B2tRf+XPdLislK614CwtlKs00gYGRnR14EUHzb7X/SQ31EIsI2UT6fk8l2ttonfqRO9Tqm8XiRCgN5qbCgIAvpEgE0ofF9O+n5rH87Zlp06kS+Jk2NutaL61v9i6JPZ0KX9EUCA3v7a7E9pLCtPSkilvjREWLi4Oinej+HxqHXOyUUtamu0VrT4UyeDMAh0KALkR7rpOzrBNjZ+qdfEOhQNGAMChkOAWoebttaYg6U1DKfZX7GlCNBfcQO02enro08duaf1Jpvs6eVLN6hvixLmwUEBiql2Jp2FnY2pC0GckpqkGaE3pJ05fC5V+2VScoIMLcNqqq8Xac7jazOjUDEIvEICssrSEnqRNU4XK0vFXdqIpeyIlysXOn+F6uHUIAACbUSgsai4hPqSNosjtLZSP5w3u/+zlzhvI4VQrSEQQIDeUVtZmnd53fx3wu+UMKJnWcGlr8J/Labic+GICaNU68RZ9vDypNdGTzp9/OJTRnlR8slVYe8efCzSHgdkW1pa0iN+DSlJSXUdFSLsAgEGAdHjxwn0TdrY3d3dmMogeDweHaHLaqqrXm5mKobLGYSRBAH9JFBL+T6pGmHqQb6IotRR5f5yeW1NJePG2UoTXmByXStrRLEORgABegdrUIY5cnHazyunjJu/8YerD5JSH985E75k6qLdMWS0TQj6vvXeNPXiy7w+4yYGUK/NSFIOLA9bsSfyfkra46iz3yyfPGHBrj+q7T3cLLSvEzMfn17UzBhJ+omtG4/fSUhLvHvhwFff39bqtGdohCQItAcCdXdPHLheqHXDLf/90m9Z1GCSac++AU50gG7cubOQfm20ISU5WXNdF1nOpT3HojSPKgBwuYpeOJmoHrPZ28M1AR0Ng0B99E+HbjN7tRRmF127eDWPeu3EtHdQX3tVD7qxsLNQ0U2VnJysOfjcmHl+/8mH1HRSjY2jnB4nF9fr6PrSKIxdgyagHXgZNI4OZLz52JUbp/fglt7/Ye3ckX29e/gOmrx8b1SxlPx2ucuEDTtWDWV894jX9+21iwOpKFyad2PH4rFBXp6+A0PfC/8tk+Uxeeuxz8YIta8TE5/QmaMdqO+rFd/4ctagXp4+IRMWrT0cldvq9+I7EGyY0qEIyEtufrFo/sbLucw+8fJb32w9Sk32Ivh9Jo4PVH7ayKJHTy/qOVWade7YqQxG+YaMs5+Evb3zXpX26BNZnG1maUWvJCFJSUis6lDwYAwItGMC0qLrGxcs2nK9gPl8XnItfNvJLDI+JyxCJo3vpepAZ7E6eXp50YPPGb8ePZPJEKlPP706bPGeRzXa7s+26GTJp26oDUmJiS/7WdJ2TBiqvwAB7cDrBYRR9M8TILh8PtUFRxgLBOTXx1tuZCaPzuTz+RzVU3tzEcLElEc9vxPmfL52rsBr4cGLpz6fE2Snrpfg2gZMX3v0wpEP+jHCc7JCtu2YjcePrp/u34Wj0oEwd39t0Zdnrxx9v68Vj6yBIHim6oooHYy9Fn61f91UX2uVBIuw8gr0Vb542qwlUiDQ/ghIcy9/+sbY6av3nr8Tlxgf9eu370+fveH3cvJ2y/WYsXx+kOrToya9x00MolZ2keac+L85S7efuR2fFHf77O4VoWNnb71Z0qlbN+oj4dobz7tXbypClxb8su2f+64+SnpMDkBt+eZiDuMmry2FIyAAAm1MQC7JPLdm6pg31kRciIpLjLtzdue708K+vFtNjjxzvea+N4cRn7NM/MdNULh/5o+r5izdcTbqcVLs7bO7VkwZN/fr2xVCd/cu2u7P6+ntS31HWPr01LZ1EddjkhLuXfp+654rLZ4J2thIVN9OCFDvJmN7pQTEFQXZ2fnlYp1KiMvzs7MLKnRnNjVR2TmFVRK1rCR1xzgBde2ZT92fL6UOS8vToi79cuLEqfPXH2ZV0YfUpTUTkrK0e7+d/enk6Us3Y3Pr1LmSqsKcnKJqnbLi0tQ/rkeevxB58356abMealkkQKCNCEjTd02gv0BkGviPWyKNk0izvwulM80n7n6i48otOzyTfkeaP2xzjNK71CKCkSs2zvKhF1TU+Bnn2Az5JFLhV+rzlV5dM7D5KVUtQHC6jlx3IXL9AOoDhOaT9+a0VEKSfnCms8bNm9v74xvNXqc+ARIgAAItCTT7fvC6KC3ff7J7osL3Q7/Lbul2VC3SvP1T6GzB+J1pyluWVCUiGL3i0xk9leukq52ZSnDshq+7UqhZnbTo8ur+ndSdVGoJgus8ZkPkuU8CqfE1ixmHShn6S1L3T3fU8H3TwDVav2EMESQNk4D2haW+wpD4fyJgYmnn7Gxv1TxuxjyviZW9s7Odpe5MFovKdrK1oOfDMsUYabZVt5Axk6dPnzJ+WB8XC+2edkZRlrF1t+CRk6ZOCx0zxM+RCiwUm7GFrZOTjblOWRNh96Bho8ePGz0k0EP4PD1UleE/CPxFBEz4ZlRPFME1o/+3qJXNJVcPpTP5PF2XJcEXUBE4OXLFp+posRGm3Wbtv3jmq4UDneixaCqT4Fj7TFq5//zPn45WT0FVCAlH/PPYic1h/RzUA0wE3zF41vqfr/3yrxH2fB75uV/ClGeqnHSuOpGxx9zN+z6d7tcc2hMWHv38FR9DURXCfxAAAZ0E1L5vru37LGMenx5aNuXxNNyOqovN4QkovyZM+XSxFvUTvB7zDlw68+X8EEeG7wt7TVoVce7k2tdtNW+CbJtR6388sYkcqKYno1N1EQLnAWEbf7l2as1QG/I3iHR/Po/HlDPuPn9rxIYZzPFqC49gP1dqsgw2EGAQMCKfSxi7SLZ3Ao1pO0P7LLtYR/Wgp/y4SCOWaO/WQX8QaEGgsbogr0xqYedkrZpzwsiuL88tqGRZ2uvMJKeAVuTnV0gt7J2FSllZzt6pvd45U8MiO91jTy92I++pNVn/iY7NqpSaWDv7BPp7WOkK9ZVnlFVnxdx/nFXWyOvi4h0Q4KpYw5QlqynKLZGY2zupzsJQkEw2lKTGxKUV1rIENh5+/l42OsxoKYA9EAABikBjZcHTClknB0drHd1X9WW5BVXP8f3yp3mVTZ2avVKW+e3k3kvOkb4f+t3jn992Jn2/OvOPu3HZlVJTobNPgL/783yf1EZWmRnzkHR/Kd/G1TugjwvdRU8eri7MLW206OqkQ8nG8ozYuPSiOtL33bz9PG10mIGWNnACGuMsBk4D5oMACLQnAsYW9qpIWFttnrWTu7X2YdUREysHNyvVzjP+m7sGjXINekZmy8NsC9fA4a6BLQ+S3XXmtq7Km7VmFrVv0sWz3whPXTk4BgIg8BwCxpb2bi1fpWIU5gmd3IWMfY2kibXj834a6NIWbsGj3II1BJ+5y7Z0Cxzupu3+FnbP/IEytvboO9TjmTUiAwRYmoO7QAICIAACIAACIAACIAACIPAKCaAH/RXCb4tTE8ZcLr0SC9fERMfCL21xStQJAiAAAiAAAiAAAiDwFxJAgP4XwtSHqtiubx56POxptZGVk3sXfVAIOoAACIAACIAACIAACLwQAQToL4SrPRRmWzh6ercHRaEjCOgXAQ6bY0RN+jPiYPBJv1oG2oBA2xLgGBuT662QS7BwjZ/zJnjb6oDaQUCDAFZx0QCCXRAAAUMlUF+UkpBRxhJ6+PSwxXoqhnoVwG5DJNBQ9iQ1u5Jl5erlZo0Q3RCvAH20GQG6PrYKdAIBEAABEAABEAABEDBYAljFxWCbHoaDAAiAAAiAAAiAAAjoIwEE6PrYKtAJBEAABEAABEAABEDAYAkgQDfYpofhIAACIAACIAACIAAC+kgAAbo+tgp0AgEQAAEQAAEQAAEQMFgCCNANtulhOAiAAAiAAAiAAAiAgD4SQICuj60CnUAABEAABEAABEAABAyWAAJ0g216GA4CIAACIAACIAACIKCPBBCg62OrQCcQAAEQAAEQAAEQAAGDJYAA3WCbHoaDAAiAAAiAAAiAAAjoIwEE6PrYKtAJBEAABEAABEAABEDAYAkgQDfYpofhIAACIAACIAACIAAC+kgAAbo+tgp0AgEQAAEQAAEQAAEQMFgCCNANtulhOAiAAAiAAAiAAAiAgD4SQICuj60CnUAABEAABEAABEAABAyWAAJ0g216GA4CIAACIAACIAACIKCPBBCg62OrQCcQAAEQAAEQAAEQAAGDJYAA3WCbHoaDAAiAAAiAAAiAAAjoIwEE6PrYKtAJBEAABEAABEAABEDAYAkgQDfYpofhIAACIAACIAACIAAC+kgAAbo+tgp0AgEQAAEQAAEQAAEQMFgCCNANtulhOAiAAAiAAAiAAAiAgD4SQICuj60CnUAABEAABEAABEAABAyWwH8BO9jLafQTy6cAAAAASUVORK5CYII=;" vertex="1" parent="1">
          <mxGeometry x="-50" y="400" width="448.93" height="248" as="geometry" />
        </mxCell>
        <mxCell id="M9rlW24x9_9SMTPXOsDw-2" value="" style="rounded=1;whiteSpace=wrap;html=1;fillColor=none;strokeColor=#82b366;dashed=1;strokeWidth=3;" vertex="1" parent="1">
          <mxGeometry y="920" width="160" height="80" as="geometry" />
        </mxCell>
        <mxCell id="M9rlW24x9_9SMTPXOsDw-3" value="&lt;font style=&quot;font-size: 16px;&quot; face=&quot;Times New Roman&quot;&gt;GNN&lt;/font&gt;&lt;div&gt;&lt;font style=&quot;font-size: 16px;&quot; face=&quot;Times New Roman&quot;&gt;Block&lt;/font&gt;&lt;/div&gt;" style="rounded=1;whiteSpace=wrap;html=1;fillColor=#dae8fc;strokeColor=#6c8ebf;" vertex="1" parent="1">
          <mxGeometry x="10" y="930" width="100" height="50" as="geometry" />
        </mxCell>
        <mxCell id="M9rlW24x9_9SMTPXOsDw-5" value="\(\times M\)" style="text;html=1;align=center;verticalAlign=middle;resizable=0;points=[];autosize=1;strokeColor=none;fillColor=none;" vertex="1" parent="1">
          <mxGeometry x="90" y="940" width="80" height="30" as="geometry" />
        </mxCell>
        <mxCell id="M9rlW24x9_9SMTPXOsDw-6" value="" style="endArrow=classic;html=1;rounded=0;strokeWidth=3;" edge="1" parent="1">
          <mxGeometry width="50" height="50" relative="1" as="geometry">
            <mxPoint x="80" y="1040" as="sourcePoint" />
            <mxPoint x="79.52" y="1000" as="targetPoint" />
          </mxGeometry>
        </mxCell>
        <mxCell id="M9rlW24x9_9SMTPXOsDw-7" value="&lt;font face=&quot;Times New Roman&quot; style=&quot;font-size: 16px;&quot;&gt;Input&lt;/font&gt;" style="text;html=1;align=center;verticalAlign=middle;resizable=0;points=[];autosize=1;strokeColor=none;fillColor=none;" vertex="1" parent="1">
          <mxGeometry x="50" y="1040" width="60" height="30" as="geometry" />
        </mxCell>
        <mxCell id="M9rlW24x9_9SMTPXOsDw-8" value="" style="rounded=1;whiteSpace=wrap;html=1;fillColor=none;strokeColor=#82b366;dashed=1;strokeWidth=3;" vertex="1" parent="1">
          <mxGeometry y="800" width="160" height="80" as="geometry" />
        </mxCell>
        <mxCell id="M9rlW24x9_9SMTPXOsDw-9" value="&lt;font face=&quot;Times New Roman&quot;&gt;&lt;span style=&quot;font-size: 16px;&quot;&gt;Trans&lt;/span&gt;&lt;/font&gt;&lt;div&gt;&lt;font face=&quot;Times New Roman&quot;&gt;&lt;span style=&quot;font-size: 16px;&quot;&gt;Block&lt;/span&gt;&lt;/font&gt;&lt;/div&gt;" style="rounded=1;whiteSpace=wrap;html=1;fillColor=#dae8fc;strokeColor=#6c8ebf;gradientColor=#7ea6e0;" vertex="1" parent="1">
          <mxGeometry x="10" y="810" width="100" height="50" as="geometry" />
        </mxCell>
        <mxCell id="M9rlW24x9_9SMTPXOsDw-10" value="\(\times N\)" style="text;html=1;align=center;verticalAlign=middle;resizable=0;points=[];autosize=1;strokeColor=none;fillColor=none;" vertex="1" parent="1">
          <mxGeometry x="90" y="820" width="80" height="30" as="geometry" />
        </mxCell>
        <mxCell id="M9rlW24x9_9SMTPXOsDw-11" value="" style="endArrow=classic;html=1;rounded=0;strokeWidth=3;" edge="1" parent="1">
          <mxGeometry width="50" height="50" relative="1" as="geometry">
            <mxPoint x="80" y="920" as="sourcePoint" />
            <mxPoint x="79.52" y="880" as="targetPoint" />
          </mxGeometry>
        </mxCell>
        <mxCell id="M9rlW24x9_9SMTPXOsDw-13" value="" style="endArrow=classic;html=1;rounded=0;strokeWidth=3;" edge="1" parent="1">
          <mxGeometry width="50" height="50" relative="1" as="geometry">
            <mxPoint x="80.24" y="800" as="sourcePoint" />
            <mxPoint x="79.75999999999999" y="760" as="targetPoint" />
          </mxGeometry>
        </mxCell>
        <mxCell id="M9rlW24x9_9SMTPXOsDw-14" value="&lt;font face=&quot;Times New Roman&quot; style=&quot;font-size: 16px;&quot;&gt;Output&lt;/font&gt;" style="text;html=1;align=center;verticalAlign=middle;resizable=0;points=[];autosize=1;strokeColor=none;fillColor=none;" vertex="1" parent="1">
          <mxGeometry x="45" y="728" width="70" height="30" as="geometry" />
        </mxCell>
        <mxCell id="M9rlW24x9_9SMTPXOsDw-16" value="&lt;font style=&quot;font-size: 16px;&quot; face=&quot;Times New Roman&quot;&gt;GNN&lt;/font&gt;&lt;div&gt;&lt;font style=&quot;font-size: 16px;&quot; face=&quot;Times New Roman&quot;&gt;Block&lt;/font&gt;&lt;/div&gt;" style="rounded=1;whiteSpace=wrap;html=1;fillColor=#dae8fc;strokeColor=#6c8ebf;" vertex="1" parent="1">
          <mxGeometry x="200" y="930" width="100" height="50" as="geometry" />
        </mxCell>
        <mxCell id="M9rlW24x9_9SMTPXOsDw-18" value="" style="endArrow=classic;html=1;rounded=0;strokeWidth=3;" edge="1" parent="1">
          <mxGeometry width="50" height="50" relative="1" as="geometry">
            <mxPoint x="270" y="1040" as="sourcePoint" />
            <mxPoint x="269.52" y="1000" as="targetPoint" />
          </mxGeometry>
        </mxCell>
        <mxCell id="M9rlW24x9_9SMTPXOsDw-19" value="&lt;font face=&quot;Times New Roman&quot; style=&quot;font-size: 16px;&quot;&gt;Input&lt;/font&gt;" style="text;html=1;align=center;verticalAlign=middle;resizable=0;points=[];autosize=1;strokeColor=none;fillColor=none;" vertex="1" parent="1">
          <mxGeometry x="240" y="1040" width="60" height="30" as="geometry" />
        </mxCell>
        <mxCell id="M9rlW24x9_9SMTPXOsDw-21" value="&lt;font face=&quot;Times New Roman&quot;&gt;&lt;span style=&quot;font-size: 16px;&quot;&gt;Trans&lt;/span&gt;&lt;/font&gt;&lt;div&gt;&lt;font face=&quot;Times New Roman&quot;&gt;&lt;span style=&quot;font-size: 16px;&quot;&gt;Block&lt;/span&gt;&lt;/font&gt;&lt;/div&gt;" style="rounded=1;whiteSpace=wrap;html=1;fillColor=#dae8fc;strokeColor=#6c8ebf;gradientColor=#7ea6e0;" vertex="1" parent="1">
          <mxGeometry x="200" y="810" width="100" height="50" as="geometry" />
        </mxCell>
        <mxCell id="M9rlW24x9_9SMTPXOsDw-22" value="\(\times N\)" style="text;html=1;align=center;verticalAlign=middle;resizable=0;points=[];autosize=1;strokeColor=none;fillColor=none;" vertex="1" parent="1">
          <mxGeometry x="280" y="880" width="80" height="30" as="geometry" />
        </mxCell>
        <mxCell id="M9rlW24x9_9SMTPXOsDw-23" value="" style="endArrow=classic;html=1;rounded=0;strokeWidth=3;exitX=0.5;exitY=0;exitDx=0;exitDy=0;" edge="1" parent="1" source="M9rlW24x9_9SMTPXOsDw-16">
          <mxGeometry width="50" height="50" relative="1" as="geometry">
            <mxPoint x="249.98" y="900" as="sourcePoint" />
            <mxPoint x="249.49999999999997" y="860" as="targetPoint" />
          </mxGeometry>
        </mxCell>
        <mxCell id="M9rlW24x9_9SMTPXOsDw-24" value="" style="endArrow=classic;html=1;rounded=0;strokeWidth=3;" edge="1" parent="1">
          <mxGeometry width="50" height="50" relative="1" as="geometry">
            <mxPoint x="270.24" y="800" as="sourcePoint" />
            <mxPoint x="269.76" y="760" as="targetPoint" />
          </mxGeometry>
        </mxCell>
        <mxCell id="M9rlW24x9_9SMTPXOsDw-25" value="&lt;font face=&quot;Times New Roman&quot; style=&quot;font-size: 16px;&quot;&gt;Output&lt;/font&gt;" style="text;html=1;align=center;verticalAlign=middle;resizable=0;points=[];autosize=1;strokeColor=none;fillColor=none;" vertex="1" parent="1">
          <mxGeometry x="235" y="728" width="70" height="30" as="geometry" />
        </mxCell>
        <mxCell id="M9rlW24x9_9SMTPXOsDw-27" value="" style="rounded=1;whiteSpace=wrap;html=1;fillColor=none;strokeColor=#82b366;dashed=1;strokeWidth=3;" vertex="1" parent="1">
          <mxGeometry x="380" y="850" width="230" height="100" as="geometry" />
        </mxCell>
        <mxCell id="M9rlW24x9_9SMTPXOsDw-28" value="&lt;font style=&quot;font-size: 16px;&quot; face=&quot;Times New Roman&quot;&gt;GNN&lt;/font&gt;&lt;div&gt;&lt;font style=&quot;font-size: 16px;&quot; face=&quot;Times New Roman&quot;&gt;Block&lt;/font&gt;&lt;/div&gt;" style="rounded=1;whiteSpace=wrap;html=1;fillColor=#dae8fc;strokeColor=#6c8ebf;" vertex="1" parent="1">
          <mxGeometry x="495" y="875" width="100" height="50" as="geometry" />
        </mxCell>
        <mxCell id="M9rlW24x9_9SMTPXOsDw-29" value="" style="endArrow=classic;html=1;rounded=0;strokeWidth=3;exitX=0.498;exitY=-0.006;exitDx=0;exitDy=0;exitPerimeter=0;" edge="1" parent="1" source="M9rlW24x9_9SMTPXOsDw-30">
          <mxGeometry width="50" height="50" relative="1" as="geometry">
            <mxPoint x="495.48" y="990" as="sourcePoint" />
            <mxPoint x="495" y="950" as="targetPoint" />
          </mxGeometry>
        </mxCell>
        <mxCell id="M9rlW24x9_9SMTPXOsDw-30" value="&lt;font face=&quot;Times New Roman&quot; style=&quot;font-size: 16px;&quot;&gt;Input&lt;/font&gt;" style="text;html=1;align=center;verticalAlign=middle;resizable=0;points=[];autosize=1;strokeColor=none;fillColor=none;" vertex="1" parent="1">
          <mxGeometry x="465" y="1040" width="60" height="30" as="geometry" />
        </mxCell>
        <mxCell id="M9rlW24x9_9SMTPXOsDw-31" value="&lt;font face=&quot;Times New Roman&quot;&gt;&lt;span style=&quot;font-size: 16px;&quot;&gt;Trans&lt;/span&gt;&lt;/font&gt;&lt;div&gt;&lt;font face=&quot;Times New Roman&quot;&gt;&lt;span style=&quot;font-size: 16px;&quot;&gt;Block&lt;/span&gt;&lt;/font&gt;&lt;/div&gt;" style="rounded=1;whiteSpace=wrap;html=1;fillColor=#dae8fc;strokeColor=#6c8ebf;gradientColor=#7ea6e0;" vertex="1" parent="1">
          <mxGeometry x="390" y="876" width="100" height="50" as="geometry" />
        </mxCell>
        <mxCell id="M9rlW24x9_9SMTPXOsDw-32" value="\(\times N\)" style="text;html=1;align=center;verticalAlign=middle;resizable=0;points=[];autosize=1;strokeColor=none;fillColor=none;" vertex="1" parent="1">
          <mxGeometry x="540" y="810" width="80" height="30" as="geometry" />
        </mxCell>
        <mxCell id="M9rlW24x9_9SMTPXOsDw-34" value="" style="endArrow=classic;html=1;rounded=0;strokeWidth=3;exitX=0.5;exitY=0;exitDx=0;exitDy=0;" edge="1" parent="1" source="M9rlW24x9_9SMTPXOsDw-27">
          <mxGeometry width="50" height="50" relative="1" as="geometry">
            <mxPoint x="495.24" y="801" as="sourcePoint" />
            <mxPoint x="494.76" y="761" as="targetPoint" />
          </mxGeometry>
        </mxCell>
        <mxCell id="M9rlW24x9_9SMTPXOsDw-35" value="&lt;font face=&quot;Times New Roman&quot; style=&quot;font-size: 16px;&quot;&gt;Output&lt;/font&gt;" style="text;html=1;align=center;verticalAlign=middle;resizable=0;points=[];autosize=1;strokeColor=none;fillColor=none;" vertex="1" parent="1">
          <mxGeometry x="460" y="729" width="70" height="30" as="geometry" />
        </mxCell>
      </root>
    </mxGraphModel>
  </diagram>
</mxfile>
